<svg xmlns="http://www.w3.org/2000/svg" viewBox="0 0 4096 2160"><defs><style>.cls-1{fill:#fff;}</style></defs><g id="background"><rect class="cls-1" width="4096" height="2160"/></g><g id="line_art" data-name="line art"><path d="M230.89,2028.41a4.5,4.5,0,0,1-1-8.88c2.2-.51,223.48-51.59,515.9-147.4,39.93-13.09,60.72-26.25,61.79-39.13,1.64-19.81-43.81-43.58-87.77-66.57-63.56-33.24-135.6-70.91-131-121.31,2.48-27.45,27.23-54.69,75.65-83.27,53.38-31.51,137.65-65.26,250.47-100.33,412.4-128.19,1111.37-287.77,1219.87-312.33a190.49,190.49,0,0,1-36.5-21.77c-23.9-18.17-54.08-50.73-62.14-102.66a4.5,4.5,0,0,1,4.73-5.18l186.92,11.78a4.5,4.5,0,0,1,3.88,2.8c.25.6,25,59.84,80.42,67.93l64.38,1.83a128.47,128.47,0,0,0,11-17.54,151.37,151.37,0,0,0,7.05-15.49l-16.92-.19c-2.28,7.74-10.27,23.28-37.53,21.85-28.48-1.5-42.14-19-46.22-25.42L2271,1065.6a4.49,4.49,0,0,1-3-1.41l-25.25-26.94a4.5,4.5,0,0,1,3.47-7.58l161.65,6.74a4.5,4.5,0,0,1,4.27,5.14,148.24,148.24,0,0,1-4.95,20.47l19.16.21a158.21,158.21,0,0,0,7.31-20.84,4.53,4.53,0,0,1,4.38-3.3l444.9,5c-4.91-8.08-13.33-21.85-20.81-33.56l-624.63-14.6a4.5,4.5,0,0,1-3.31-1.58c-13.4-15.68-18-28.85-13.71-39.16,6.33-15.16,29.3-17,30.27-17.08a2.36,2.36,0,0,1,.46,0l523.7,15.15c55.63,1.74,71.91,21.27,80.65,31.77l.13.16c2.47,3,6.67,9.13,11.42,16.46l27.79.65-16.07-23.48a4.68,4.68,0,0,1-.4-.73c0-.08-4.58-9.93-17.41-19.65-11.9-9-33.61-19.76-69.4-19.76h-.13l-555.69-15.15-.48,0c-.29,0-29.49-3.71-39.63,12-8.17,12.66-2.26,35.85,17.11,67.06a4.47,4.47,0,0,1,0,4.7,4.53,4.53,0,0,1-4.19,2.16l-178.49-13.47a5,5,0,0,1-1-.2c-.59-.18-14.73-4.72-29.67-20.1-13.57-14-30.5-40-34.09-84.87-2.24-27.93,5-48.34,21.38-60.72a731.88,731.88,0,0,1-7.35-82.55c-1.94-63.2,5.4-111.33,21.82-143a4.5,4.5,0,0,1,8.49,1.85c0,.31,1.82,30.69,22.76,33.75h107.26c3-.29,39.48-4.86,39.48-52.75,0-1.48,0-2.9-.13-4.27l-170.57-3a4.5,4.5,0,0,1-4.41-4.87c1.93-23.11,32.35-31.39,33.65-31.73a4.5,4.5,0,0,1,1.37-.14c.5,0,50.62,2.48,68.82,2.48,2.77,0,6.7-.43,11.24-.94,16.52-1.82,41.48-4.58,56.58,8.94,5.63,5,9.36,11.88,11.17,20.42l11.2.19c.8-.28,2.23-.8,4.23-1.55-1.34-15.08-6.22-30-19.74-33.35-32.65-8.16-102.4-4.95-103.1-4.92a4.5,4.5,0,0,1-2.11-8.57,656,656,0,0,1,113.49-38.2c36.91-8.64,70.86-12.66,100.93-12,26.24.61,49.57,4.86,69.71,12.65q4.06-2.88,8.11-5.84c54.88-40.2,115.86-72,157.35-91.55,51.63-24.36,104.08-44.42,143.89-55,72.06-19.22,422.54-58.06,672.31-4.06,52.51,11.36,105.4,36.2,157.21,73.83,41.82,30.38,83.27,69.3,123.22,115.71,4.08-1.39,12.05-5,14-12.78.51-2.06.95-4.2,1.4-6.46,2.45-12.11,5.49-27.18,24-30.56,18.87-3.43,84.25,1.42,87,1.63a4.35,4.35,0,0,1,1.8.52c2.33,1.25,22.73,12.68,21.79,27.39-.54,8.57-8.05,15.7-22.31,21.19a4.66,4.66,0,0,1-.81.23c-.49.08-24,4.38-52.94,11.53a157.11,157.11,0,0,1,51,18.88c35.11,20.48,63.36,68.66,77.5,132.18,8.37,37.6,10.8,76.68,7,113-4.07,39.18-15.34,73.08-32.58,98a4.5,4.5,0,0,1-8.2-2.73c0-.55,2.07-55.67,0-111.9-3.71-100.41-17.05-117.07-22.61-119.57-.68-.31-1.7-.77-3.72,1.17a24.79,24.79,0,0,0-4.62,6.8c41.75,68.73,20.67,269.18,19.71,278-2.22,20.56-10.43,36-24.41,45.89-25.88,18.33-63.7,12.07-78.76,8.52-12.92-3-21.13-17-24.43-41.63-62.59,25.06-148,62-216.45,101.77a4.5,4.5,0,0,1-6.71-4.56c.14-.93,13.85-93.45,13.85-187,0-20.17-.65-41.36-2.37-62.08-18.91-59.74-41.26-101.36-57.2-106.35-3.73-1.17-7.42-.63-11.26,1.63-6.72,4-13.07,12.55-18.85,23.42,29.08,4,48.28,17.65,55.91,39.92,16.81,49,38.77,313.58-18.21,405.47-11.61,18.73-26,29.34-42.71,31.54-52.9,6.93-88.17,6.36-110.13,4.09-95.76,24.44-269.06,69.82-451.61,123.26-160.52,47-296.67,90.92-404.67,130.57-134.67,49.44-225.51,92.24-270,127.19-21.93,17.23-31.7,33.49-29.87,49.69,4.62,40.8,82.39,77.48,157.6,113,84.22,39.72,163.77,77.24,159.66,125.11-4,46.26-88.3,91.88-264.71,142.89H3929.68a4.5,4.5,0,0,1,0,9H2103.34a4.5,4.5,0,0,1-1.2-8.83c101.21-27.95,176.65-54.91,224.24-80.12,41.52-22,63.45-43.44,65.19-63.71,3.58-41.63-76.8-79.54-154.53-116.2-81-38.2-157.52-74.29-162.7-120.08-2.22-19.56,8.66-38.46,33.25-57.78,45.23-35.54,136.9-78.79,272.47-128.56,108.19-39.72,244.54-83.72,405.26-130.76,170.62-49.95,333.17-92.86,432-118.24a61.39,61.39,0,0,1-7.62-2.27c-4.78-.87-36.85-8-48.55-43.35a4.5,4.5,0,0,1,7.45-4.6c.27.26,31.36,28.89,146.61,25.63a4.5,4.5,0,0,1,1.2,8.87c-.65.16-17.69,4.34-47.28,11.81,20,.18,46.13-1.14,79.3-5.49,13.92-1.82,26.11-11,36.23-27.35,23.25-37.49,35.82-113.25,35.39-213.32-.35-82.49-9.64-160-18-184.49-7.88-23-29.4-31.77-51.65-34.23-6.94,15-12.87,32.79-17.35,48.45,6.71-7.3,14.22-11.24,22.46-11.75,12.3-.77,22.86,5.71,31.45,19.27,18.13,28.58,27.3,91.12,24.53,167.28-2.61,71.81-15.53,138.62-32.91,170.22-8.27,15-17.64,22.68-27.84,22.68-8.8,0-16.82-7-23.83-20.88-18.88-37.31-31.52-126.38-31.44-221.63,0-48.18,3.4-93.43,9.71-130.86a399,399,0,0,1,9.34-42.37,201.85,201.85,0,0,0-26.6,4.71,4.16,4.16,0,0,1-1.31.15l-106.09-3.36a4.5,4.5,0,0,1-4.32-5.06c4.85-38.85-14.77-93.34-15-93.88a4.51,4.51,0,0,1,3.29-5.94c.95-.21,95.89-20.31,184.62-18.63,87.94,1.66,373.28,31.4,379.19,32,10.44.77,19.66,5.86,27.4,15.12l.09.11a26.66,26.66,0,0,1,4.1-5.23c5.57-5.34,10.94-4.1,13.64-2.88,9.39,4.22,16,19,20.75,46.56,3.52,20.38,5.93,47.61,7.16,80.93,1.39,37.56.94,74.62.48,95.44,11.52-21.81,19.18-48.93,22.35-79.49,3.68-35.37,1.31-73.46-6.86-110.13-13.4-60.18-40.78-107.42-73.25-126.36-23.44-13.67-47.7-19.31-70.71-20.26-24.89,7-50.15,15.69-66.15,25.29a4.51,4.51,0,0,1-6.16-1.51c-.08-.14-2.58-4.19-7.17-11-13.22,4.49-23.85,9.17-30.79,12.22-2.09.92-3.87,1.7-5.3,2.3-20.84,8.67-85.17-2.68-92.43-4a4.46,4.46,0,0,1-2.6-1.48c-25.77-29.76-55-50.55-86.7-61.79C3298.33,472,3122.55,588.8,3120.78,590a4.49,4.49,0,0,1-6.88-2.71c-5.78-24.53-47.07-21.83-47.5-21.8H2901.28a57.56,57.56,0,0,0-19,28.67c150.24,7.52,241.63,16.09,243.13,16.23a4.51,4.51,0,0,1,4.07,4.66c-1.8,45-58.29,59.18-60.69,59.77a4.71,4.71,0,0,1-1.3.12c-1-.05-96.32-5.07-124.64-6.74-15.32-.9-43.47-5.19-59.71-23.77-9.06-10.35-13.05-23.57-11.86-39.29.06-.84.14-1.67.23-2.5-96.86-4.72-217.11-8.93-352.78-10.21-59.21-.55-115.54.92-168.62,4.41a321.65,321.65,0,0,1-13.73,90.68,316.12,316.12,0,0,1-17.55,46.08c116.44,4.55,907.55,23.09,915.71,23.28a4.49,4.49,0,0,1,4.39,4.7,654.78,654.78,0,0,1-13.27,104.66c30-.88,36.52-1.53,36.92-1.57a4.5,4.5,0,0,1,5,4.92c-.13,1.3-13.05,130.08-16.39,158.42a4.49,4.49,0,0,1-4.23,4c-1.54.07-151.47,7.63-259.57.09a57.7,57.7,0,0,0,11.71,18c16.85,1.41,157.26,12.73,241.7,4.91a4.49,4.49,0,0,1,4.76,5.65c-.19.68-4.66,16.85-19.07,33.47-13.26,15.31-37.81,33.9-79.4,35.53a4.5,4.5,0,0,1-1.6-8.77c.17-.06,17.13-6.06,32-26.89l-201.36-7.37a191.4,191.4,0,0,0,49.34,25.87c28.82,10.24,52.17,11.4,55.44,11.52h.44a4.5,4.5,0,0,1-.13,9l-.79,0-680.28-19.35a135.12,135.12,0,0,1-30.08,20.17c-27.08,13.32-50.52,14.32-51.5,14.35a4.5,4.5,0,0,1-.76-9,83.83,83.83,0,0,0,51.23-26.45l-57.5-1.63a4.4,4.4,0,0,1-.51,0c-25.23-3.6-48.41-17.47-67-40.11a148.38,148.38,0,0,1-19.54-30.75L2046,1028.92c7,36.84,26.45,67.55,57.73,91.34,24.55,18.66,47.4,25.72,47.63,25.79a4.5,4.5,0,0,1-.32,8.7c-7.83,1.75-788,176.92-1233.45,315.37C805.41,1505,721.78,1538.45,669,1569.6c-45.11,26.63-69.08,52.31-71.26,76.33-4,44.4,65.19,80.59,126.25,112.52,50.82,26.58,94.7,49.53,92.57,75.29-1.43,17.3-23,32.22-68,46.94-292.83,96-514.48,147.11-516.69,147.62A4.34,4.34,0,0,1,230.89,2028.41ZM3176,1169c13.1,20.22,34.52,23.86,35.59,24a5.3,5.3,0,0,1,1.08.31c.15.07,8,3.2,26.32,5.21,15.41-3.93,28.75-7.31,39.75-10.07C3222.64,1186.68,3191.67,1176.63,3176,1169ZM3324.13,734.9c-12.57,42.05-19.68,103-19.74,174.09-.08,94,12.17,181.4,30.47,217.56,5.28,10.43,10.74,15.94,15.8,15.94,8.3,0,15.44-9.8,20-18,16.75-30.46,29.23-95.7,31.8-166.21,2.7-74.41-5.94-135-23.14-162.13-6.8-10.72-14.41-15.66-23.29-15.11-11.91.75-22.3,12.23-30.88,34.14a4.5,4.5,0,0,1-8.6-2.55c.54-2.64,9.27-44.39,24.23-78A165.63,165.63,0,0,0,3324.13,734.9ZM2380.64,1113a108.94,108.94,0,0,1-9.22,9.89,127.15,127.15,0,0,0,15.16-9.72Zm28.48-8.19,617.71,17.57c-1.44-.48-2.89-1-4.36-1.5a200.47,200.47,0,0,1-61.63-34.91l-36.42-1.33a23.41,23.41,0,0,1-4.89,13.6c-6.6,8.48-19,12.78-36.91,12.8a57.4,57.4,0,0,1-21.79-4.12c-9.85-4-22-12.69-25.88-31.29L2432,1071.3A136.78,136.78,0,0,1,2409.12,1104.85Zm555.21-27.71,221.47,8.1a4.51,4.51,0,0,1,3.69,6.82,98.88,98.88,0,0,1-22.43,26.16c21.44-4.36,39.08-14.42,52.62-30a91.62,91.62,0,0,0,14.88-23.67c-91,7.09-236.42-5.52-237.92-5.65a4.49,4.49,0,0,1-2.79-1.3c-14.3-14.31-17.08-29-17.19-29.67a4.49,4.49,0,0,1,4.78-5.28c98.48,7.57,236.65,1.7,261.24.56,3.41-30.21,13-125.58,15.4-149.17-5.38.31-15.6.77-34.37,1.3a587,587,0,0,1-17,60.34c-13.88,40.59-26.77,62.83-27.31,63.76a4.52,4.52,0,0,1-2,1.79c-32.6,15.44-223,10.49-231.06,10.27l-34.18-.8,17.8,26a.94.94,0,0,1,.12.18A175.5,175.5,0,0,0,2964.33,1077.14Zm-577.08,27.09,9.72.27a123.4,123.4,0,0,0,25.09-33.31l-17.93-.2a165.37,165.37,0,0,1-8.69,19.58A138.61,138.61,0,0,1,2387.25,1104.23Zm48.76-41.89,402.79,4.38a4.5,4.5,0,0,1,4.41,3.89c4.44,32.61,37.71,31.54,39.12,31.47h.2c14.72,0,25-3.19,29.81-9.22a14.76,14.76,0,0,0,2.86-11.79,4.52,4.52,0,0,1,.91-3.91,4.57,4.57,0,0,1,3.63-1.66l30.73,1.13a182.64,182.64,0,0,1-27.93-35l-21.4-31.27-28.21-.66c10.37,16.43,21.13,34.35,21.88,35.59a4.5,4.5,0,0,1-3.91,6.81l-449.55-5Q2439,1055.16,2436,1062.34Zm-162.67-5.6,23.48,1.57a4.49,4.49,0,0,1,3.73,2.47c.44.86,11.17,21.27,40,22.78,27.25,1.43,28.9-16.93,29-17.72a4.49,4.49,0,0,1,4.53-4.18l23.71.26a163,163,0,0,0,4.54-16.73l-145.46-6.07ZM3453,846.8q.28,11.36.29,23.4c0,77-9.23,153.31-12.67,179.07,68.28-38.74,151.3-74.46,212-98.7a242,242,0,0,1-.37-29.34l-175.38,65a4.51,4.51,0,0,1-6.06-4.47C3472.65,947.26,3466,897.76,3453,846.8Zm-547,154.71,40.66,1c66.71,1.8,198.16,2.21,225.72-8.86,4.2-7.64,26.29-49.87,42-118-17.47.45-41,1-72.46,1.45-105.13,1.67-218.31-10-219.45-10.12a4.51,4.51,0,0,1-3.55-6.49,49.24,49.24,0,0,0,4.81-16.88c-310.32-10.79-896.27-8.63-903.35-8.6h0a4.5,4.5,0,0,1-3.34-7.51c5.23-5.82,5.61-17.93,4-30.56l-14.38-.67A4.51,4.51,0,0,1,2003,794c-12.4-21.27-7.62-61.72-7.42-63.43a4.51,4.51,0,0,1,4.79-3.94c87,6.22,247,2.3,268.4,1.73,25.46-40.3,27.7-94.13,26.14-127q-46.53,4.5-89.14,11.25a4.5,4.5,0,0,1-5.13-5.27,157.64,157.64,0,0,0,2.14-26.1c-1.53.56-2.37.85-2.46.88a4.4,4.4,0,0,1-1.54.25l-10.69-.19c.08,1.34.11,2.71.11,4.11,0,29.78-13,45-23.83,52.53a53.62,53.62,0,0,1-24.1,9.21H2032.15a3.81,3.81,0,0,1-.59,0c-17-2.27-24.7-16.24-28.12-27.51-29.18,75.91-7.62,208.44-7.39,209.85a4.48,4.48,0,0,1-1.93,4.47c-15.19,10.23-21.85,28.47-19.79,54.22,3.35,41.85,18.81,66,31.19,78.92,12,12.5,23.52,17.17,25.87,18l169.25,12.78c-17.91-31.1-22.12-54.36-12.51-69.2,12.8-19.78,44.69-16.45,48.12-16l555.4,15.14c71.42,0,92.5,39.55,94.8,44.37Zm-666.23-15.57,616.44,14.41c-3.1-4.68-5.73-8.43-7.41-10.45l-.13-.16c-8.39-10.07-22.43-26.92-74-28.53l-523.45-15.15c-5.28.45-19,3.33-22.41,11.57C2226,964.18,2229.83,973.94,2239.73,985.94ZM3662.28,956.4c2.1,17.56,7.1,33.83,17.77,36.34,13.87,3.27,48.6,9.11,71.5-7.1,11.78-8.34,18.73-21.63,20.67-39.52,7.64-70.68,13.16-209.2-15.09-266.26-7.22,22-13.36,60.92-17,109.79-4.45,59.93-3.57,117.79,2,131.71a4.53,4.53,0,0,1-.09,3.54,4.47,4.47,0,0,1-2.61,2.38C3738.7,927.54,3707.41,938.52,3662.28,956.4ZM3450.85,806.54l.51,1.61c18.88,60.57,29.65,123.74,28.66,167.26l175.55-65a4.5,4.5,0,0,1,6,4.62,224.26,224.26,0,0,0-.19,32.06c34.93-13.81,61.23-23.36,71-26.84-5.55-22.21-5-81-1.21-131.24,2.1-28.33,7.86-89,20.12-119-.83-1.17-1.67-2.27-2.55-3.32-6.22-7.44-13.15-11.34-21.21-11.91l-.14,0c-2.9-.3-290.47-30.31-378.5-32-76.12-1.44-157,13.36-177.58,17.42,4.63,14,16.82,54.67,14.23,88.24l100.62,3.2a211.37,211.37,0,0,1,31.14-5.26c5.59-17.21,12.16-31,19.66-41.19,12.16-16.56,26.65-23.56,43.06-20.83C3419.86,671,3443.59,718.72,3450.85,806.54Zm-521.35,52c24.86,2.38,121.6,10.92,212.28,9.48,32.9-.52,57-1,74.62-1.51a640.3,640.3,0,0,0,13.35-100.73c-67.11-1.58-835.11-19.64-918.28-23.48a4.49,4.49,0,0,1-3.73-6.67c.38-.68,32.94-60.68,33.42-138.16q-18.9,1.32-37.22,3c.4,8.08.57,17.44.24,27.6-1,30.15-6.83,73.22-29.15,107.15a4.53,4.53,0,0,1-3.63,2c-1.75,0-172.92,4.83-267.28-1.4-.81,10.15-2,36.1,5.53,51.46l10,.47a201.75,201.75,0,0,0-6.9-26.63,4.5,4.5,0,0,1,4.53-5.95l111.14,6.74a4.47,4.47,0,0,1,2.71,1.12c5.47,4.86,6.21,10.05,5.87,13.55-1.23,12.6-18.12,22.88-20,24a4.5,4.5,0,0,1-2.49.61l-84.25-4c1.11,10.27,1,20.66-2,28.61,70.93-.22,604.37-1.49,895.88,8.64-.73-19.87-10-37.08-10.09-37.32a4.5,4.5,0,0,1,4.21-6.65L3063,799a4.66,4.66,0,0,1,1.16.22c7.12,2.38,12.09,6.78,14.78,13.1,6.46,15.19-3.3,36-3.72,36.89a4.48,4.48,0,0,1-4.51,2.54c-31.55-3.18-79.52-5.77-137.9-7.89A61,61,0,0,1,2929.5,858.53Zm3.58-23.68c56.62,2,103.49,4.55,135.18,7.6,2.14-5.55,6.07-18,2.36-26.64-1.6-3.74-4.48-6.32-8.8-7.88L2925.16,800C2928.34,807.6,2932.69,820.52,2933.08,834.85Zm-904.17-46.64,84.58,4c5.75-3.66,14-10.74,14.54-16.45a6.06,6.06,0,0,0-1.85-4.91l-102.9-6.24A204.73,204.73,0,0,1,2028.91,788.21Zm1351.92-96.14a21.86,21.86,0,0,1,6.54,1c10.45,3.28,21.76,16.31,33.62,38.75a354.85,354.85,0,0,1,15.7,34.57c-8.52-48.7-25.65-87.8-58.15-93.21-13-2.17-24.2,3.49-34.33,17.28-6.4,8.7-12.13,20.58-17.13,35.18,3.86-.18,7.84-.24,11.89-.15,2,0,4,.14,6,.26,6.89-13.61,14.91-24.92,23.89-30.21A23.46,23.46,0,0,1,3380.83,692.07Zm-500.29-89c-.1.89-.19,1.8-.26,2.72-1,13.23,2.26,24.23,9.66,32.7,14.09,16.11,39.55,19.89,53.47,20.7,27,1.59,115.1,6.24,123.89,6.7,5.56-1.52,48.12-14.19,52.83-47C3100,617.14,3013.07,609.69,2880.54,603.09Zm-668.83-25.28a157.65,157.65,0,0,1-1.27,24.93q40.21-6.19,83.92-10.41c-.93-12.42-2.22-20.2-2.27-20.47a4.52,4.52,0,0,1,1.11-3.8c17.14-18.81,45.19-41.23,80.83-65q-5.46-2.94-11.35-5.45C2300,541.16,2236.88,568,2211.71,577.81Zm282.93,5.51q12,0,24.2.11c136.35,1.28,257.12,5.53,354.3,10.28a65,65,0,0,1,15.28-28.22H2853.9a4.69,4.69,0,0,1-.84-.08c-185.61-35.56-313.94-33.22-388.92-25-68.13,7.48-105.37,20.93-115.61,25.08.73,6.63,1.28,14.11,1.51,22.34C2395.91,584.83,2444.2,583.32,2494.64,583.32Zm-193.33-10.78c.48,3.26,1.37,9.9,2.06,18.94q18.55-1.69,37.7-3c-.21-8.25-.81-16.67-1.86-25.22a4.5,4.5,0,0,1,2.54-4.62c1.56-.73,39.1-18.1,121.41-27.13,75.54-8.29,204.69-10.67,391.17,25h43.94l.49-.37a83.87,83.87,0,0,1,24.61-12.92l.11,0c224.22-58.93,338.24-72.63,366.14-75.33-7.76-15.59-25.26-57-7.73-84.11,12.32-19.05,39-26.64,79.32-22.55,31.07,3.14,63.46,15.56,96.28,36.91,26.07,17,52.49,39.56,78.52,67.2a665,665,0,0,1,61.52,76.35c20.78-6.54,46.8-12.11,74.74-11.18,36.47-10.21,71.42-16.72,76.25-17.6,10.15-4,15.88-8.65,16.17-13.21.46-7.24-11.13-15.48-16.26-18.44-8.36-.6-67.2-4.69-83.76-1.67-12,2.17-14.18,10.34-16.84,23.48-.45,2.26-.92,4.6-1.49,6.86-4,16-22.58,20-23.37,20.12a4.49,4.49,0,0,1-4.31-1.48c-40.07-46.85-81.64-86-123.55-116.47-50.79-36.89-102.54-61.22-153.82-72.31-248.31-53.69-596.52-15.14-668.09,3.95C2596.91,364,2466.46,421.82,2375,488.84l-3.74,2.72q5.84,2.74,11.26,5.92c31.3-20.39,67.89-41.64,107.72-62.36,91-47.33,178.86-81.26,235-90.74,28.14-4.76,126.2-9.81,222-7.25,121.45,3.25,189,16.51,200.85,39.42,3,5.9,4.13,15.49-8,27.65-31.12,31.13-84.85,63.45-159.67,96.08-55.55,24.23-102.66,39.58-103.13,39.73a4.55,4.55,0,0,1-2.85,0c-63.58-21.82-172.13-47.29-328.25-44.62-93.51,1.58-160.58,12.69-161.25,12.8a4.4,4.4,0,0,1-2.07-.14C2347,531.62,2318.76,553.87,2301.31,572.54Zm769.36-16.19c11.71,0,40.61,2.18,50,23a930.59,930.59,0,0,1,95-53.33c73.75-35.46,128.73-47.2,163.42-34.92,32.81,11.62,62.9,32.88,89.46,63.18,20.18,3.57,70.65,10.59,85.81,4.27,1.39-.58,3.11-1.34,5.14-2.23,6.7-2.95,16.71-7.35,29.12-11.69a653.73,653.73,0,0,0-59.29-73.26c-25.53-27.09-51.38-49.21-76.84-65.76-31.57-20.52-62.59-32.45-92.19-35.45-36.68-3.71-60.52,2.5-70.86,18.48-18.51,28.6,10.92,80.36,11.22,80.88a4.5,4.5,0,0,1-3.62,6.74c-1.09.07-112.2,7.55-371.21,75.62a67.11,67.11,0,0,0-11,4.64h151.09C3066.53,556.45,3068.22,556.35,3070.67,556.35ZM2014.16,570.06,2177.67,573a26.91,26.91,0,0,0-7.92-13.54c-12.11-10.85-34.66-8.35-49.58-6.7-4.82.53-9,1-12.24,1-17.41,0-61.93-2.14-68.52-2.46C2035.94,552.3,2018.8,558,2014.16,570.06Zm97.75-46.25c23.29,0,53.68,1.07,72.88,5.87,17.55,4.39,24.18,21.51,26.22,38.74,25.52-10.12,83.22-35.09,141.46-74.72-17.79-6.06-38.12-9.39-60.78-9.93-29.28-.7-62.45,3.23-98.6,11.68a659.67,659.67,0,0,0-90,28.41C2105.88,523.83,2108.83,523.81,2111.91,523.81Zm1490.91,25.63c1.47,2.21,2.67,4,3.61,5.5a220.78,220.78,0,0,1,30.47-13.28A242.75,242.75,0,0,0,3602.82,549.44ZM2567.77,486.18c85.32,0,201.44,8.5,308.05,44.8,17.38-5.78,188.69-64,257.8-133.15,10.06-10.05,7.3-15.4,6.39-17.15-2.91-5.64-15.18-16.32-64.66-24.39-32.69-5.34-75.9-8.76-128.43-10.17-95.25-2.54-192.47,2.44-220.25,7.13-55.24,9.34-142.08,42.93-232.31,89.86-34.34,17.86-66.21,36.08-94.28,53.76a1305.43,1305.43,0,0,1,145.68-10.5C2552.83,486.25,2560.19,486.18,2567.77,486.18Z" transform="translate(0 0)"/></g></svg>