<svg width="48" height="26" viewBox="0 0 48 26" fill="none" xmlns="http://www.w3.org/2000/svg">
<path d="M12 12.541C12 14.474 12.7386 21.5 15.5 21.5C18.2614 21.5 22.5 22.933 22.5 21C22.5 19.067 21.6966 11.0416 18.9352 11.0416C16.1738 11.0416 12 10.608 12 12.541Z" fill="#2C3D55"/>
<path d="M27.5001 8C27.5001 8.59812 29.3484 10.1694 27.0001 12C26.1746 14.1451 24.9816 18 24.0002 18C22.0761 18 22.262 12.4996 20.0001 11C20.0001 9.77913 19.5761 7.5 21.5001 7.5C23.762 9.5 27.5001 6.77913 27.5001 8Z" fill="#2C3D55"/>
<path d="M11 4.5C11 6.433 9.65685 8 8 8C6.34315 8 4.5 6.433 4.5 4.5C4.5 2.567 6.34315 1 8 1C9.65685 1 11 2.567 11 4.5Z" fill="#2C3D55"/>
<path d="M12.5 9.00001C12.5 10.933 10.7614 18 8 18C5.23858 18 1 18.933 1 17C1 15.067 2.8034 7.50056 5.56482 7.50056C8.32624 7.50056 12.5 7.06701 12.5 9.00001Z" fill="#2C3D55"/>
<path d="M21 13.6017C21 15.6109 17.5172 22.9569 14.4869 22.9569C11.4566 22.9569 9 23.407 9 21.3978C9 19.3887 10.3592 12.0432 13.3895 12.0432C16.4198 12.0432 21 11.5926 21 13.6017Z" fill="#2C3D55"/>
<path d="M36 11.9991C36 12.7098 36.9087 13.9216 37.5 15.4995C38.5169 18.2132 39.7461 21.9995 38 21.9995C35.2386 21.9995 25 23.433 25 21.5C25 19.567 27 10.4585 29.5 11.4996C30.1961 12.4277 31.6459 12.3319 33 11.9991C34.5638 11.6148 36 10.9632 36 11.9991Z" fill="#2C3D55"/>
<path d="M35.5 8.5C35.5 9.39331 38.245 15.0631 39 17.0546C39.7958 19.1536 39.1369 18.0007 40.5 18.0007C43.1563 18.0007 47 18.8894 47 17.0546C47 15.2197 45.6563 7.49997 43 7.49997C43 7.49997 35.5 6.66515 35.5 8.5Z" fill="#2C3D55"/>
<path d="M19.0034 11.543L15.5534 12.5L12.5001 11L18.6027 10.5756L19.0034 11.543Z" fill="white"/>
<circle cx="16" cy="8" r="3" fill="#2C3D55"/>
<path d="M43.5 4.5C43.5 6.433 41.6569 8 40 8C38.3431 8 37 6.433 37 4.5C37 2.567 38.3431 1 40 1C41.6569 1 43.5 2.567 43.5 4.5Z" fill="#2C3D55"/>
<rect x="21.6494" y="15.3818" width="3.30063" height="1.04704" transform="rotate(-119.984 21.6494 15.3818)" fill="white"/>
<path d="M20.468 13.4863L18.8185 10.6275L19.5 10L21.5564 12.8584L20.468 13.4863Z" fill="white"/>
<rect x="37" y="7.58691" width="0.605535" height="3.46349" transform="rotate(-75.88 37 7.58691)" fill="white"/>
<path d="M38.7428 22H25.3186C25.282 22 25.2481 21.9861 25.2232 21.9609C25.1984 21.9358 25.1853 21.9017 25.1879 21.8677L25.1919 21.7947C25.2167 21.3726 25.2833 20.2502 25.4898 18.8746C25.5134 18.7234 25.5369 18.5697 25.563 18.4185C25.5879 18.2674 25.6153 18.1149 25.644 17.9625C25.8976 16.5995 26.2361 15.3914 26.6503 14.3722C27.177 13.0759 27.8318 12.0782 28.5937 11.408C28.6982 11.3161 28.8093 11.2229 28.9426 11.117C28.9949 11.0755 29.0694 11.0792 29.1177 11.1246C29.3085 11.306 29.5176 11.4698 29.7398 11.6121C29.9175 11.7268 30.1083 11.8288 30.3057 11.9157C30.4769 11.9913 30.652 12.0568 30.8271 12.1072C31.2218 12.2231 31.6308 12.2823 32.0451 12.2823C32.479 12.2823 32.909 12.2168 33.3232 12.0883C33.5049 12.0316 33.6813 11.9648 33.8473 11.8867C34.0433 11.796 34.2354 11.6877 34.4197 11.5642C34.6118 11.4358 34.7935 11.2909 34.9608 11.1334C35.0091 11.0881 35.0849 11.0855 35.1359 11.1271C35.2639 11.2304 35.3698 11.3186 35.4691 11.4068C36.231 12.0782 36.6728 13.2547 37.2007 14.551C37.615 15.5701 38.1652 16.5982 38.4187 17.9612C38.4475 18.1137 38.4736 18.2661 38.4998 18.4173C38.5259 18.5697 38.5494 18.7221 38.5729 18.8733C38.7807 20.249 38.8461 21.3714 38.8722 21.7934L38.8761 21.8665C38.8788 21.9005 38.8657 21.9345 38.8409 21.9597C38.8134 21.9849 38.7794 22 38.7428 22ZM25.4572 21.7481H38.6056C38.5782 21.2895 38.5089 20.2137 38.3129 18.9098C38.2907 18.7599 38.2658 18.6088 38.241 18.4576C38.2162 18.3089 38.1887 18.1565 38.1613 18.0053C37.5954 14.9643 36.6035 12.7459 35.2927 11.592C35.2208 11.5277 35.1437 11.4635 35.0575 11.3929C34.9046 11.5302 34.7399 11.6562 34.5687 11.7708C34.3727 11.9019 34.1688 12.0165 33.9597 12.1135C33.7833 12.1954 33.5951 12.2672 33.403 12.3277C32.9638 12.4637 32.5064 12.533 32.0451 12.533C31.606 12.533 31.1695 12.47 30.7513 12.3466C30.5657 12.2924 30.3802 12.2231 30.1972 12.1425C29.9868 12.0492 29.7855 11.9409 29.596 11.82C29.3922 11.689 29.2001 11.5428 29.021 11.3816C28.9295 11.4559 28.8485 11.5252 28.7714 11.5932C27.4606 12.7471 26.4687 14.9656 25.9028 18.0066C25.8754 18.1565 25.8479 18.3089 25.8231 18.4588C25.7983 18.6088 25.7734 18.7599 25.7512 18.9111C25.5526 20.2124 25.4846 21.2882 25.4572 21.7481ZM22.599 22H9.17482C9.13823 22 9.10425 21.9861 9.07942 21.9609C9.05459 21.9358 9.04152 21.9017 9.04414 21.8677L9.04806 21.7947C9.07289 21.3726 9.13954 20.2502 9.34733 18.8746C9.36955 18.7234 9.39438 18.5697 9.42052 18.4185C9.44535 18.2674 9.47279 18.1149 9.50154 17.9625C9.75508 16.5995 10.0936 15.3914 10.5078 14.3722C11.0345 13.0759 11.6892 12.0782 12.4512 11.408C12.5557 11.3161 12.6668 11.2229 12.8001 11.117C12.8524 11.0755 12.9269 11.0792 12.9752 11.1246C13.166 11.306 13.3751 11.4698 13.5973 11.6121C13.775 11.7268 13.9658 11.8288 14.1632 11.9157C14.3344 11.9913 14.5095 12.0568 14.6846 12.1072C15.0793 12.2231 15.4883 12.2823 15.9026 12.2823C16.3273 12.2823 16.7469 12.2206 17.1507 12.0984C17.3258 12.0455 17.5009 11.9787 17.6734 11.9006C17.8721 11.8099 18.0642 11.7053 18.2419 11.5882C18.4445 11.4559 18.6379 11.3022 18.8182 11.1334C18.8666 11.0881 18.9424 11.0855 18.9934 11.1271C19.1214 11.2304 19.2273 11.3186 19.3266 11.4068C20.0885 12.0782 20.742 13.0747 21.2699 14.371C21.6842 15.3901 22.0227 16.5982 22.2762 17.9612C22.305 18.1124 22.3311 18.2661 22.3573 18.4173C22.3834 18.5697 22.4069 18.7221 22.4304 18.8733C22.6382 20.249 22.7036 21.3714 22.7297 21.7934L22.7336 21.8665C22.7363 21.9005 22.7232 21.9345 22.6984 21.9597C22.6696 21.9849 22.6356 22 22.599 22ZM9.31335 21.7481H22.4618C22.4344 21.2895 22.3651 20.2137 22.1691 18.9098C22.1469 18.7599 22.122 18.6088 22.0972 18.4576C22.0724 18.3077 22.0449 18.1565 22.0175 18.0053C21.4516 14.9643 20.461 12.7459 19.1489 11.592C19.077 11.5277 18.9999 11.4635 18.9136 11.3929C18.7477 11.5416 18.5712 11.6764 18.3883 11.7973C18.1988 11.922 17.9949 12.0329 17.7832 12.1286C17.6002 12.2118 17.4134 12.2823 17.2278 12.3377C16.7991 12.4675 16.3535 12.533 15.9026 12.533C15.4635 12.533 15.027 12.47 14.6088 12.3466C14.4232 12.2924 14.2377 12.2231 14.0547 12.1425C13.8443 12.0492 13.643 11.9409 13.4535 11.82C13.2497 11.689 13.0575 11.5428 12.8785 11.3816C12.787 11.4559 12.706 11.5252 12.6289 11.5932C11.3181 12.7471 10.3262 14.9656 9.7603 18.0066C9.73286 18.1565 9.70541 18.3089 9.68058 18.4588C9.65575 18.6088 9.63092 18.7612 9.60871 18.9111C9.40875 20.2124 9.3408 21.2882 9.31335 21.7481ZM46.8716 18.1086H39.2421C39.178 18.1086 39.1245 18.0645 39.1127 18.0041C38.5076 14.6343 37.436 12.2508 35.9252 10.9218C35.8115 10.821 35.69 10.719 35.5645 10.6182C35.5136 10.5766 35.5031 10.5061 35.5384 10.4519C35.9827 9.79682 36.218 9.03719 36.218 8.25615C36.218 8.1919 36.2153 8.12891 36.2127 8.07978C36.2114 8.04829 36.2219 8.0168 36.2441 7.99286C36.3996 7.8165 36.5604 7.65525 36.7198 7.51416C36.823 7.42345 36.9381 7.32771 37.0687 7.22316C37.121 7.18158 37.1955 7.18536 37.2439 7.23071C38.0306 7.97774 39.0709 8.38968 40.1713 8.38968C41.2651 8.38968 42.3002 7.98278 43.0856 7.24205C43.1339 7.1967 43.2097 7.19418 43.2607 7.23575C43.3888 7.33905 43.4946 7.42723 43.594 7.51542C44.2748 8.11506 44.8708 8.97672 45.3648 10.0777C45.7673 10.9747 46.1071 12.0404 46.375 13.2422C46.8455 15.3586 46.9579 17.2722 46.9958 17.902L46.9997 17.9751C47.0023 18.0091 46.9892 18.0431 46.9644 18.0683C46.9422 18.0948 46.9082 18.1086 46.8716 18.1086ZM39.3518 17.8567H46.7331C46.6926 17.1777 46.5736 15.3296 46.1215 13.2951C45.5321 10.6421 44.6225 8.76005 43.4201 7.70186C43.347 7.63761 43.2712 7.57337 43.1849 7.50282C42.3616 8.23851 41.2965 8.64289 40.1739 8.64289C39.0434 8.64289 37.9744 8.23473 37.1485 7.49022C37.057 7.56455 36.9759 7.63383 36.8988 7.70186C36.7577 7.82532 36.6166 7.96641 36.478 8.1201C36.4793 8.16167 36.4806 8.20828 36.4806 8.25741C36.4806 9.05105 36.2532 9.82327 35.8207 10.4972C35.9174 10.5766 36.0128 10.6572 36.103 10.7366C36.9537 11.4849 37.6764 12.5708 38.2528 13.9641C38.7115 15.0701 39.0813 16.3803 39.3518 17.8567ZM24.8194 18.1086H23.0996C23.0355 18.1086 22.9819 18.0645 22.9702 18.0041C22.3651 14.6343 21.2935 12.2508 19.7827 10.9218C19.669 10.821 19.5475 10.719 19.422 10.6182C19.3711 10.5766 19.3606 10.5061 19.3959 10.4519C19.8402 9.79682 20.0755 9.03719 20.0755 8.25615C20.0755 8.18812 20.0742 8.11884 20.0702 8.04955C20.0689 8.0168 20.0794 7.9853 20.1016 7.96137C20.248 7.7976 20.3996 7.64769 20.5499 7.51416C20.6544 7.4222 20.7655 7.32897 20.8988 7.22316C20.9511 7.18158 21.0256 7.18536 21.0739 7.23071C21.8606 7.97774 22.9009 8.38968 24.0013 8.38968C25.0952 8.38968 26.1302 7.98278 26.9156 7.24205C26.964 7.1967 27.0398 7.19418 27.0908 7.23575C27.2188 7.33905 27.3247 7.42723 27.424 7.51542C27.5665 7.64139 27.7089 7.78122 27.8461 7.93239C27.8683 7.95759 27.8801 7.98908 27.8788 8.0231C27.8736 8.10876 27.871 8.1856 27.871 8.25741C27.871 9.03341 28.1023 9.788 28.5401 10.4393C28.5767 10.4935 28.5649 10.564 28.5139 10.6043C28.3806 10.7114 28.2526 10.8185 28.1349 10.9218C26.6242 12.2508 25.5526 14.6343 24.9475 18.0041C24.937 18.0645 24.8821 18.1086 24.8194 18.1086ZM23.2093 17.8567H24.7096C24.9802 16.3803 25.35 15.0701 25.8087 13.9628C26.385 12.5695 27.1091 11.4849 27.9585 10.7353C28.0539 10.6522 28.1546 10.5665 28.2591 10.4809C27.8331 9.81068 27.6096 9.04349 27.6096 8.25615C27.6096 8.19442 27.6109 8.12891 27.6148 8.05963C27.4946 7.92987 27.3717 7.8102 27.2489 7.70186C27.177 7.63761 27.0999 7.57337 27.0136 7.50282C26.1903 8.23851 25.1252 8.64289 24.0026 8.64289C22.8722 8.64289 21.8031 8.23473 20.9772 7.49022C20.8857 7.56455 20.8047 7.63383 20.7276 7.70186C20.5956 7.81776 20.4636 7.94751 20.3355 8.08986C20.3381 8.14529 20.3394 8.20198 20.3394 8.25741C20.3394 9.05105 20.1121 9.82327 19.6795 10.4972C19.7762 10.5766 19.8716 10.6572 19.9618 10.7366C20.8125 11.4849 21.5352 12.5708 22.1116 13.9641C22.5677 15.0701 22.9375 16.3803 23.2093 17.8567ZM8.6756 18.1086H1.13102C1.09442 18.1086 1.06045 18.0948 1.03561 18.0696C1.01078 18.0444 0.997715 18.0104 1.00033 17.9764L1.00425 17.9033C1.04215 17.2734 1.15454 15.3586 1.62501 13.2422C1.89292 12.0392 2.23271 10.9747 2.63523 10.0777C3.12923 8.97672 3.72516 8.11506 4.40604 7.51542C4.51059 7.42346 4.62168 7.33023 4.75498 7.22441C4.80725 7.18284 4.88174 7.18662 4.9301 7.23197C5.71684 7.979 6.75711 8.39094 7.8575 8.39094C8.95135 8.39094 9.98639 7.98404 10.7718 7.24331C10.8202 7.19796 10.896 7.19544 10.9469 7.23701C11.075 7.34031 11.1809 7.42849 11.2802 7.51668C11.4226 7.64265 11.5651 7.78248 11.7023 7.93365C11.7245 7.95885 11.7363 7.99034 11.735 8.02435C11.7298 8.11002 11.7271 8.18686 11.7271 8.25867C11.7271 9.03467 11.9585 9.78926 12.3963 10.4406C12.4329 10.4947 12.4211 10.5653 12.3701 10.6056C12.2368 10.7127 12.1088 10.8197 11.9911 10.923C10.4804 12.2508 9.40875 14.6343 8.80367 18.0041C8.79322 18.0645 8.73833 18.1086 8.6756 18.1086ZM1.26955 17.8567H8.56582C8.83634 16.3803 9.20619 15.0701 9.6649 13.9628C10.2412 12.5695 10.9652 11.4849 11.8147 10.7353C11.9101 10.6522 12.0107 10.5665 12.1153 10.4809C11.6892 9.81068 11.4658 9.04349 11.4658 8.25615C11.4658 8.19442 11.4671 8.12891 11.471 8.05963C11.3508 7.92987 11.2279 7.8102 11.1051 7.70186C11.0332 7.63761 10.9561 7.57337 10.8698 7.50282C10.0465 8.23851 8.98141 8.64289 7.8588 8.64289C6.72836 8.64289 5.65933 8.23473 4.83339 7.49022C4.74191 7.56455 4.66088 7.63383 4.58378 7.70186C3.38015 8.76131 2.47187 10.6434 1.88247 13.2951C1.42898 15.3296 1.31006 17.1789 1.26955 17.8567ZM32.0451 11.6247C31.4714 11.6247 30.9003 11.4874 30.3972 11.2266C30.1567 11.1019 29.9293 10.9495 29.7241 10.7731C29.7215 10.7706 29.7189 10.7681 29.715 10.7656C29.7097 10.7605 29.7045 10.7567 29.698 10.7517C29.5764 10.6459 29.4614 10.5287 29.3556 10.4065C29.2523 10.2869 29.1569 10.1584 29.0707 10.0236C28.7714 9.55747 28.595 9.01956 28.5584 8.47156C28.5531 8.38968 28.5505 8.32166 28.5505 8.25615C28.5505 8.07726 28.5662 7.8946 28.5963 7.7132C28.727 6.93215 29.1439 6.21788 29.7698 5.70012C30.4024 5.17606 31.21 4.88758 32.0451 4.88758C32.8907 4.88758 33.7075 5.18236 34.3439 5.71902C34.9738 6.25063 35.3855 6.98002 35.5031 7.77492C35.5266 7.93617 35.5397 8.09742 35.5397 8.25615C35.5397 8.35819 35.5345 8.46023 35.524 8.56983C35.4744 9.08884 35.2966 9.59652 35.0104 10.0374C34.9242 10.171 34.8274 10.2995 34.7229 10.4191C34.6419 10.5136 34.5517 10.6056 34.455 10.6938L34.4537 10.695C34.4289 10.7177 34.404 10.7404 34.3779 10.763C34.191 10.9243 33.9845 11.0679 33.765 11.1876C33.2422 11.4735 32.6476 11.6247 32.0451 11.6247ZM32.0451 5.14079C30.4507 5.14079 29.1099 6.24055 28.855 7.75477C28.8263 7.92232 28.8132 8.09112 28.8132 8.25741C28.8132 8.31788 28.8158 8.38086 28.8211 8.45645C28.8537 8.96413 29.0184 9.46047 29.2941 9.89256C29.3739 10.0173 29.4627 10.1357 29.5581 10.2466C29.6562 10.3599 29.7633 10.4683 29.8757 10.5665C29.8796 10.569 29.8822 10.5716 29.8862 10.5753C29.8901 10.5791 29.8953 10.5829 29.8992 10.5867C30.09 10.7504 30.2991 10.8915 30.5226 11.0062C30.9892 11.2468 31.5158 11.374 32.0477 11.374C32.6045 11.374 33.1547 11.2342 33.6382 10.9696C33.8421 10.8588 34.0329 10.7265 34.2054 10.5766C34.2289 10.5564 34.2511 10.535 34.2746 10.5136L34.276 10.5124C34.3648 10.4305 34.4485 10.3448 34.5229 10.2591C34.6197 10.1483 34.7085 10.0299 34.7882 9.90642C35.0535 9.49826 35.2169 9.02837 35.2626 8.54841C35.2718 8.44637 35.277 8.35189 35.277 8.25867C35.277 8.11254 35.2653 7.96263 35.243 7.81398C35.0183 6.28968 33.6434 5.14079 32.0451 5.14079ZM15.9013 11.6247C15.3276 11.6247 14.7565 11.4874 14.2533 11.2266C14.0129 11.1019 13.7855 10.9495 13.5803 10.7731C13.5777 10.7706 13.5751 10.7681 13.5711 10.7656C13.5659 10.7605 13.5607 10.7567 13.5542 10.7517C13.4326 10.6459 13.3176 10.5287 13.2118 10.4065C13.1085 10.2869 13.0131 10.1584 12.9269 10.0236C12.6276 9.55747 12.4512 9.01956 12.4146 8.47156C12.4093 8.38968 12.4067 8.32166 12.4067 8.25615C12.4067 8.07726 12.4224 7.8946 12.4525 7.7132C12.5832 6.93215 13 6.21788 13.626 5.70012C14.2586 5.17606 15.0662 4.88758 15.9013 4.88758C16.7416 4.88758 17.5532 5.17984 18.1883 5.70894C18.8156 6.23299 19.2312 6.95609 19.3554 7.74343C19.3815 7.91224 19.3959 8.08482 19.3959 8.25615C19.3959 8.33677 19.392 8.42244 19.3841 8.5207C19.341 9.05735 19.162 9.58266 18.8666 10.0374C18.7803 10.171 18.6836 10.2995 18.5791 10.4191C18.4824 10.5313 18.3765 10.6371 18.2667 10.7353C18.2563 10.7442 18.2458 10.7542 18.2341 10.763C18.0354 10.9344 17.8172 11.0843 17.5846 11.2077C17.0723 11.4811 16.4894 11.6247 15.9013 11.6247ZM15.9013 5.14079C14.3069 5.14079 12.9661 6.24055 12.7112 7.75477C12.6825 7.92232 12.6694 8.09112 12.6694 8.25741C12.6694 8.31662 12.672 8.38086 12.6772 8.45645C12.7099 8.96413 12.8746 9.46047 13.1503 9.89256C13.2301 10.0173 13.3189 10.1357 13.4143 10.2466C13.5123 10.3599 13.6195 10.4683 13.7319 10.5665C13.7358 10.569 13.7384 10.5716 13.7423 10.5753C13.7463 10.5791 13.7515 10.5829 13.7554 10.5867C13.9462 10.7504 14.1553 10.8915 14.3788 11.0062C14.8453 11.2468 15.372 11.374 15.9039 11.374C16.4489 11.374 16.9873 11.2405 17.4617 10.9885C17.6773 10.8739 17.8786 10.7353 18.0629 10.5766C18.0733 10.5678 18.0825 10.559 18.0929 10.5501C18.1949 10.4594 18.2929 10.3612 18.3831 10.2579C18.4798 10.147 18.5686 10.0286 18.6484 9.90516C18.9215 9.4844 19.0862 8.99814 19.1267 8.5018C19.1345 8.4111 19.1371 8.33173 19.1371 8.25741C19.1371 8.09868 19.1241 7.93869 19.1005 7.78248C18.8575 6.27708 17.4839 5.14079 15.9013 5.14079ZM40.1739 7.73461C39.3048 7.73461 38.471 7.42472 37.828 6.86287C37.7065 6.75579 37.5915 6.63989 37.4856 6.5177C37.3824 6.39802 37.287 6.26953 37.2007 6.13473C36.8609 5.60438 36.6806 4.9934 36.6806 4.36731C36.6806 3.46785 37.0439 2.6213 37.7039 1.98638C38.3638 1.35021 39.2408 1 40.1739 1C41.107 1 41.9852 1.35021 42.6439 1.98638C43.3025 2.62256 43.6671 3.46785 43.6671 4.36731C43.6671 4.99844 43.4842 5.61446 43.1379 6.14859C43.0516 6.28212 42.9549 6.41062 42.8503 6.53029C42.7445 6.65249 42.6282 6.76839 42.5053 6.87421C41.865 7.42849 41.0364 7.73461 40.1739 7.73461ZM37.6856 6.35645C37.7836 6.46983 37.8908 6.57816 38.0032 6.67642C38.5991 7.1967 39.3688 7.48392 40.1739 7.48392C40.9724 7.48392 41.7382 7.20048 42.3328 6.6865C42.4465 6.58824 42.5537 6.48116 42.6517 6.36779C42.7484 6.25693 42.8373 6.13851 42.917 6.01506C43.2372 5.52124 43.4058 4.95183 43.4058 4.36731C43.4058 2.64901 41.9551 1.25069 40.1726 1.25069C38.39 1.25069 36.9394 2.64901 36.9394 4.36731C36.9394 4.94679 37.1053 5.51116 37.4203 6.00246C37.5013 6.12591 37.5902 6.24559 37.6856 6.35645ZM24.0013 7.73461C23.1322 7.73461 22.2985 7.42472 21.6555 6.86287C21.5339 6.75705 21.4189 6.63989 21.3131 6.5177C21.2098 6.39802 21.1144 6.26953 21.0282 6.13473C20.6884 5.60438 20.508 4.9934 20.508 4.36731C20.508 3.46785 20.8713 2.6213 21.5313 1.98638C22.1913 1.35147 23.0682 1 24.0013 1C24.9344 1 25.8126 1.35021 26.4713 1.98638C27.13 2.62256 27.4946 3.46785 27.4946 4.36731C27.4946 4.99844 27.3116 5.61446 26.9653 6.14859C26.879 6.28212 26.7823 6.41062 26.6778 6.53029C26.5719 6.65249 26.4556 6.76839 26.3328 6.87421C25.6924 7.42849 24.8638 7.73461 24.0013 7.73461ZM24.0013 1.25069C22.2187 1.25069 20.7681 2.64901 20.7681 4.36731C20.7681 4.94679 20.9341 5.51116 21.249 6.00246C21.3288 6.12717 21.4176 6.24559 21.513 6.35645C21.611 6.46983 21.7182 6.57816 21.8306 6.67642C22.4265 7.1967 23.1963 7.48392 24.0013 7.48392C24.7998 7.48392 25.5656 7.20048 26.1603 6.6865C26.274 6.58824 26.3811 6.48116 26.4791 6.36779C26.5758 6.25693 26.6647 6.13851 26.7444 6.01506C27.0646 5.52124 27.2332 4.95183 27.2332 4.36731C27.2345 2.64901 25.7839 1.25069 24.0013 1.25069ZM7.8575 7.73461C6.98842 7.73461 6.15464 7.42472 5.51166 6.86287C5.39012 6.75579 5.27511 6.63989 5.16926 6.5177C5.06601 6.39802 4.97061 6.26953 4.88436 6.13473C4.54457 5.60438 4.36422 4.9934 4.36422 4.36731C4.36422 3.46785 4.72753 2.6213 5.3875 1.98638C6.04747 1.35021 6.92439 1 7.8575 1C8.7906 1 9.66882 1.35021 10.3275 1.98638C10.9862 2.62256 11.3508 3.46785 11.3508 4.36731C11.3508 4.99844 11.1678 5.61446 10.8215 6.14859C10.7352 6.28212 10.6385 6.41062 10.534 6.53029C10.4281 6.65249 10.3118 6.76839 10.189 6.87421C9.54859 7.42849 8.72003 7.73461 7.8575 7.73461ZM7.8575 1.25069C6.07492 1.25069 4.62429 2.64901 4.62429 4.36731C4.62429 4.94679 4.79026 5.51116 5.10522 6.00246C5.18494 6.12717 5.27381 6.24559 5.36921 6.35645C5.46722 6.46983 5.57439 6.57816 5.68678 6.67642C6.28271 7.1967 7.05246 7.48392 7.8575 7.48392C8.656 7.48392 9.42182 7.20048 10.0165 6.6865C10.1301 6.58824 10.2373 6.48116 10.3353 6.36779C10.432 6.25693 10.5209 6.13851 10.6006 6.01506C10.9208 5.52124 11.0894 4.95183 11.0894 4.36731C11.0907 2.64901 9.64007 1.25069 7.8575 1.25069Z" fill="#2C3D55" stroke="white" stroke-width="0.4" stroke-miterlimit="10"/>
<rect x="40.4204" y="8.58984" width="0.710847" height="4" transform="rotate(-114.868 40.4204 8.58984)" fill="white"/>
<path d="M11.4688 7.23633L7.72466 8.84402L7.36238 8.00031L11.1065 6.39262L11.4688 7.23633Z" fill="white"/>
<path d="M8.02197 8.55859L4.49988 7.5L4.14691 6.99978L8.169 7.65224L8.02197 8.55859Z" fill="white"/>
<circle cx="24" cy="4" r="3" fill="#2C3D55"/>
<circle cx="32" cy="8" r="3" fill="#2C3D55"/>
<rect x="36.2314" y="12.375" width="1" height="4" transform="rotate(-23.937 36.2314 12.375)" fill="white"/>
<rect x="35.9651" y="6" width="1" height="4" transform="rotate(13.9612 35.9651 6)" fill="white"/>
<rect x="25" y="22" width="12" height="4" fill="white"/>
<rect x="13.073" y="10.6377" width="3.30063" height="1.04704" transform="rotate(127.506 13.073 10.6377)" fill="white"/>
<rect x="11.4141" y="12.4688" width="4.07466" height="0.71227" transform="rotate(116.6 11.4141 12.4688)" fill="white"/>
<rect x="10.7314" y="14.1826" width="4.07466" height="0.9182" transform="rotate(104.832 10.7314 14.1826)" fill="white"/>
<rect x="11.8464" y="7" width="4.07466" height="0.9182" transform="rotate(67.1953 11.8464 7)" fill="white"/>
<rect x="7" y="22" width="12" height="4" fill="white"/>
<rect x="25.6079" y="19.5566" width="2.65899" height="1.5155" transform="rotate(99.5593 25.6079 19.5566)" fill="white"/>
</svg>
