<svg width="36" height="48" viewBox="0 0 36 48" fill="none" xmlns="http://www.w3.org/2000/svg">
<path d="M27.9946 38.3445H27.3725V41.7095C27.3725 44 25.5062 45.8663 23.2157 45.8663H8.9921C8.65277 45.8663 8.37 46.1491 8.37 46.4884C8.37 46.8277 8.65277 47.1105 8.9921 47.1105H23.2157C26.2131 47.1105 28.645 44.6786 28.645 41.6812V37.6941C28.645 38.0617 28.3622 38.3445 27.9946 38.3445Z" fill="#2C3D55"/>
<path d="M0.622105 37.1003H1.24421V8.99247H0.622105C0.282775 8.99247 0 8.70969 0 8.37036V37.7507C0 37.3831 0.282775 37.1003 0.622105 37.1003Z" fill="#2C3D55"/>
<path d="M27.9664 33.4805C27.7119 33.4805 27.4857 33.3391 27.3726 33.0846V37.1H27.9947C28.334 37.1 28.6168 37.3828 28.6168 37.7221V32.8584L28.5319 33.0846C28.4471 33.3108 28.2209 33.4805 27.9664 33.4805Z" fill="#2C3D55"/>
<path d="M0.622105 7.71976H1.24421V5.42928C1.24421 3.1388 3.11052 1.27249 5.401 1.27249H23.1875C25.478 1.27249 27.3443 3.1388 27.3443 5.42928V5.85344C27.5423 5.82516 27.7402 5.82516 27.9382 5.82516C28.1644 5.82516 28.3906 5.82516 28.6168 5.85344V5.42928C28.6451 2.43186 26.185 0 23.2158 0H5.42928C2.43186 0 0 2.43186 0 5.42928V8.37014C0 8.00253 0.282775 7.71976 0.622105 7.71976Z" fill="#2C3D55"/>
<path d="M5.42928 45.8661C3.1388 45.8661 1.27249 43.9998 1.27249 41.7093V38.3443H0.622105C0.282775 38.3443 0 38.0615 0 37.7222V41.7093C0 44.7067 2.43186 47.1386 5.42928 47.1386C5.76861 47.1386 6.05138 46.8558 6.05138 46.5165C6.05138 46.1489 5.76861 45.8661 5.42928 45.8661Z" fill="#2C3D55"/>
<path d="M0.622105 8.99246H1.24421H21.5475C21.9151 8.54002 22.3109 8.11586 22.7634 7.71997H1.24421H0.622105C0.282775 7.71997 0 8.00275 0 8.34208C0 8.70968 0.282775 8.99246 0.622105 8.99246Z" fill="#2C3D55"/>
<path d="M27.9947 37.1001H27.3726H1.24421H0.622105C0.282775 37.1001 0 37.3829 0 37.7222C0 38.0615 0.282775 38.3443 0.622105 38.3443H1.24421H27.3726H27.9947C28.3341 38.3443 28.6168 38.0615 28.6168 37.7222C28.6451 37.3829 28.3623 37.1001 27.9947 37.1001Z" fill="#2C3D55"/>
<path d="M31.0205 6.41902C30.2853 6.13625 29.437 5.93831 28.6169 5.85347C28.3907 5.8252 28.1645 5.8252 27.9382 5.8252C27.7403 5.8252 27.5424 5.8252 27.3444 5.85347C25.676 5.99486 24.036 6.67352 22.7352 7.74806C22.2827 8.11567 21.8586 8.53983 21.5193 9.02055C21.4061 9.19022 21.2648 9.3316 21.1516 9.50127C19.9923 11.2545 19.7095 13.2622 20.2185 15.6375C20.4164 16.5424 20.7275 17.4755 21.1799 18.5218C21.8303 20.0771 22.509 21.6606 23.1594 23.2159C23.5552 24.149 23.9511 25.0822 24.347 26.0153C25.2802 28.2492 26.2416 30.4832 27.1748 32.7171L27.3444 33.1413C27.4575 33.3675 27.6838 33.5371 27.9382 33.5371C28.1927 33.5371 28.419 33.3958 28.5321 33.1413L28.6169 32.915L29.946 29.7762C30.0873 29.4652 29.9177 29.0976 29.6066 28.9562C29.2956 28.8148 28.928 28.9845 28.7866 29.2955L27.9382 31.3032C27.1182 29.3803 26.3264 27.4575 25.5064 25.5629C25.1105 24.6297 24.7146 23.6966 24.3187 22.7634C23.6683 21.2364 23.018 19.6529 22.3393 18.0694C21.9151 17.0796 21.6324 16.2313 21.4627 15.4113C21.0103 13.3753 21.2648 11.7069 22.2262 10.2365C23.4704 8.28534 25.7043 7.06941 27.9665 7.06941C28.8149 7.06941 29.7763 7.26735 30.5681 7.5784C31.3315 7.86117 32.2082 8.51156 32.9151 9.21849C34.0745 10.4344 34.7531 12.1876 34.7248 13.9126C34.6966 15.6092 33.9896 17.1645 33.2261 18.7763C33.0282 19.2287 32.802 19.7094 32.604 20.1902C31.6426 22.5089 30.6529 24.7994 29.6915 27.1182C29.5501 27.4292 29.7197 27.7968 30.0308 27.9382C30.3418 28.0796 30.7094 27.9382 30.8508 27.5989C31.8123 25.2801 32.802 22.9896 33.7634 20.6709C33.9614 20.2184 34.1593 19.766 34.3855 19.3136C35.149 17.6452 35.9408 15.9203 35.9973 13.9408C36.0539 11.8766 35.2338 9.78404 33.8482 8.34189C32.9999 7.49357 31.9537 6.75835 31.0205 6.41902Z" fill="#2C3D55"/>
<path d="M31.2183 13.7431C31.2183 12.8382 30.8507 11.9616 30.2003 11.3112C29.5499 10.6608 28.7016 10.2932 27.7685 10.2932C26.8636 10.2932 25.987 10.6608 25.3366 11.3112C24.6862 11.9616 24.3186 12.8099 24.3186 13.7431C24.3186 14.6479 24.6862 15.5245 25.3366 16.1749C25.987 16.8253 26.8353 17.1646 27.7685 17.1646C28.6733 17.1646 29.5499 16.797 30.2003 16.1467C30.8507 15.5245 31.2183 14.6762 31.2183 13.7431ZM29.9458 13.7431C29.9458 14.3369 29.7196 14.8742 29.3237 15.2701C28.8996 15.6659 28.3623 15.8922 27.7967 15.8922C27.2312 15.8922 26.6656 15.6659 26.2698 15.2701C25.8456 14.8742 25.6476 14.3086 25.6476 13.7431C25.6476 13.1492 25.8739 12.612 26.2698 12.2161C26.6939 11.8202 27.2312 11.594 27.7967 11.594C28.3623 11.594 28.9278 11.8202 29.3237 12.2161C29.7196 12.6402 29.9458 13.1775 29.9458 13.7431Z" fill="#2C3D55"/>
<path d="M17.7299 3.64795H10.7171C10.3777 3.64795 10.095 3.93072 10.095 4.27005C10.095 4.60938 10.3777 4.89216 10.7171 4.89216H17.7299C18.0692 4.89216 18.352 4.60938 18.352 4.27005C18.352 3.93072 18.0692 3.64795 17.7299 3.64795Z" fill="#2C3D55"/>
<path d="M14.4499 43.7454C15.5244 43.7454 16.3728 42.8688 16.3728 41.8225C16.3728 40.748 15.4962 39.8997 14.4499 39.8997C13.3754 39.8997 12.527 40.7763 12.527 41.8225C12.4988 42.8688 13.3754 43.7454 14.4499 43.7454ZM14.4499 41.1439C14.8175 41.1439 15.1286 41.4549 15.1286 41.8225C15.1286 42.1901 14.8175 42.5012 14.4499 42.5012C14.0823 42.5012 13.7712 42.1901 13.7712 41.8225C13.7712 41.4549 14.0823 41.1439 14.4499 41.1439Z" fill="#2C3D55"/>
</svg>
