<svg width="25" height="25" viewBox="0 0 25 25" fill="none" xmlns="http://www.w3.org/2000/svg">
<path d="M12.3994 8.5C13.3789 9.47366 16.8793 12.3164 17.8073 13.2388C19.0446 14.4687 20.385 15.2886 20.385 20.4132C20.385 20.6694 20.385 20.9257 20.385 20.9257C20.385 20.9257 21.1235 19.6662 21.9999 19C22.9279 18.3338 24.4999 19.5 23.4999 21C22.675 21.7174 20.385 24.0004 20.385 24.0004H9.04314V22.9755C9.04314 22.4118 9.50712 21.9506 10.0742 21.9506L7.49987 21.4381C7.49987 21.4381 6.48929 15.1028 7.15949 13.5141C7.82969 11.9255 5.93772 6.88501 7.99988 7.49996" fill="#2C3D55"/>
<path d="M12.3994 8.5C13.3789 9.47366 16.8793 12.3164 17.8073 13.2388C19.0446 14.4687 20.385 15.2886 20.385 20.4132C20.385 20.6694 20.385 20.9257 20.385 20.9257C20.385 20.9257 21.1235 19.6662 21.9999 19C22.9279 18.3338 24.4999 19.5 23.4999 21C22.675 21.7174 20.385 24.0004 20.385 24.0004H9.04314V22.9755C9.04314 22.4118 9.50712 21.9506 10.0742 21.9506L7.49987 21.4381C7.49987 21.4381 6.48929 15.1028 7.15949 13.5141C7.82969 11.9255 5.93772 6.88501 7.99988 7.49996" stroke="white" stroke-width="0.5" stroke-miterlimit="10" stroke-linecap="round" stroke-linejoin="round"/>
<path d="M8.92768 3.40638C8.92768 3.40638 8.40599 4.38796 8.40599 6.40279C8.40599 7.43603 9.08419 8.31429 10.0754 8.52094C11.3796 8.77925 12.5795 7.74601 12.5795 6.50611C12.5795 4.54295 12.1622 2.52812 10.4928 1.33989C9.65806 0.719939 7.3626 0.306641 6.31921 0.306641C5.58884 0.306641 5.11931 0.51329 4.75412 0.823263C4.49328 1.02991 4.23243 1.33989 4.23243 1.33989C4.23243 1.33989 2.51084 1.33989 1.62396 1.33989C0.841414 1.33989 0.580566 1.80485 0.580566 2.37313C0.580566 2.78643 0.789244 3.61303 1.10226 4.95624C2.14565 5.31788 3.86724 5.93783 5.27582 6.50611C5.27582 6.55778 4.23243 9.86416 4.23243 11.6723C4.23243 13.4805 4.54545 14.8237 6.8409 16.8386L5.27582 22.0048C4.70195 22.0048 4.23243 22.4698 4.23243 23.038V24.0713H7.99988" fill="#2C3D55"/>
<path d="M8.92768 3.40638C8.92768 3.40638 8.40599 4.38796 8.40599 6.40279C8.40599 7.43603 9.08419 8.31429 10.0754 8.52094C11.3796 8.77925 12.5795 7.74601 12.5795 6.50611C12.5795 4.54295 12.1622 2.52812 10.4928 1.33989C9.65806 0.719939 7.3626 0.306641 6.31921 0.306641C5.58884 0.306641 5.11931 0.51329 4.75412 0.823263C4.49328 1.02991 4.23243 1.33989 4.23243 1.33989C4.23243 1.33989 2.51084 1.33989 1.62396 1.33989C0.841414 1.33989 0.580566 1.80485 0.580566 2.37313C0.580566 2.78643 0.789244 3.61303 1.10226 4.95624C2.14565 5.31788 3.86724 5.93783 5.27582 6.50611C5.27582 6.55778 4.23243 9.86416 4.23243 11.6723C4.23243 13.4805 4.54545 14.8237 6.8409 16.8386L5.27582 22.0048C4.70196 22.0048 4.23243 22.4698 4.23243 23.038V24.0713H7.99988" stroke="white" stroke-width="0.5" stroke-miterlimit="10" stroke-linecap="round" stroke-linejoin="round"/>
</svg>
