<svg width="40" height="38" viewBox="0 0 40 38" fill="none" xmlns="http://www.w3.org/2000/svg">
<path d="M36.4384 37.2946H3.78734C3.54843 37.2946 3.38916 37.1353 3.38916 36.8964V15.4741C3.38916 15.2352 3.54843 15.0759 3.78734 15.0759C4.02625 15.0759 4.18553 15.2352 4.18553 15.4741V36.4982H36.0402V15.4741C36.0402 15.2352 36.1995 15.0759 36.4384 15.0759C36.6773 15.0759 36.8366 15.2352 36.8366 15.4741V36.8964C36.8366 37.0557 36.5977 37.2946 36.4384 37.2946Z" fill="currentColor" stroke="currentColor" stroke-width="0.2" stroke-miterlimit="10"/>
<path d="M2.19455 16.7482C1.95564 16.7482 1.79637 16.6685 1.63709 16.5889C1.15927 16.35 1 15.9518 1 15.5536V13.4831C1 13.0849 1.23891 12.6867 1.55746 12.4478L19.8739 1.05973C20.0332 0.980091 20.1924 0.980091 20.2721 1.05973L38.5885 12.3681C38.9071 12.6071 39.146 13.0052 39.146 13.4034V15.5536C39.146 16.0314 38.9071 16.35 38.5089 16.5889C38.1107 16.8278 37.7125 16.8278 37.3143 16.5889L20.1128 5.83793L2.75201 16.5093C2.59273 16.6685 2.35382 16.7482 2.19455 16.7482ZM20.1128 1.85609L1.95564 13.0052C1.876 13.0849 1.79637 13.2441 1.79637 13.3238V15.5536C1.79637 15.7925 1.95564 15.8722 2.03528 15.8722C2.11491 15.8722 2.27419 15.9518 2.43346 15.8722L19.8739 5.04156C20.0332 4.96193 20.1924 4.96193 20.2721 5.04156L37.7922 15.8722C37.9514 15.9518 38.1107 15.9518 38.1903 15.8722C38.27 15.8722 38.4293 15.7129 38.4293 15.5536V13.4831C38.4293 13.3238 38.3496 13.2441 38.27 13.1645L20.1128 1.85609Z" fill="currentColor" stroke="currentColor" stroke-width="0.2" stroke-miterlimit="10"/>
<path d="M34.0493 10.3771C33.8104 10.3771 33.6511 10.2178 33.6511 9.97893V3.8469H29.6693V7.11201C29.6693 7.35092 29.51 7.51019 29.2711 7.51019C29.0322 7.51019 28.8729 7.35092 28.8729 7.11201V3.44872C28.8729 3.20981 29.0322 3.05054 29.2711 3.05054H34.0493C34.2882 3.05054 34.4475 3.20981 34.4475 3.44872V9.97893C34.4475 10.2178 34.2086 10.3771 34.0493 10.3771Z" fill="currentColor" stroke="currentColor" stroke-width="0.2" stroke-miterlimit="10"/>
<path d="M18.9183 37.2945H9.36193C9.12302 37.2945 8.96375 37.1352 8.96375 36.8963V18.5798C8.96375 18.3409 9.12302 18.1816 9.36193 18.1816H18.9183C19.1572 18.1816 19.3165 18.3409 19.3165 18.5798V36.8963C19.3165 37.0555 19.0776 37.2945 18.9183 37.2945ZM9.76011 36.4981H18.5202V18.978H9.76011V36.4981Z" fill="currentColor" stroke="currentColor" stroke-width="0.2" stroke-miterlimit="10"/>
<path d="M32.4565 27.738H22.9001C22.6612 27.738 22.502 27.5788 22.502 27.3398V17.7834C22.502 17.5445 22.6612 17.3853 22.9001 17.3853H32.4565C32.6955 17.3853 32.8547 17.5445 32.8547 17.7834V27.3398C32.8547 27.4991 32.6158 27.738 32.4565 27.738ZM23.2983 26.9417H32.0584V18.1816H23.2983V26.9417V26.9417Z" fill="currentColor" stroke="currentColor" stroke-width="0.2" stroke-miterlimit="10"/>
<path d="M27.6783 27.738C27.4394 27.738 27.2802 27.5788 27.2802 27.3398V17.7834C27.2802 17.5445 27.4394 17.3853 27.6783 17.3853C27.9172 17.3853 28.0765 17.5445 28.0765 17.7834V27.3398C28.0765 27.4991 27.8376 27.738 27.6783 27.738Z" fill="currentColor" stroke="currentColor" stroke-width="0.2" stroke-miterlimit="10"/>
<path d="M32.4565 22.9597H22.9001C22.6612 22.9597 22.502 22.8004 22.502 22.5615C22.502 22.3226 22.6612 22.1633 22.9001 22.1633H32.4565C32.6955 22.1633 32.8547 22.3226 32.8547 22.5615C32.8547 22.8004 32.6158 22.9597 32.4565 22.9597Z" fill="currentColor" stroke="currentColor" stroke-width="0.2" stroke-miterlimit="10"/>
<path d="M16.5292 28.5344C16.7491 28.5344 16.9273 28.3561 16.9273 28.1362C16.9273 27.9163 16.7491 27.738 16.5292 27.738C16.3093 27.738 16.131 27.9163 16.131 28.1362C16.131 28.3561 16.3093 28.5344 16.5292 28.5344Z" fill="currentColor" stroke="currentColor" stroke-width="0.2" stroke-miterlimit="10"/>
</svg>
