<svg width="20" height="21" viewBox="0 0 20 21" fill="none" xmlns="http://www.w3.org/2000/svg">
<rect width="20" height="20" rx="10" fill="#2C3D55"/>
<path d="M9.96 6.32C9.61467 6.32 9.32533 6.21267 9.092 5.998C8.868 5.774 8.756 5.49867 8.756 5.172C8.756 4.84533 8.868 4.57467 9.092 4.36C9.32533 4.136 9.61467 4.024 9.96 4.024C10.3053 4.024 10.59 4.136 10.814 4.36C11.0473 4.57467 11.164 4.84533 11.164 5.172C11.164 5.49867 11.0473 5.774 10.814 5.998C10.59 6.21267 10.3053 6.32 9.96 6.32ZM10.926 7.244V15H8.966V7.244H10.926Z" fill="white"/>
</svg>
