<svg width="26" height="20" viewBox="0 0 26 20" fill="none" xmlns="http://www.w3.org/2000/svg">
<mask id="path-1-inside-1" fill="white">
<rect y="13" width="26" height="7" rx="0.5"/>
</mask>
<rect y="13" width="26" height="7" rx="0.5" fill="#2C3D55" stroke="#2C3D55" stroke-width="2" mask="url(#path-1-inside-1)"/>
<mask id="path-2-inside-2" fill="white">
<rect x="1.67749" width="19.2903" height="6" rx="0.5"/>
</mask>
<rect x="1.67749" width="19.2903" height="6" rx="0.5" fill="#2C3D55" stroke="#2C3D55" stroke-width="2" mask="url(#path-2-inside-2)"/>
<rect x="5.28223" y="6.25" width="17.9516" height="6.5" rx="0.75" fill="#2C3D55" stroke="white" stroke-width="0.5"/>
<path d="M2.5 3H20" stroke="white"/>
<path d="M9.22583 7.5V11.5" stroke="white" stroke-width="1.5"/>
<path d="M19.2903 7.5V11.5" stroke="white" stroke-width="1.5"/>
<path d="M0.838623 16.5H25.1612" stroke="white"/>
<path d="M3.35479 17V17.2C3.35479 17.6418 3.71296 18 4.15479 18H6.74834C7.19017 18 7.54834 17.6418 7.54834 17.2L7.54834 17" stroke="white" stroke-width="0.5"/>
<path d="M18.4517 17V17.2C18.4517 17.6418 18.8099 18 19.2517 18H21.8453C22.2871 18 22.6453 17.6418 22.6453 17.2L22.6453 17" stroke="white" stroke-width="0.5"/>
</svg>
