<svg width="189" height="73" viewBox="0 0 189 73" fill="none" xmlns="http://www.w3.org/2000/svg">
<path d="M188.611 72.8075H137.263C137.166 72.8075 137.083 72.7447 137.054 72.653C137.025 72.5612 137.064 72.4647 137.142 72.4115C140.023 70.4944 141.321 64.9216 141.582 63.6612H140.662C140.129 65.2114 139.374 66.2255 138.357 66.7663C137.476 67.2396 136.594 67.2348 135.95 67.2299C135.902 67.2299 135.853 67.2299 135.805 67.2299H121.641C121.999 68.7946 122.527 69.8956 122.992 70.6296C123.83 71.9479 124.668 72.3922 124.677 72.3971C124.764 72.4453 124.813 72.5468 124.789 72.6433C124.764 72.7399 124.677 72.8075 124.576 72.8075H62.6515C62.5499 72.8075 62.4627 72.7399 62.4385 72.6385C62.4143 72.5419 62.4627 72.4405 62.5547 72.3922C65.0921 71.127 65.1211 67.0513 65.1211 67.0078C65.1211 66.8871 65.218 66.7905 65.3391 66.7905H121.113C120.929 65.8295 120.808 64.7188 120.789 63.4391C120.789 63.4149 120.794 63.3908 120.799 63.3667C118.155 62.1932 115.796 60.9087 115.235 60.6044C111.685 62.792 106.746 64.7381 106.693 64.7574C106.669 64.7671 106.64 64.7719 106.615 64.7719H83.3429H83.3381C79.0042 64.656 76.6314 63.497 75.4063 62.5409C74.3458 61.7151 73.9294 60.9038 73.7938 60.5706C69.2468 60.5996 65.8814 61.9034 63.8476 62.9996C61.6201 64.2021 60.4725 65.419 60.4628 65.4335C60.4241 65.477 60.366 65.5011 60.3078 65.5011C59.964 65.5108 51.8773 65.7232 49.7612 65.5011C48.7637 65.3949 47.8727 63.497 47.0398 59.6965C46.7686 58.4651 46.5556 57.2337 46.3958 56.2486C46.236 59.2136 46.2699 61.8455 46.4974 64.0958C46.7202 66.2979 47.1269 68.1426 47.708 69.572C48.691 71.9817 49.8338 72.3777 49.8484 72.3826C49.95 72.4164 50.013 72.5178 49.9985 72.624C49.9839 72.7303 49.8919 72.8075 49.7854 72.8075H0.674205C0.553146 72.8075 0.456299 72.7109 0.456299 72.5902C0.456299 72.4695 0.553146 72.3729 0.674205 72.3729H49.0348C48.5651 71.9721 47.9259 71.2236 47.3449 69.828C46.7347 68.3696 46.3086 66.4862 46.0762 64.2359C45.7856 61.435 45.7953 58.045 46.1004 54.1672C46.1101 54.0562 46.2021 53.9693 46.3134 53.9693C46.4248 53.9693 46.5217 54.0513 46.5362 54.1576C46.541 54.1866 46.88 56.9005 47.4708 59.6096C48.5264 64.4291 49.461 65.0375 49.8096 65.0762C51.7805 65.2838 59.3055 65.1003 60.211 65.0762C60.487 64.7961 61.6153 63.7192 63.6249 62.6326C65.7264 61.4978 69.2226 60.1408 73.9488 60.1408C74.0456 60.1408 74.1328 60.2036 74.157 60.3002C74.1618 60.3098 74.4475 61.2612 75.7065 62.2318C76.8784 63.1349 79.1591 64.2311 83.3429 64.347H106.567C107.037 64.1586 111.748 62.2705 115.109 60.1795C115.177 60.136 115.259 60.136 115.332 60.1746C115.38 60.2036 118.358 61.8551 121.554 63.2314H137.849C138.057 62.5988 138.265 61.8407 138.425 61.0004C138.696 59.571 138.773 58.185 138.652 56.8764C138.507 55.2924 138.071 53.8244 137.359 52.506H123.738L123.229 53.298H136.483C136.546 53.298 136.609 53.327 136.652 53.3801C137.723 54.684 136.948 57.055 136.914 57.1565C136.885 57.2385 136.812 57.2965 136.72 57.3062L119.83 58.4217C119.748 58.4265 119.67 58.3879 119.627 58.3154C119.583 58.243 119.588 58.1561 119.632 58.0885L122.43 53.7375H115.859L114.421 56.8474C113.918 57.905 113.099 58.8177 111.981 59.571C111.094 60.165 110.024 60.6575 108.794 61.039C106.707 61.6813 104.916 61.7682 104.838 61.7731C104.833 61.7731 104.833 61.7731 104.828 61.7731H83.0137C80.1179 61.7731 78.1568 60.6865 77.0188 59.7738C75.8228 58.8128 75.2756 57.8567 75.2175 57.7601L72.6801 53.7375H66.8208L69.3292 58.3251C69.3679 58.3927 69.3631 58.4796 69.3195 58.5472C69.2759 58.6148 69.1984 58.6535 69.1209 58.6438L51.2236 57.3062C51.1461 57.3013 51.0783 57.253 51.0444 57.1854C50.105 55.3117 51.2284 53.4815 51.2769 53.4042C51.3156 53.3415 51.3882 53.3028 51.4609 53.3028H66.0848L65.649 52.5109H46.4248C46.3134 52.5109 46.2214 52.4288 46.2069 52.3177C46.2021 52.2839 45.8389 49.0291 45.6452 45.0934C45.3837 39.8007 45.5387 35.8602 46.0955 33.3925C46.1197 33.2814 46.2263 33.209 46.3376 33.2235C46.449 33.238 46.5313 33.3346 46.5265 33.4456C46.5265 33.4649 46.449 35.6235 46.972 37.8449C47.2722 39.1343 47.7177 40.1919 48.2843 40.9887C48.9816 41.9593 49.8726 42.5388 50.933 42.7078C55.7996 43.4805 62.7242 44.5912 62.792 44.6056C62.8501 44.6153 64.2689 44.8423 66.0267 45.697C67.6489 46.489 69.8667 47.9812 71.2225 50.6227L72.9125 53.3028H115.574L117.375 49.4106C117.375 49.4058 117.38 49.4058 117.38 49.4009C117.409 49.3478 118.058 48.1261 119.462 46.7643C120.76 45.5087 122.973 43.9006 126.149 43.3742C127.399 43.1666 128.798 43.1038 130.28 43.0314C133.132 42.901 136.086 42.7609 138.328 41.5923C139.529 40.9645 140.4 40.1098 141.006 38.9701C141.485 38.0622 141.79 36.9564 141.911 35.6718C141.645 35.2952 141.345 34.9378 141.011 34.6094C139.8 33.4215 138.546 32.9772 138.536 32.9724C138.478 32.9531 138.43 32.9048 138.405 32.8468C136.512 28.095 133.979 24.4249 132.193 22.189C130.256 19.76 128.745 18.4417 128.73 18.4272C128.696 18.3982 128.672 18.3596 128.663 18.3209C127.515 14.0327 125.801 10.8938 124.561 9.01527C123.37 7.20919 122.387 6.19025 122.169 5.97295C121.326 5.81841 112.203 4.2055 95.2019 4.2055C78.1277 4.2055 68.075 5.42726 67.2131 5.5335C65.6005 6.83735 63.1503 9.50784 60.5354 14.8343C59.2571 17.442 58.4193 19.7117 58.1433 20.494C60.855 20.4264 80.5005 19.9435 94.7515 19.9435C110.015 19.9435 129.689 20.494 129.883 20.5037C129.946 20.5037 130.004 20.5326 130.047 20.5858C130.067 20.6051 131.81 22.7492 133.224 25.3328C134.062 26.8588 134.619 28.235 134.89 29.4278C135.234 30.9586 135.103 32.1949 134.502 33.1124C134.473 33.1559 134.435 33.1849 134.386 33.1993L121.631 37.3282C121.607 37.3379 121.583 37.3379 121.559 37.3379L114.93 37.2316C115.031 37.4972 115.215 37.9222 115.525 38.352H121.786C128.154 38.352 138.643 36.2755 138.749 36.2562C138.812 36.2417 138.88 36.261 138.928 36.2996C138.977 36.3431 139.006 36.401 139.006 36.4686C139.006 38.0429 138.362 39.4627 137.146 40.5734C136.231 41.4088 135.326 41.771 135.292 41.7855C135.272 41.7903 135.258 41.7951 135.238 41.7999L128.75 42.5823C126.159 42.9348 123.108 42.3167 121.999 41.5392C120.973 40.8245 118.498 40.385 118.3 40.3512C117.099 40.3029 116.072 39.7621 115.307 38.7914H72.8157C72.0554 39.7621 71.024 40.3029 69.8231 40.3512C69.6197 40.385 67.1501 40.8245 66.1235 41.5392C65.0098 42.3167 61.9639 42.9348 59.3684 42.5823L52.8845 41.7999C52.8651 41.7999 52.8458 41.7951 52.8312 41.7855C52.7925 41.771 51.887 41.4088 50.9766 40.5734C49.7612 39.4627 49.1172 38.0429 49.1172 36.4686C49.1172 36.4059 49.1462 36.3431 49.1946 36.2996C49.2431 36.2562 49.3109 36.2417 49.3738 36.2562C49.4803 36.2755 59.9689 38.352 66.3366 38.352H72.5929C72.9028 37.9174 73.0917 37.4972 73.1885 37.2316L66.5593 37.3379C66.5351 37.3379 66.5109 37.333 66.4867 37.3282L53.7707 33.2138C50.1389 33.3297 48.4973 35.0247 48.478 35.0392C48.4005 35.1213 48.2794 35.131 48.1874 35.0634C47.2335 34.3487 46.7783 31.7989 46.7589 31.6927C46.7541 31.6589 46.7541 31.6251 46.7638 31.5913C46.8025 31.4657 47.6741 28.6069 49.8241 26.173L45.4273 24.6084C45.3885 24.5939 45.3546 24.5698 45.3256 24.536C45.2481 24.4345 43.379 21.9959 43.4952 19.929C43.6114 17.8235 46.7202 16.1382 46.8558 16.0657C46.8751 16.0561 46.8994 16.0464 46.9236 16.0416L55.4413 14.7039C55.5188 14.6894 55.5962 14.7233 55.6447 14.786C55.6931 14.8488 55.7028 14.9309 55.6737 15.0033L53.6448 19.8035C53.6157 19.8711 53.5528 19.9194 53.4801 19.9338L49.0058 20.7113C48.9186 20.7258 48.8266 20.6872 48.783 20.6099L48.2068 19.6151L45.5919 20.1222C45.5435 20.1463 45.3885 20.2477 45.3401 20.4554C45.2869 20.6872 45.3546 21.1121 45.9406 21.8172L54.3033 20.8417C55.3251 18.0457 56.647 15.3414 58.2353 12.7916C59.5234 10.7248 60.9906 8.7545 62.5886 6.93876C65.3148 3.84815 67.5278 2.24972 67.5472 2.23523C67.5762 2.21591 67.6053 2.20143 67.6392 2.1966C74.4863 1.12454 81.5803 0.462956 88.7228 0.216673C94.4368 0.0235091 100.194 0.0959454 105.836 0.438811C115.443 1.0183 121.467 2.18694 121.525 2.20143C121.559 2.20626 121.593 2.22557 121.622 2.24489C123.501 3.79503 125.287 5.74598 126.939 8.03979C128.261 9.87485 129.495 11.932 130.609 14.1582C132.28 17.4903 133.19 20.2139 133.389 20.8417L141.747 21.8124C142.212 21.257 142.425 20.7644 142.362 20.3878C142.323 20.1415 142.173 20.0063 142.11 19.9532L139.495 19.6006L138.894 20.6775C138.851 20.7596 138.754 20.8031 138.662 20.7838L134.188 19.9097C134.11 19.8952 134.047 19.8373 134.023 19.76L132.459 14.8488C132.435 14.7764 132.454 14.6991 132.503 14.6412C132.551 14.5832 132.628 14.5591 132.706 14.5687L140.759 16.0174C140.783 16.0223 140.802 16.0271 140.822 16.0416C140.952 16.114 144.061 17.7946 144.182 19.9049C144.299 21.9717 142.429 24.4104 142.352 24.5118C142.328 24.5456 142.294 24.5698 142.25 24.5843L137.911 26.1296C138.928 26.994 140.26 28.491 141.364 30.9731C142.09 32.6054 142.371 33.8754 142.386 33.9285C142.391 33.943 142.391 33.9575 142.391 33.972C142.4 34.5225 142.386 35.0441 142.347 35.5463C143.156 36.7584 143.814 38.4679 143.732 40.7907C143.504 47.4258 143.219 55.6643 140.793 63.2121H141.834C141.897 63.2121 141.96 63.2411 141.998 63.2894C142.042 63.3377 142.057 63.4053 142.047 63.4681C142.042 63.4874 141.727 65.2403 141.001 67.2396C140.144 69.6107 139.098 71.3298 137.892 72.3584H188.592C188.713 72.3584 188.81 72.455 188.81 72.5757C188.81 72.6965 188.732 72.8075 188.611 72.8075ZM63.3973 72.3729H123.907C123.564 72.0783 123.108 71.6099 122.648 70.8952C122.145 70.1129 121.573 68.9249 121.196 67.2299H65.5473C65.5279 67.6066 65.465 68.4324 65.2083 69.3547C64.8451 70.6924 64.2253 71.721 63.3973 72.3729ZM121.549 66.7953H135.81C135.858 66.7953 135.907 66.7953 135.955 66.7953C136.585 66.8001 137.369 66.8001 138.158 66.3848C139.04 65.9164 139.713 65.023 140.207 63.6612H138.168C137.81 64.7043 137.485 65.3466 137.461 65.39C137.422 65.4625 137.35 65.5108 137.267 65.5108H127.718C126.135 65.477 123.738 64.6415 121.457 63.6661H121.23C121.254 64.8588 121.375 65.8971 121.549 66.7953ZM122.595 63.6612C124.522 64.4387 126.425 65.0472 127.718 65.0713H137.127C137.229 64.8588 137.451 64.3614 137.698 63.6612H122.595ZM138.309 63.2266H140.352C142.797 55.6981 143.083 47.4355 143.311 40.7907C143.359 39.4047 143.136 38.1298 142.657 37.0047C142.546 36.7487 142.425 36.4976 142.284 36.2562C141.906 38.9749 140.667 40.8583 138.531 41.9738C136.202 43.1907 133.2 43.3308 130.299 43.466C128.832 43.5336 127.447 43.5964 126.222 43.804C123.157 44.3111 121.021 45.866 119.767 47.0781C118.45 48.353 117.811 49.5168 117.767 49.5989L116.053 53.3028H122.702L123.428 52.1777C123.467 52.1149 123.539 52.0762 123.612 52.0762H137.485C137.563 52.0762 137.635 52.1197 137.674 52.1873C138.454 53.5878 138.928 55.1572 139.083 56.8474C139.204 58.1947 139.127 59.6241 138.846 61.097C138.696 61.889 138.502 62.6133 138.309 63.2266ZM73.1934 53.7326L75.5855 57.5283C75.5903 57.5331 75.5903 57.5379 75.5903 57.5379C75.5952 57.5476 76.123 58.4989 77.2997 59.4358C78.3795 60.3002 80.2487 61.3288 83.004 61.3288H104.814C104.92 61.324 106.683 61.2225 108.664 60.6092C110.518 60.0346 112.954 58.8853 114.019 56.6542L115.375 53.7278H73.1934V53.7326ZM51.3785 56.8764L68.7529 58.1754L66.3221 53.7326H51.5868C51.3882 54.1093 50.7539 55.4952 51.3785 56.8764ZM122.944 53.7326L120.227 57.9533L136.536 56.8764C136.672 56.3838 137.074 54.7033 136.372 53.7326H122.944V53.7326ZM66.5787 53.298H72.3992L70.8497 50.84C70.8448 50.8352 70.8448 50.8303 70.84 50.8255C70.1233 49.4251 68.6754 47.4693 65.8475 46.0882C64.1478 45.2576 62.7339 45.0306 62.7242 45.0258C62.6564 45.0161 55.7318 43.9006 50.8653 43.1279C49.6837 42.9396 48.6959 42.3022 47.9308 41.2301C47.3303 40.3899 46.8655 39.2792 46.5507 37.9318C46.3619 37.1254 46.2505 36.3382 46.1827 35.6525C45.558 41.5102 46.4684 50.6324 46.6233 52.0714H65.7797C65.8572 52.0714 65.9347 52.1149 65.9734 52.1825L66.5787 53.298ZM115.884 38.7818C116.542 39.4916 117.361 39.8731 118.334 39.9069C118.344 39.9069 118.353 39.9069 118.363 39.9118C118.474 39.9311 121.109 40.3754 122.256 41.177C123.297 41.9062 126.275 42.4712 128.701 42.1428L135.161 41.3653C135.306 41.3026 136.096 40.95 136.87 40.2402C137.936 39.2647 138.507 38.0864 138.57 36.7294C136.885 37.053 127.626 38.7818 121.791 38.7818H115.884ZM52.9717 41.3653L59.4314 42.1428C61.8574 42.4712 64.8355 41.9062 65.8814 41.177C67.029 40.3754 69.6633 39.9311 69.7747 39.9118C69.7843 39.9118 69.794 39.9069 69.8037 39.9069C70.9223 39.8635 71.7068 39.3613 72.2491 38.7818H66.3463C60.5064 38.7818 51.2526 37.053 49.5675 36.7294C49.6353 38.0864 50.2067 39.2695 51.2817 40.2498C52.0468 40.9549 52.8264 41.3026 52.9717 41.3653ZM73.1256 38.3472H115.012C114.591 37.6711 114.436 37.0868 114.426 37.0578C114.407 36.9902 114.426 36.9226 114.465 36.8694C114.508 36.8163 114.571 36.7874 114.634 36.7874C114.634 36.7874 114.634 36.7874 114.639 36.7874L121.539 36.8984L134.183 32.8082C136.323 29.3457 130.449 21.7785 129.771 20.9335C128.222 20.89 109.443 20.3781 94.7515 20.3781C79.4933 20.3781 58.0562 20.9286 57.8382 20.9335C57.7656 20.9335 57.6978 20.9045 57.6591 20.8465C57.6155 20.7886 57.6058 20.7162 57.6252 20.6485C57.6349 20.6196 58.5452 17.8911 60.1384 14.6363C61.6153 11.6278 64.0026 7.53757 66.9806 5.14717C67.0097 5.12303 67.0484 5.10854 67.0872 5.09888C67.1888 5.08439 77.3772 3.75639 95.197 3.75639C113.022 3.75639 122.222 5.52867 122.309 5.54316C122.348 5.55281 122.387 5.57213 122.416 5.60111C122.46 5.64457 123.539 6.67316 124.91 8.74967C126.164 10.6475 127.897 13.8154 129.06 18.1374C129.341 18.3885 130.754 19.6924 132.517 21.8993C134.314 24.1496 136.851 27.8246 138.764 32.5909C139.093 32.7213 140.197 33.209 141.291 34.2811C141.509 34.4935 141.727 34.7302 141.95 35.0054C141.965 34.6867 141.969 34.3535 141.96 34.0155C141.877 33.6678 140.71 28.858 137.345 26.2406C137.282 26.1923 137.253 26.1151 137.263 26.033C137.272 25.9509 137.33 25.8881 137.403 25.864L142.042 24.2124C142.304 23.8599 143.843 21.6965 143.747 19.9435C143.65 18.1809 140.957 16.6307 140.647 16.4569L132.982 15.0758L134.401 19.5185L138.594 20.3347L139.19 19.2626C139.233 19.1853 139.321 19.1419 139.408 19.1515L142.221 19.533C142.25 19.5379 142.274 19.5475 142.299 19.5572C142.313 19.5668 142.701 19.789 142.788 20.3057C142.88 20.8465 142.613 21.4791 141.998 22.189C141.95 22.2421 141.882 22.2711 141.81 22.2615L133.195 21.257C133.108 21.2474 133.035 21.1846 133.011 21.1025C133.001 21.0735 132.096 18.0988 130.212 14.3418C128.479 10.8938 125.544 6.0647 121.38 2.6119C120.76 2.496 114.891 1.41912 105.792 0.868599C100.165 0.530563 94.4223 0.458127 88.7228 0.651291C81.6191 0.892745 74.5638 1.55433 67.7506 2.61673C67.4406 2.84853 65.3875 4.40832 62.8937 7.23817C61.3102 9.03459 59.8624 10.9855 58.5888 13.0331C56.9957 15.5925 55.6737 18.3113 54.6568 21.1218C54.6278 21.1991 54.56 21.2522 54.4776 21.2618L45.8631 22.2663C45.7905 22.2759 45.7227 22.247 45.6742 22.1939C45.0447 21.4695 44.7881 20.8514 44.9043 20.354C45.0157 19.8904 45.4079 19.7262 45.4273 19.7165C45.4418 19.7117 45.4563 19.7069 45.4709 19.702L48.2601 19.1612C48.3521 19.1419 48.4392 19.1853 48.4877 19.2626L49.0833 20.2477L53.2961 19.5185L55.1265 15.1868L47.0349 16.4569C46.7154 16.6356 44.0327 18.1809 43.9358 19.9435C43.839 21.6965 45.3789 23.8551 45.6403 24.2124L50.2793 25.864C50.3471 25.8881 50.4004 25.9461 50.4197 26.0185C50.4391 26.0909 50.4198 26.1634 50.3665 26.2165C48.2843 28.4572 47.3303 31.2629 47.1996 31.6589C47.3255 32.3349 47.7274 33.9623 48.3133 34.5853C48.8169 34.141 50.5408 32.8613 53.7949 32.7647C53.8191 32.7647 53.8433 32.7696 53.8675 32.7744L66.5884 36.8888L73.4887 36.7777C73.5565 36.7777 73.6195 36.8067 73.6631 36.8598C73.7067 36.9129 73.7212 36.9853 73.7018 37.0481C73.7018 37.0868 73.5469 37.6711 73.1256 38.3472Z" fill="#2C3D55" stroke="#2C3D55" stroke-width="0.550882" stroke-miterlimit="10"/>
</svg>
