<svg width="45" height="26" viewBox="0 0 45 26" fill="none" xmlns="http://www.w3.org/2000/svg">
<path d="M36 5C36.552 5 37 5.448 37 6V8H42C42.552 8 43 8.448 43 9V22C43 22.552 42.552 23 42 23H24C23.448 23 23 22.552 23 22V9C23 8.448 23.448 8 24 8H29V6C29 5.448 29.448 5 30 5H36ZM29 10H27V21H29V10ZM39 10H37V21H39V10ZM35 7H31V8H35V7Z" fill="#2C3D55"/>
<path d="M18 23H16V22H8V23H6V22H5C3.895 22 3 21.105 3 20V7C3 5.895 3.895 5 5 5H8V3C8 2.448 8.448 2 9 2H15C15.552 2 16 2.448 16 3V5H19C20.105 5 21 5.895 21 7V20C21 21.105 20.105 22 19 22H18V23ZM10 9H8V18H10V9ZM16 9H14V18H16V9ZM14 4H10V5H14V4Z" fill="#2C3D55"/>
</svg>
