<svg width="52" height="26" viewBox="0 0 52 26" fill="none" xmlns="http://www.w3.org/2000/svg">
<path d="M50.6049 18.8329H47.7014C47.7981 18.6924 47.8586 18.5285 47.8586 18.3529V13.6934C47.8586 13.2368 47.4715 12.8622 46.9997 12.8622H45.9471C45.9834 12.8036 45.9955 12.7334 45.9955 12.6632V10.1344C45.9955 9.81827 45.6689 9.57242 45.2575 9.57242H31.5623C31.151 9.57242 30.8243 9.81827 30.8243 10.1344V12.6632C30.8243 12.9793 31.151 13.2251 31.5623 13.2251H32.3487C32.2519 13.3656 32.1914 13.5178 32.1914 13.7051V18.3529C32.1914 18.5285 32.2519 18.7042 32.3487 18.8329H29.4451C29.0459 18.8329 28.7192 19.1607 28.7192 19.5588V24.4408C28.7192 24.8388 29.0459 25.1666 29.4451 25.1666H50.6049C51.0042 25.1666 51.3308 24.8388 51.3308 24.4408V19.5588C51.3308 19.1607 51.0042 18.8329 50.6049 18.8329ZM47.0118 13.2134C47.29 13.2134 47.5078 13.4241 47.5078 13.6934V14.3139C46.9392 14.1851 46.4915 13.7637 46.3343 13.2134H47.0118ZM45.9592 13.2134C46.1165 13.9627 46.7335 14.5363 47.4957 14.6768V15.8476H45.1123V15.7656V13.2134H45.2575C45.2938 13.2134 45.3301 13.2134 45.3664 13.2017H45.9592V13.2134ZM45.9592 18.8329H45.1244V16.6905V16.1988H47.5078V17.3695C46.7335 17.51 46.1286 18.0837 45.9592 18.8329ZM47.5078 17.7324V18.3529C47.5078 18.6222 47.29 18.8329 47.0118 18.8329H46.3464C46.4794 18.2827 46.9271 17.8612 47.5078 17.7324ZM31.1873 10.1344C31.1873 10.0407 31.3446 9.92364 31.5623 9.92364H45.2696C45.4874 9.92364 45.6447 10.029 45.6447 10.1344V11.2232H31.1873V10.1344ZM31.5623 12.8622C31.3446 12.8622 31.1873 12.7568 31.1873 12.6515V11.5627H45.6447V12.6515C45.6447 12.7334 45.5237 12.8271 45.3543 12.8505H33.0504C33.0141 12.8505 32.9778 12.8505 32.9415 12.8622H31.5623ZM44.6647 16.7959H44.0356C43.9872 16.7959 43.9388 16.749 43.9388 16.6905V15.7656C43.9388 15.5315 44.0356 15.3207 44.1687 15.2154V15.4027C44.1687 15.4963 44.2534 15.5783 44.3501 15.5783C44.4469 15.5783 44.5316 15.4963 44.5316 15.4027V15.2154C44.6647 15.3207 44.7615 15.5315 44.7615 15.7656V16.6905C44.7615 16.749 44.7131 16.7959 44.6647 16.7959ZM44.7615 17.1471V18.8329H43.9509V17.1471C43.9872 17.1588 44.0114 17.1588 44.0477 17.1588H44.6768C44.701 17.1471 44.7252 17.1471 44.7615 17.1471ZM44.5316 14.829C44.5316 14.7354 44.4469 14.6534 44.3501 14.6534C44.2534 14.6534 44.1687 14.7354 44.1687 14.829C44.084 14.8524 44.0114 14.8876 43.9388 14.9461V13.2134H44.7494V14.9344C44.6889 14.8876 44.6163 14.8524 44.5316 14.829ZM38.6398 17.8495H41.4103C41.9305 17.8495 42.3539 17.4281 42.3539 16.9129V16.1988H43.5759V18.8329H36.4742V16.6905V16.1988H37.6961V16.9129C37.6961 17.4281 38.1196 17.8495 38.6398 17.8495ZM38.0591 16.9129V16.1988H42.0031V16.9129C42.0031 17.229 41.7369 17.4983 41.4224 17.4983H38.6398C38.3252 17.4983 38.0591 17.2407 38.0591 16.9129ZM36.4742 15.8476V15.7656V13.2134H43.588V15.8359H36.4742V15.8476ZM36.0145 16.7959H35.3854C35.337 16.7959 35.2886 16.749 35.2886 16.6905V15.7656C35.2886 15.5315 35.3854 15.3207 35.5184 15.2154V15.4027C35.5184 15.4963 35.6031 15.5783 35.6999 15.5783C35.7967 15.5783 35.8814 15.4963 35.8814 15.4027V15.2154C36.0145 15.3207 36.1113 15.5315 36.1113 15.7656V16.6905C36.1113 16.749 36.0629 16.7959 36.0145 16.7959ZM36.1113 17.1471V18.8329H35.3007V17.1471C35.337 17.1588 35.3612 17.1588 35.3975 17.1588H36.0266C36.0508 17.1471 36.075 17.1471 36.1113 17.1471ZM35.8814 14.829C35.8814 14.7354 35.7967 14.6534 35.6999 14.6534C35.6031 14.6534 35.5184 14.7354 35.5184 14.829C35.4338 14.8524 35.3612 14.8876 35.2886 14.9461V13.2134H36.0992V14.9344C36.0387 14.8876 35.9661 14.8524 35.8814 14.829ZM32.5544 17.3695V16.1988H34.9377V18.8329H34.1029C33.9336 18.0837 33.3287 17.51 32.5544 17.3695ZM33.7158 18.8329H33.0504C32.7721 18.8329 32.5544 18.6222 32.5544 18.3529V17.7324C33.123 17.8612 33.5706 18.2827 33.7158 18.8329ZM32.5544 15.8476V14.6768C33.3166 14.5363 33.9215 13.9627 34.0909 13.2134H34.9256V15.8359H32.5544V15.8476ZM32.5544 14.3139V13.6934C32.5544 13.4476 32.7358 13.2485 32.9778 13.2134H33.7158C33.5706 13.7637 33.123 14.1851 32.5544 14.3139ZM50.9679 24.4291C50.9679 24.6398 50.7985 24.8037 50.6049 24.8037H29.4451C29.2395 24.8037 29.0822 24.6398 29.0822 24.4291V20.9871H31.9737V22.509C31.9737 22.6964 32.1309 22.8486 32.3245 22.8486H34.0788C34.2723 22.8486 34.4296 22.6964 34.4296 22.509V20.9871H45.6568V22.509C45.6568 22.6964 45.814 22.8486 46.0076 22.8486H47.7618C47.9554 22.8486 48.1127 22.6964 48.1127 22.509V20.9871H51.0042V24.4291H50.9679ZM34.0546 22.0642V22.509H32.3366V22.0642H34.0546ZM32.3366 21.7129V20.3315H34.0546V21.7012H32.3366V21.7129ZM47.7135 22.0642V22.509H45.9955V22.0642H47.7135ZM46.0076 21.7129V20.3315H47.7135V21.7012H46.0076V21.7129ZM50.9679 20.6359H48.0764V20.3198C48.0764 20.1325 47.9191 19.9803 47.7256 19.9803H45.9713C45.7777 19.9803 45.6205 20.1325 45.6205 20.3198V20.6359H34.4175V20.3198C34.4175 20.1325 34.2602 19.9803 34.0667 19.9803H32.3124C32.1188 19.9803 31.9616 20.1325 31.9616 20.3198V20.6359H29.0822V19.5471C29.0822 19.3364 29.2516 19.1724 29.4451 19.1724H50.6049C50.8106 19.1724 50.9679 19.3364 50.9679 19.5471V20.6359Z" fill="#2C3D55"/>
<path d="M42.8504 21.4671H37.2006C36.9586 21.4671 36.7529 21.6662 36.7529 21.912V22.591C36.7529 22.8369 36.9465 23.0359 37.2006 23.0359H42.8504C43.0924 23.0359 43.2981 22.8369 43.2981 22.591V21.912C43.2981 21.6662 43.0924 21.4671 42.8504 21.4671ZM42.9351 22.5793C42.9351 22.6262 42.8988 22.673 42.8504 22.673H37.2006C37.1522 22.673 37.1159 22.6379 37.1159 22.5793V21.9003C37.1159 21.8535 37.1522 21.8066 37.2006 21.8066H42.8504C42.8988 21.8066 42.9351 21.8418 42.9351 21.9003V22.5793Z" fill="#2C3D55"/>
<path d="M20.5566 8.41992C20.4431 8.41992 20.3438 8.5191 20.3438 8.63245V22.7443C20.3438 22.8576 20.4431 22.9568 20.5566 22.9568C20.6701 22.9568 20.7694 22.8576 20.7694 22.7443V8.63245C20.7694 8.5191 20.6701 8.41992 20.5566 8.41992Z" fill="#2C3D55"/>
<path d="M24.2031 11.2253C24.0896 11.2253 23.9902 11.3245 23.9902 11.4378V21.5683C23.9902 21.6816 24.0896 21.7808 24.2031 21.7808C24.3166 21.7808 24.4159 21.6816 24.4159 21.5683V11.4378C24.4159 11.3245 24.3166 11.2253 24.2031 11.2253Z" fill="#2C3D55"/>
<path d="M16.9101 11.2253C16.7966 11.2253 16.6973 11.3245 16.6973 11.4378V21.5683C16.6973 21.6816 16.7966 21.7808 16.9101 21.7808C17.0236 21.7808 17.1229 21.6816 17.1229 21.5683V11.4378C17.1229 11.3245 17.0236 11.2253 16.9101 11.2253Z" fill="#2C3D55"/>
<path d="M23.1105 6.76221H22.7132V3.10674H22.9828C23.0963 3.10674 23.1957 3.00756 23.1957 2.89421V2.15745C23.1957 1.51987 22.6707 0.995636 22.0322 0.995636H19.081C18.4425 0.995636 17.9175 1.51987 17.9175 2.15745V2.89421C17.9175 3.00756 18.0168 3.10674 18.1303 3.10674H18.3999V6.76221H18.0026C15.9453 6.76221 14.271 8.40576 14.2284 10.446H12.4549C12.2136 8.95833 11.1495 7.86735 9.9009 7.86735C8.6523 7.86735 7.58815 8.9725 7.34694 10.446H5.19027C4.48084 10.446 3.8991 11.0411 3.8991 11.7779V17.1477C3.8991 17.5019 4.0268 17.8136 4.25382 18.0545H1.34515C0.962053 18.0545 0.649902 18.3804 0.649902 18.7913V23.4527C0.649902 23.8636 0.962053 24.1895 1.34515 24.1895C12.4407 24.1895 15.2075 24.1895 15.9027 24.1895V25.0679C15.9027 25.2946 15.9878 25.5213 16.1581 25.6913C16.3284 25.8613 16.5412 25.9464 16.7682 25.9464C17.2506 25.9464 17.6479 25.5496 17.6479 25.0679V24.1895H23.4652V25.0679C23.4652 25.2946 23.5504 25.5213 23.7206 25.6913C23.8909 25.8613 24.1037 25.9464 24.3308 25.9464C24.8132 25.9464 25.2104 25.5496 25.2104 25.0679V24.1753C26.1469 24.1186 26.8989 23.3393 26.8989 22.3901V10.5452C26.8989 8.46243 25.1963 6.76221 23.1105 6.76221ZM18.3431 2.68169V2.15745C18.3431 1.74657 18.6695 1.42069 19.081 1.42069H22.0322C22.4437 1.42069 22.77 1.74657 22.77 2.15745V2.68169H22.2308C22.1599 2.24246 21.8336 1.91659 21.4505 1.91659H19.6485C19.2654 1.91659 18.9533 2.24246 18.8681 2.68169H18.3431V2.68169ZM22.2876 3.10674V6.76221H18.8256V3.10674H19.081C19.1945 3.10674 19.2938 3.00756 19.2938 2.88005C19.2938 2.58251 19.464 2.34164 19.6627 2.34164H21.4646C21.6633 2.34164 21.8336 2.58251 21.8336 2.89421C21.8336 3.00756 21.9329 3.10674 22.0464 3.10674H22.2876ZM9.9009 8.29241C10.9225 8.29241 11.8022 9.19919 12.015 10.446H7.78679C7.99962 9.21336 8.87932 8.29241 9.9009 8.29241ZM7.74423 10.8852H14.2142V18.0545H7.74423V10.8852ZM6.31117 10.8852H7.31857V18.0545H6.29698V10.8852H6.31117ZM4.31057 11.792C4.31057 11.2961 4.70785 10.8852 5.17608 10.8852H5.87132V18.0545H5.19027C4.70786 18.0545 4.32476 17.6436 4.32476 17.1477V11.792H4.31057ZM1.07556 18.7913C1.07556 18.6212 1.18907 18.4796 1.34515 18.4796H5.19027H6.09834H7.5314H14.2142V20.9024H5.74363V20.0664C5.74363 19.8681 5.58755 19.698 5.38891 19.698H3.85654C3.6579 19.698 3.50182 19.8681 3.50182 20.0664V20.9024H1.07556V18.7913ZM5.31797 20.1231V22.1067H3.92748V20.1231H5.31797ZM1.34515 23.7644C1.20326 23.7644 1.07556 23.6227 1.07556 23.4527V21.3416H3.50182V22.1775C3.50182 22.3759 3.6579 22.5459 3.85654 22.5459H5.38891C5.58755 22.5459 5.74363 22.3759 5.74363 22.1775V21.3416H14.2142V22.3901C14.2142 22.9426 14.4696 23.4385 14.8527 23.7644C11.3056 23.7644 1.45866 23.7644 1.34515 23.7644ZM17.2222 25.0679C17.2222 25.3088 17.0236 25.5213 16.7682 25.5213C16.6547 25.5213 16.5412 25.4788 16.4561 25.3938C16.3709 25.3088 16.3284 25.1954 16.3284 25.0821V24.2036H17.2222V25.0679V25.0679ZM24.7848 25.0679C24.7848 25.3088 24.5861 25.5213 24.3308 25.5213C24.2172 25.5213 24.1037 25.4788 24.0186 25.3938C23.9335 25.3088 23.8909 25.1954 23.8909 25.0821V24.2036H24.7848V25.0679V25.0679ZM26.4732 22.3901C26.4732 23.141 25.8631 23.7644 25.0969 23.7644H16.1155C16.1155 23.7644 16.1013 23.7644 16.0871 23.7644H16.0162C15.2642 23.7644 14.6399 23.1552 14.6399 22.3901V21.1149V18.267V10.6727V10.5452C14.6399 8.7033 16.1439 7.18727 18.0026 7.18727H23.1105C24.9551 7.18727 26.4732 8.68913 26.4732 10.5452V22.3901Z" fill="#2C3D55"/>
<path d="M12.5544 12.0612C12.4409 12.0612 12.3416 12.1604 12.3416 12.2737V16.751C12.3416 16.8643 12.4409 16.9635 12.5544 16.9635C12.6679 16.9635 12.7672 16.8643 12.7672 16.751V12.2737C12.7672 12.1604 12.6679 12.0612 12.5544 12.0612Z" fill="#2C3D55"/>
</svg>
