<svg width="150" height="45" viewBox="0 0 150 45" fill="none" xmlns="http://www.w3.org/2000/svg">
<path d="M43.98 33H39.78L30.27 18.63V33H26.07V12.03H30.27L39.78 26.43V12.03H43.98V33ZM63.5805 24.33C63.5805 24.93 63.5405 25.47 63.4605 25.95H51.3105C51.4105 27.15 51.8305 28.09 52.5705 28.77C53.3105 29.45 54.2205 29.79 55.3005 29.79C56.8605 29.79 57.9705 29.12 58.6305 27.78H63.1605C62.6805 29.38 61.7605 30.7 60.4005 31.74C59.0405 32.76 57.3705 33.27 55.3905 33.27C53.7905 33.27 52.3505 32.92 51.0705 32.22C49.8105 31.5 48.8205 30.49 48.1005 29.19C47.4005 27.89 47.0505 26.39 47.0505 24.69C47.0505 22.97 47.4005 21.46 48.1005 20.16C48.8005 18.86 49.7805 17.86 51.0405 17.16C52.3005 16.46 53.7505 16.11 55.3905 16.11C56.9705 16.11 58.3805 16.45 59.6205 17.13C60.8805 17.81 61.8505 18.78 62.5305 20.04C63.2305 21.28 63.5805 22.71 63.5805 24.33ZM59.2305 23.13C59.2105 22.05 58.8205 21.19 58.0605 20.55C57.3005 19.89 56.3705 19.56 55.2705 19.56C54.2305 19.56 53.3505 19.88 52.6305 20.52C51.9305 21.14 51.5005 22.01 51.3405 23.13H59.2305ZM82.0962 24.33C82.0962 24.93 82.0562 25.47 81.9762 25.95H69.8262C69.9262 27.15 70.3462 28.09 71.0862 28.77C71.8262 29.45 72.7362 29.79 73.8162 29.79C75.3762 29.79 76.4862 29.12 77.1462 27.78H81.6762C81.1962 29.38 80.2762 30.7 78.9162 31.74C77.5562 32.76 75.8862 33.27 73.9062 33.27C72.3062 33.27 70.8662 32.92 69.5862 32.22C68.3262 31.5 67.3362 30.49 66.6162 29.19C65.9162 27.89 65.5662 26.39 65.5662 24.69C65.5662 22.97 65.9162 21.46 66.6162 20.16C67.3162 18.86 68.2962 17.86 69.5562 17.16C70.8162 16.46 72.2662 16.11 73.9062 16.11C75.4862 16.11 76.8962 16.45 78.1362 17.13C79.3962 17.81 80.3662 18.78 81.0462 20.04C81.7462 21.28 82.0962 22.71 82.0962 24.33ZM77.7462 23.13C77.7262 22.05 77.3362 21.19 76.5762 20.55C75.8162 19.89 74.8862 19.56 73.7862 19.56C72.7462 19.56 71.8662 19.88 71.1462 20.52C70.4462 21.14 70.0162 22.01 69.8562 23.13H77.7462ZM92.0918 29.13L96.2918 16.38H100.762L94.6118 33H89.5118L83.3918 16.38H87.8918L92.0918 29.13Z" fill="white"/>
<path d="M1 24.8261L10.7143 9L8.89286 20.5652H18L6.46429 37L10.1071 24.8261H1Z" fill="#21867A" stroke="white"/>
</svg>
