<svg width="289" height="56" viewBox="0 0 289 56" fill="none" xmlns="http://www.w3.org/2000/svg">
<path d="M118.74 55C118.712 55 118.676 54.9922 118.647 54.9845L117.93 54.7521H1.32281C1.14347 54.7521 1 54.5971 1 54.4034C1 54.2098 1.14347 54.0548 1.32281 54.0548H117.169C115.505 52.8462 114.085 51.2657 113.016 49.4063C112.098 47.8181 111.466 46.0594 111.136 44.231C110.749 44.2077 110.354 44.1768 109.953 44.138C109.293 44.076 108.59 43.9986 107.851 43.9056C107.93 44.2465 108.023 44.5796 108.123 44.9128C109.178 48.4301 110.9 50.6149 110.921 50.6382C111.029 50.7699 111.029 50.9636 110.921 51.0953C110.821 51.227 110.641 51.258 110.505 51.165C105.419 47.7638 98.4103 51.1495 98.3386 51.1882C98.2597 51.227 98.1664 51.227 98.0875 51.196C98.0086 51.1572 97.944 51.0875 97.9082 51.0023C97.9082 50.9945 97.5208 50.0106 96.1578 48.7478C94.8881 47.5779 92.4993 45.9199 88.3027 44.6803C85.9785 43.9986 82.1765 43.526 77.2554 45.1839C74.2999 46.1756 72.3199 47.4849 72.3056 47.5004C72.198 47.5702 72.0617 47.5702 71.9541 47.4927C71.8465 47.4152 71.7963 47.2758 71.8178 47.144C71.8178 47.1285 72.0689 45.5481 71.2009 43.2548C70.3902 41.132 68.4318 37.9478 63.6542 34.8565C61.5308 33.4852 59.1636 32.5555 56.6098 32.1062C54.5581 31.742 52.3917 31.6801 50.1535 31.9202C46.3443 32.3308 43.6542 33.493 43.6255 33.5007C43.4605 33.5704 43.274 33.493 43.2095 33.3148C42.1263 30.6032 40.6126 28.1859 38.6973 26.1328C37.6141 24.9707 36.3945 23.9248 35.0603 22.9951H1.32281C1.17934 22.9951 1.05739 22.8944 1.01435 22.7472C0.971305 22.6 1.02869 22.4373 1.14347 22.3521C1.2726 22.2591 4.39311 20.0743 9.52224 18.6178C12.528 17.7578 15.5983 17.3395 18.6471 17.3627C22.4562 17.3937 26.2439 18.1219 29.8953 19.532C31.8321 20.2757 33.6112 21.2054 35.2253 22.2978H87.2267C87.0976 21.1357 86.9326 18.1374 88.3888 16.0611C89.2353 14.8603 90.4907 14.1707 92.1191 14.0313C92.4778 14.0003 92.8938 13.9693 93.3529 13.9306C96.7747 13.6516 103.138 13.1403 109.91 11.676C118.138 9.90186 124.723 7.23673 129.479 3.75036L129.644 3.62639C131.538 2.23184 133.03 1.13171 138.755 1H179.45C179.458 1 179.458 1 179.465 1C179.522 1 180.857 1.07747 183.188 1.88321C185.318 2.61922 188.726 4.13773 192.858 7.18249L207.055 16.9753C207.176 17.0605 207.234 17.2155 207.191 17.3704C207.148 17.5254 207.026 17.6184 206.882 17.6184H205.261C206.918 18.9122 208.41 20.6089 208.626 22.6C208.64 22.7007 208.604 22.8014 208.547 22.8712C208.482 22.9486 208.396 22.9874 208.303 22.9874H165.634L164.816 25.2031C164.766 25.3349 164.651 25.4201 164.515 25.4201H155.354C155.261 25.4201 155.175 25.3736 155.11 25.2961C155.046 25.2186 155.024 25.1179 155.039 25.0172L155.311 22.9874H152.528C152.255 24.2037 152.047 25.7377 152.004 27.6514H189.558C198.023 27.6514 205.247 27.357 211.545 26.7526C211.373 24.2425 210.857 22.2978 210.354 20.9343C209.501 18.61 208.511 17.4479 208.504 17.4324C208.417 17.3317 208.396 17.1845 208.446 17.0528C208.496 16.9288 208.611 16.8436 208.74 16.8436C221.316 16.7739 232.571 17.2697 242.198 18.3079C249.902 19.1446 256.595 20.33 262.076 21.8407C271.466 24.4207 274.056 27.0316 274.164 27.1478C274.257 27.2407 274.285 27.3879 274.242 27.5196L273.676 29.1544C273.611 29.3326 273.425 29.4255 273.26 29.3558C266.1 26.4815 257.456 24.6453 248.274 24.0255C239.852 23.46 231.409 23.9791 224.494 25.4898C220.813 26.2956 216.768 26.9153 212.234 27.3724C212.27 28.1317 212.27 28.9452 212.234 29.7974H229.185C229.895 29.472 236.387 26.6519 245.039 26.9386C247.105 27.0083 249.171 27.4577 251.05 28.2014C251.545 28.093 252.055 28 252.593 27.9225C258.869 27.0083 264.142 27.7133 267.456 28.4571C271.057 29.2706 273.138 30.2933 273.224 30.332C273.367 30.4017 273.439 30.5722 273.403 30.7349C272.176 35.8327 270.347 39.6755 269.034 41.9997C267.607 44.5254 266.481 45.827 266.43 45.8812C266.402 45.9122 266.373 45.9354 266.337 45.9587C266.1 46.0826 261.968 48.2442 258.64 48.5386C258.274 49.2901 257.815 50.0261 257.284 50.7156C256.136 52.1954 254.673 53.4273 253.066 54.2872H287.736C287.915 54.2872 288.059 54.4422 288.059 54.6359C288.059 54.8295 287.915 54.9845 287.736 54.9845H251.452C251.294 54.9845 251.158 54.8605 251.136 54.6901C251.115 54.5197 251.201 54.357 251.351 54.3027C253.432 53.5357 255.362 52.1024 256.789 50.2663C257.212 49.724 257.578 49.1584 257.887 48.5696C256.94 48.5618 256.093 48.3681 255.476 47.8646C254.58 47.1363 254.257 45.889 254.537 44.1535C255.254 39.6522 254.379 35.9799 252.026 33.5317C250.613 32.0674 248.704 31.0525 246.337 30.5179C245.584 30.8821 245.017 31.2075 244.666 31.4244C245.247 31.866 246.28 32.8034 247.205 34.3684C248.439 36.4525 249.687 40.0938 248.661 45.6023C248.095 48.6548 246.803 50.9558 244.824 52.4511C242.75 54.0161 240.555 54.1865 239.436 54.1555C237.442 54.0935 235.197 52.9004 233.726 51.1185C232.686 49.8557 231.495 47.6864 231.753 44.4944C231.753 44.4479 231.76 44.4092 231.768 44.3627H225.505C225.527 45.0212 225.627 46.5552 226.143 48.2519C227.04 51.227 228.697 53.2646 231.065 54.3182C231.208 54.3802 231.287 54.5429 231.258 54.7056C231.23 54.8683 231.093 54.9845 230.943 54.9845H138.446C138.274 54.9845 138.131 54.8373 138.123 54.6436C138.116 54.4577 138.252 54.295 138.432 54.2872C138.504 54.2795 143.877 53.9463 147.844 51.777C144.96 51.7383 141.552 51.7848 139.824 52.1102C139.666 52.1412 139.515 52.0405 139.465 51.8855C139.415 51.7228 139.472 51.5446 139.615 51.4671C139.644 51.4516 142.435 49.7549 143.238 46.4778C143.274 46.3228 143.403 46.2221 143.554 46.2221H152.019C152.047 45.8812 152.047 45.5326 152.019 45.1684C151.366 36.5842 151.172 30.2158 151.165 30.1538C151.165 30.0608 151.194 29.9679 151.258 29.8981C151.316 29.8284 151.402 29.7897 151.488 29.7897H211.588C211.624 28.9607 211.624 28.1704 211.588 27.4267C205.275 28.0387 198.037 28.3331 189.565 28.3331H151.681C151.595 28.3331 151.509 28.2944 151.452 28.2324C151.395 28.1627 151.359 28.0775 151.359 27.9845C151.38 25.9547 151.581 24.3044 151.861 22.9719H89.3859C89.2927 23.7079 89.2712 24.3044 89.264 24.6608H113.389C113.525 24.6608 113.647 24.7538 113.69 24.8855C113.74 25.025 113.697 25.1799 113.597 25.2729C111.796 26.9386 110.369 28.8367 109.35 30.9208C108.123 33.4387 107.442 36.0341 107.327 38.6528C107.263 40.1636 107.384 41.6743 107.686 43.1773C108.425 43.278 109.199 43.371 110.003 43.4407C110.347 43.4717 110.692 43.5027 111.022 43.526C110.957 43.0611 110.914 42.5963 110.892 42.1314H109.286C109.199 42.1314 109.113 42.0927 109.049 42.023C108.984 41.9532 108.956 41.8603 108.963 41.7595C109.185 38.2654 110.067 34.8643 111.459 32.1836C112.686 29.8129 114.314 27.9535 116.301 26.6519C118.726 25.056 121.703 24.2967 125.139 24.3897C129.623 24.5136 135.742 25.7765 139.443 31.0912C142.062 34.8565 142.915 40.0473 141.725 44.9592C140.656 49.3598 138.044 51.7848 136.05 53.0476C133.891 54.4112 132.004 54.7288 131.918 54.7443C131.768 54.7676 131.617 54.6746 131.567 54.5119C131.516 54.3492 131.581 54.1788 131.717 54.0935C136.007 51.4981 138.669 46.594 138.669 41.2947C138.669 33.2141 132.578 26.6364 125.096 26.6364C117.614 26.6364 111.524 33.2141 111.524 41.2947C111.524 41.3412 111.524 41.3799 111.524 41.4264H117.105C117.277 36.8011 120.813 33.0901 125.139 33.0901C129.572 33.0901 133.181 36.9871 133.181 41.775C133.181 41.868 133.138 44.0218 132.105 46.1988C131.143 48.2364 129.113 50.6614 124.917 50.6614C122.384 50.6614 119.07 49.5458 117.499 44.2852C116.782 44.324 114.623 44.4247 111.811 44.2697C112.133 45.9509 112.729 47.5624 113.575 49.0344C114.874 51.289 116.717 53.1251 118.898 54.3337C119.049 54.4189 119.113 54.6049 119.049 54.7753C118.991 54.9148 118.869 55 118.74 55ZM142.958 54.3027H229.594C227.7 53.0554 226.308 51.0643 225.527 48.4534C224.824 46.0981 224.859 44.0993 224.859 44.0141C224.867 43.8281 225.01 43.6732 225.182 43.6732H231.854C232.205 41.3412 233.224 39.412 234.831 38.0485C236.172 36.9096 237.93 36.1891 239.529 36.1271C241.143 36.0651 243.504 36.7856 245.139 38.5521C246.452 39.9699 247.112 41.868 247.04 44.045C247.033 44.231 246.89 44.3782 246.717 44.3782H232.413C232.406 44.4402 232.399 44.5021 232.399 44.5719C232.162 47.5159 233.252 49.5148 234.214 50.6692C235.57 52.3194 237.628 53.4195 239.458 53.4737C242.858 53.5822 246.897 51.5369 248.03 45.4861C249.013 40.2255 247.844 36.7702 246.681 34.7945C245.426 32.6562 243.92 31.7498 243.905 31.742C243.805 31.6801 243.74 31.5716 243.74 31.4554C243.733 31.3314 243.791 31.2152 243.884 31.1532C243.934 31.1145 244.393 30.7813 245.225 30.332C242.255 29.8671 238.712 30.0996 234.702 31.006C232.019 31.6181 229.702 33.1366 227.822 35.5151C226.308 37.4364 225.06 39.9234 224.128 42.9062C222.528 48.0195 222.392 52.8617 222.392 52.9082C222.392 53.0321 222.327 53.1406 222.234 53.2026C222.141 53.2646 222.019 53.2646 221.918 53.2103C219.192 51.6376 210.175 51.9242 210.082 51.9242C209.981 51.9242 209.888 51.8855 209.824 51.8003C209.759 51.7151 209.737 51.6066 209.752 51.5059L210.62 46.9271H209.867C209.357 49.7704 208.977 51.6143 208.97 51.6531C208.934 51.8158 208.805 51.9242 208.654 51.9242H152.815C152.808 51.9242 152.808 51.9242 152.801 51.9242C152.765 51.9242 151.208 51.8545 149.142 51.808C147.671 52.7997 145.763 53.5977 143.432 54.1865C143.274 54.2253 143.116 54.264 142.958 54.3027ZM125.089 25.9469C132.93 25.9469 139.307 32.8344 139.307 41.3024C139.307 46.0904 137.234 50.5607 133.791 53.4505C134.379 53.2103 135.046 52.8849 135.742 52.4433C138.482 50.7079 140.283 48.1357 141.093 44.7966C142.234 40.0861 141.423 35.1277 138.92 31.5251C136.115 27.4964 131.344 25.2729 125.118 25.0947C121.803 25.0017 118.948 25.73 116.631 27.2485C114.745 28.4881 113.195 30.2623 112.019 32.5245C110.727 35.0192 109.881 38.1647 109.63 41.4341H110.871C110.871 41.3877 110.871 41.3489 110.871 41.3024C110.871 32.8344 117.248 25.9469 125.089 25.9469ZM211.854 51.2037C214.508 51.2037 219.407 51.3509 221.768 52.3736C221.846 50.9636 222.191 46.9194 223.511 42.697C224.472 39.629 225.756 37.0568 227.32 35.0657C229.3 32.5555 231.732 30.9595 234.565 30.3165C238.712 29.379 242.37 29.1544 245.44 29.6502C245.713 29.6967 245.986 29.7432 246.251 29.8052C247.191 29.3636 248.396 28.891 249.831 28.5036C248.274 27.9923 246.638 27.6978 245.01 27.6436C236.036 27.3415 229.436 30.4405 229.372 30.4714C229.329 30.4947 229.285 30.5024 229.242 30.5024H212.191C212.162 30.8976 212.126 31.3082 212.083 31.7265C211.524 36.9948 210.656 42.3871 209.981 46.2376H211.007C211.108 46.2376 211.194 46.2841 211.258 46.3693C211.323 46.4468 211.344 46.5552 211.323 46.6559L210.462 51.227C210.778 51.2115 211.258 51.2037 211.854 51.2037ZM143.791 46.9271C143.209 49.0034 141.94 50.4445 141.014 51.2657C143.209 51.0565 146.423 51.0565 148.948 51.1108C149.608 50.6537 150.197 50.1268 150.684 49.5303C151.316 48.7478 151.732 47.88 151.918 46.9349H143.791V46.9271ZM152.815 51.227H208.389C208.511 50.6227 208.812 49.0732 209.199 46.9271H152.578C152.384 48.0427 151.911 49.0654 151.172 49.9796C150.842 50.3825 150.469 50.7699 150.039 51.1263C151.56 51.1727 152.657 51.2192 152.815 51.227ZM83.7977 43.34C85.2898 43.34 86.868 43.526 88.4534 43.9908C95.5839 46.0904 97.8006 49.3753 98.3458 50.4057C98.9555 50.1346 100.462 49.5303 102.392 49.1816C105.103 48.6935 107.564 48.9337 109.594 49.8634C108.977 48.8407 108.123 47.2138 107.499 45.1142C107.37 44.6726 107.248 44.2387 107.148 43.7894C103.489 43.2471 99.1707 42.1547 95.6485 39.9854C95.3902 39.8614 92.2482 38.3506 89.2927 36.2976C85.0602 33.369 83.2023 30.7658 83.769 28.5733C84.5868 25.3813 85.2109 23.7466 86.0646 22.9641H36.2009C37.2626 23.7621 38.2382 24.6453 39.1349 25.606C41.0359 27.6436 42.5567 30.0298 43.6614 32.7027C44.472 32.3851 46.8608 31.5406 50.0674 31.192C52.3558 30.944 54.5868 31.006 56.6887 31.3779C59.3285 31.8428 61.7747 32.8034 63.9627 34.2212C68.9197 37.4364 70.957 40.7756 71.7963 43.0146C72.3773 44.5719 72.4849 45.827 72.4778 46.5475C73.2669 46.0826 74.8809 45.2149 77.0258 44.4944C78.812 43.9056 81.1865 43.34 83.7977 43.34ZM117.722 43.5725C117.865 43.5725 117.987 43.6732 118.03 43.8204C118.518 45.5636 119.242 46.9658 120.189 47.9808C121.409 49.2978 122.994 49.9641 124.902 49.9641C128.001 49.9641 130.225 48.6006 131.502 45.9044C132.471 43.8669 132.521 41.7905 132.521 41.7673C132.521 37.3667 129.207 33.7874 125.125 33.7874C121.05 33.7874 117.729 37.3667 117.729 41.775C117.729 41.9687 117.585 42.1237 117.406 42.1237H111.531C111.56 42.604 111.603 43.0844 111.674 43.5647C115.161 43.7661 117.664 43.5725 117.693 43.5725C117.707 43.5725 117.714 43.5725 117.722 43.5725ZM247.349 30.0763C249.429 30.6806 251.143 31.6723 252.463 33.0436C254.981 35.6623 255.914 39.5515 255.168 44.2852C254.938 45.7417 255.168 46.7644 255.857 47.3222C256.38 47.7406 257.176 47.9343 258.217 47.8878C258.776 46.625 259.085 45.3079 259.085 44.0218C259.085 43.8281 259.228 43.6732 259.407 43.6732H264.802C265.326 42.9759 267.923 39.3811 270.046 34.26L257.621 34.0663C257.514 34.0663 257.413 34.0043 257.356 33.9113C256.351 32.2534 254.587 30.7116 252.406 29.5805C251.947 29.3403 251.473 29.1234 250.993 28.9297C249.58 29.2473 248.353 29.6657 247.349 30.0763ZM259.73 44.3704C259.68 45.5248 259.415 46.6869 258.963 47.8181C259.802 47.7096 260.77 47.4694 261.854 47.1131C263.884 46.439 265.67 45.5403 266 45.3699C266.438 44.843 270.498 39.7839 272.707 30.8588C272.054 30.5722 270.139 29.7819 267.298 29.1389C264.042 28.4029 258.855 27.7133 252.679 28.612C252.514 28.6353 252.349 28.6663 252.184 28.6895C254.587 29.8361 256.603 31.4631 257.808 33.369L270.548 33.5704C270.656 33.5704 270.756 33.6324 270.813 33.7331C270.871 33.8339 270.878 33.9578 270.842 34.0585C268.41 40.1171 265.24 44.2077 265.211 44.2542C265.146 44.3317 265.06 44.3782 264.967 44.3782H259.73V44.3704ZM152.664 46.2298H209.329C210.01 42.3871 210.885 36.9483 211.452 31.6413C211.495 31.2539 211.524 30.8743 211.552 30.5024H151.832C151.882 31.959 152.105 37.7154 152.671 45.122C152.686 45.4938 152.686 45.8657 152.664 46.2298ZM232.506 43.6732H246.402C246.395 41.8138 245.821 40.2565 244.687 39.0402C243.188 37.4287 241.029 36.7624 239.551 36.8244C238.087 36.8864 236.466 37.5449 235.225 38.5986C233.776 39.8304 232.844 41.5736 232.506 43.6732ZM87.8077 22.9796C87.7575 23.0184 87.7001 23.0416 87.6427 23.0494C86.4089 23.1578 85.6915 23.7621 84.4003 28.7825C83.8049 31.1067 86.9254 33.8493 89.6514 35.732C92.6786 37.8316 95.9067 39.3578 95.9354 39.3733C95.9426 39.3811 95.9569 39.3811 95.9641 39.3888C98.0229 40.6594 101.524 42.2399 107.004 43.0844C106.725 41.6046 106.617 40.1093 106.681 38.6218C106.803 35.9024 107.506 33.2063 108.776 30.6032C109.709 28.6973 110.971 26.9386 112.535 25.3659H88.934C88.7618 25.3659 88.6184 25.2186 88.6112 25.0327C88.6112 24.9552 88.5825 24.1262 88.7188 22.9874H87.8077V22.9796ZM241.653 23.1036C243.855 23.1036 246.086 23.1811 248.31 23.3283C257.428 23.9403 266.014 25.7532 273.181 28.5811L273.554 27.5042C272.865 26.9231 269.824 24.6763 261.768 22.476C256.316 20.9885 249.659 19.8109 241.997 18.9897C232.593 17.9747 221.631 17.4867 209.407 17.5409C209.795 18.122 210.397 19.1524 210.943 20.6399C211.466 22.0577 212.004 24.0798 212.191 26.6907C216.689 26.2336 220.713 25.6138 224.364 24.8158C229.501 23.6846 235.469 23.1036 241.653 23.1036ZM155.727 24.7151H164.3L165.118 22.4993C165.168 22.3676 165.283 22.2823 165.419 22.2823H207.923C207.528 20.3997 205.813 18.7882 204.099 17.6029H194.443C194.35 17.6029 194.264 17.5641 194.207 17.4944L192.693 15.728C192.621 15.6428 192.593 15.5188 192.621 15.4026C192.65 15.2864 192.729 15.1934 192.829 15.1624C193.095 15.0694 193.496 15.0384 193.956 15.0075C194.723 14.9532 195.885 14.8758 195.885 14.3722C195.885 14.2172 195.39 13.6826 193.195 13.1945C191.56 12.8304 189.436 12.6057 187.428 12.5825L188.016 15.023L190.046 15.1469C190.204 15.1547 190.333 15.2941 190.347 15.4646L190.476 16.9598C190.483 17.0605 190.455 17.1535 190.39 17.2232C190.326 17.293 190.24 17.3394 190.154 17.3394H163.826C163.819 17.3394 163.819 17.3394 163.812 17.3394C163.769 17.3394 159.78 17.1535 155.29 16.6422L155.01 18.0832C154.989 18.1762 154.938 18.2614 154.859 18.3156C154.852 18.3156 154.164 18.7805 153.475 20.1828C153.217 20.7019 152.944 21.3914 152.7 22.2901H155.684C155.778 22.2901 155.864 22.3366 155.928 22.4141C155.993 22.4915 156.014 22.5923 156 22.693L155.727 24.7151ZM89.4864 22.2823H152.026C152.801 19.2763 154.013 18.1142 154.415 17.7966L154.659 16.557C154.343 16.5182 154.027 16.4795 153.712 16.4407C146.667 15.5188 142.908 14.2714 142.205 12.629C142.04 12.2494 141.961 11.6373 142.485 10.9168C144.264 8.47633 146.638 6.57818 148.575 5.2921H147.026C141.38 8.09669 140.11 10.4209 140.046 11.8775C139.96 13.7524 141.811 14.93 141.825 14.9455C141.954 15.023 142.011 15.1857 141.976 15.3406C141.94 15.4956 141.811 15.5963 141.667 15.5963H95.9426C94.0918 15.6505 92.5854 16.3245 91.4806 17.6106C90.297 18.9664 89.7446 20.7871 89.4864 22.2823ZM87.8866 22.2823H88.8192C89.0846 20.6709 89.6801 18.6643 91 17.138C92.2339 15.7125 93.891 14.961 95.9211 14.9067H95.9283H140.699C140.075 14.2869 139.329 13.2488 139.393 11.862C139.501 9.44476 141.997 7.01979 146.811 4.63356C146.854 4.61032 146.897 4.60258 146.947 4.60258H149.659C150.964 3.81234 151.89 3.37848 151.983 3.33974C152.026 3.32424 152.069 3.30875 152.112 3.30875H177.6H177.607C177.844 3.31649 183.396 3.49469 190.067 7.70932L190.075 7.71707L200.397 14.806C200.692 14.93 202.463 15.6737 204.293 16.9133H205.77L192.506 7.76355C192.506 7.76355 192.499 7.76355 192.499 7.75581C184.867 2.13113 179.651 1.70502 179.443 1.69727H138.762C133.238 1.82898 131.882 2.82065 130.01 4.19971L129.845 4.32367C125.017 7.86427 118.36 10.5681 110.046 12.3578C103.238 13.8221 96.8465 14.3412 93.4103 14.6201C92.9512 14.6588 92.5423 14.6898 92.1836 14.7208C90.7489 14.8448 89.6514 15.4336 88.9196 16.4717C87.571 18.3699 87.7647 21.2829 87.8866 22.2823ZM2.52798 22.2823H33.977C32.6499 21.4689 31.2224 20.7638 29.6872 20.1673C26.1004 18.7805 22.3845 18.0677 18.6471 18.0367C15.6557 18.0135 12.6428 18.4318 9.68723 19.2686C6.34433 20.2293 3.84075 21.5231 2.52798 22.2823ZM194.587 16.9056H203.016C201.481 15.9836 200.182 15.4491 200.146 15.4413C200.125 15.4336 200.103 15.4181 200.082 15.4103L189.737 8.30588C183.274 4.22295 177.743 4.00602 177.593 4.00602H152.176C152.033 4.07575 151.617 4.27719 151.036 4.60258H157.241C157.341 4.60258 157.428 4.64906 157.492 4.73429C157.557 4.81951 157.578 4.92023 157.557 5.02869L155.419 15.9604C159.78 16.4562 163.647 16.6422 163.826 16.6499H189.795L189.723 15.8364L187.736 15.7202C187.593 15.7125 187.478 15.604 187.442 15.4568L186.689 12.3268C186.66 12.2261 186.681 12.1099 186.746 12.0247C186.811 11.9394 186.904 11.893 187.004 11.893C189.207 11.893 191.509 12.1254 193.324 12.5283C195.476 13.0086 196.524 13.6129 196.524 14.3877C196.524 15.5498 195.06 15.6505 193.991 15.7202C193.848 15.728 193.704 15.7357 193.568 15.7512L194.587 16.9056ZM149.852 5.2921C147.844 6.5317 144.981 8.60029 142.98 11.3506C142.628 11.831 142.7 12.1486 142.779 12.3423C143.109 13.1248 144.981 14.6046 153.769 15.7512C154.106 15.7977 154.443 15.8364 154.78 15.8752L156.846 5.2921H149.852Z" fill="#2C3D55" stroke="#2C3D55" stroke-width="0.5" stroke-miterlimit="10"/>
</svg>
