<svg width="173" height="68" viewBox="0 0 173 68" fill="none" xmlns="http://www.w3.org/2000/svg">
<path d="M98.1758 67.4952C94.6698 67.4952 90.0929 66.552 88.3179 62.0091C88.2739 61.9148 88.2886 61.8047 88.3473 61.7104C88.406 61.6161 88.494 61.569 88.5967 61.569H98.2492C98.3372 61.569 98.4105 61.6004 98.4692 61.679C98.5279 61.7419 98.5572 61.8362 98.5426 61.9305C98.5426 61.9305 98.5426 62.1191 98.7333 62.3392C99.012 62.6536 99.8481 63.2038 102.195 63.2038C102.313 63.188 103.457 62.9208 104.572 61.2074C105.687 59.5097 107.022 55.9886 107.022 48.9305C107.007 48.5847 106.376 39.0902 102.767 39.0902C102.738 39.0902 101.33 39.0745 99.9215 40.5364C98.5866 41.9354 97.0023 44.9693 97.0023 51.54C97.0023 51.7129 96.8702 51.8544 96.7089 51.8544H94.0097C93.9804 52.2945 93.9804 52.546 93.9804 52.5617V52.5775C93.3936 59.8241 90.093 60.5315 89.9609 60.5629C89.9316 60.5629 89.9022 60.5629 89.8876 60.5629C81.9954 59.7927 52.099 59.0224 49.4145 58.9438C46.5539 65.1844 40.3488 64.6499 39.9527 64.6185C33.5715 64.6185 30.3882 61.5061 28.8332 58.8967C28.3345 58.0478 27.953 57.199 27.689 56.4287C25.6499 56.3501 23.9483 56.2401 22.7014 56.0986C22.6427 56.0986 22.5987 56.0672 22.5547 56.0357C22.5107 56.0043 21.5865 55.2498 21.6598 54.1337C21.7185 53.332 22.276 52.6089 23.3322 51.9644L22.2466 47.3272C22.2173 47.2329 22.2466 47.1228 22.3053 47.0599C22.4667 46.8399 26.4714 41.6682 35.2291 42.0769L51.8643 42.2812C52.2164 42.2812 60.3579 42.3284 63.3358 46.1168C64.9348 45.9281 78.4014 44.2933 85.4281 41.0866C85.5161 41.0394 85.6188 41.0551 85.6921 41.1023C85.7801 41.1494 85.8241 41.2438 85.8241 41.3538C85.8241 41.4638 85.9562 44.2305 85.032 47.1543C83.7851 51.0684 81.2179 53.3005 77.6092 53.6464C77.5946 53.6464 77.5946 53.6464 77.5799 53.6464L27.5716 53.442C27.6303 53.8822 27.7623 54.7467 28.0851 55.7842C44.0455 56.3816 79.663 55.4698 80.3964 55.4384C87.1884 54.8568 88.2006 49.3393 88.2593 49.0091L89.7702 34.9403C89.7702 34.9246 89.7702 34.9088 89.7849 34.8931C91.6479 27.3164 97.1343 20.9343 99.0413 18.8908C83.1983 21.2801 46.7593 20.4156 45.263 20.3684C36.344 23.1193 33.9969 25.6816 33.3954 26.9548C33.0727 27.6308 33.2047 28.0237 33.2047 28.0395C33.2341 28.1495 33.2194 28.2753 33.1607 28.3539L30.5349 31.9064C30.4029 33.1483 30.4029 34.2644 30.4029 34.7517C44.6616 37.2668 61.5608 34.9403 63.0718 34.7202C65.5803 31.6392 71.1547 28.9512 79.6336 26.719C85.9855 25.0528 91.6919 24.2668 91.7506 24.2668C91.868 24.2511 91.9853 24.314 92.044 24.424C92.1027 24.534 92.088 24.6755 92.0293 24.7698L84.6506 35.2232C84.6066 35.3018 84.5185 35.3333 84.4452 35.349C84.1518 35.3804 55.5317 38.0842 42.9893 38.0842C31.4444 38.0842 25.4299 34.6259 24.2857 33.9028C19.6208 38.3671 22.232 45.2837 22.2613 45.3622C22.3053 45.4566 22.2906 45.5666 22.232 45.6609C22.1733 45.7552 22.0853 45.8024 21.9826 45.8024H0.975885C0.81452 45.8024 0.682495 45.6609 0.682495 45.488C0.682495 45.3151 0.81452 45.1736 0.975885 45.1736H21.5572C21.3371 44.482 20.9557 43.0358 20.897 41.2595C20.7943 38.0056 21.8946 35.2547 24.051 33.274C24.1537 33.1797 24.3003 33.1797 24.403 33.2426C24.4617 33.2897 30.5495 37.4554 42.9746 37.4554C55.0622 37.4554 82.1421 34.9403 84.2545 34.7359L91.1345 25.0056C87.2764 25.5872 68.6022 28.7311 63.4532 35.239C63.4092 35.3018 63.3358 35.3333 63.2771 35.349C63.1011 35.3804 45.087 38.0684 30.0801 35.349C29.9481 35.3175 29.8454 35.2075 29.8307 35.0503C29.8307 34.9717 29.7867 34.0286 29.8748 32.8024L29.0239 33.9185C28.9652 33.9971 28.8626 34.0443 28.7599 34.0286C26.8528 33.7456 25.6646 33.1797 25.2245 32.3309C24.9605 31.8278 25.0338 31.3563 25.1218 31.1519C25.1365 31.1362 25.1365 31.1205 25.1512 31.1048C28.1584 26.5147 31.2243 27.6936 31.3564 27.7408C31.4444 27.7722 31.5031 27.8351 31.5324 27.9294C31.5617 28.0238 31.5471 28.1181 31.5031 28.1967C31.1217 28.904 30.8723 29.7843 30.7109 30.696L32.6326 28.1652C32.5886 27.9137 32.5739 27.4579 32.8673 26.8291C33.6301 25.1314 36.3733 22.5534 45.175 19.8339C45.2043 19.8182 45.2337 19.8182 45.263 19.8182C45.6591 19.8339 84.3865 20.8085 99.8922 18.1991C100.024 18.1834 100.142 18.2463 100.2 18.372C100.259 18.4978 100.23 18.655 100.127 18.7336C100.054 18.8122 92.6014 26.0903 90.3863 35.0975L88.8754 49.1506V49.1663C88.8607 49.2292 88.6113 50.7854 87.4524 52.4203C86.3816 53.9293 84.2985 55.7999 80.4844 56.1143H80.4698C80.059 56.13 44.5296 57.0418 28.3491 56.4601C28.5985 57.1361 28.9212 57.8749 29.3613 58.598C31.5031 62.182 35.0824 64.0055 39.982 64.0055C39.9967 64.0055 40.0114 64.0055 40.0114 64.0055C40.026 64.0055 41.5957 64.1941 43.488 63.5967C45.9965 62.8108 47.8449 61.0974 48.9891 58.5037C49.0331 58.3936 49.1358 58.315 49.2678 58.315C49.5905 58.3308 81.5993 59.1324 89.9169 59.9341C90.2396 59.8398 92.9242 58.8809 93.4229 52.5303C93.4229 52.4831 93.4376 52.2316 93.4523 51.8544H90.5037C90.4157 51.8544 90.3423 51.8229 90.2837 51.76C90.225 51.6972 90.1956 51.6028 90.2103 51.5243C90.2103 51.4614 90.7091 45.598 92.4694 39.6247C93.5109 36.1035 94.7872 33.2426 96.2541 31.089C98.0731 28.4482 100.2 26.9077 102.577 26.5304C102.885 25.5086 104.396 20.6199 106.772 15.6997C109.897 9.20763 113.139 5.32494 116.439 4.14598C115.809 4.1617 114.972 4.33461 113.916 4.85336C111.525 6.01659 107.579 9.22335 102.283 17.869C102.225 17.9633 102.137 18.0105 102.049 18.0105C101.608 18.0262 58.5976 19.0165 49.0624 18.8279C48.9451 18.8279 48.8277 18.7336 48.7837 18.6078C48.7397 18.4821 48.7837 18.3406 48.8864 18.262C48.9304 18.2306 53.3312 14.5522 59.5218 10.7796C65.2429 7.28986 73.7218 3.01419 81.5993 2.36969C81.834 2.33825 106.2 -0.459802 121.002 1.1593C121.06 1.1593 126.341 1.80379 132.605 4.08311C138.4 6.20522 146.233 10.2137 150.678 17.3031C150.737 17.3974 150.751 17.5232 150.693 17.6175C150.649 17.7118 150.546 17.7904 150.443 17.7904C150.399 17.7904 149.724 17.8219 148.551 17.8847C150.135 19.6925 151.47 21.5631 152.086 23.2451C152.277 23.7795 152.512 24.3611 152.761 24.9899C154.697 29.8786 157.587 37.2196 154.8 45.2365H172.154C172.315 45.2365 172.447 45.378 172.447 45.5509C172.447 45.7238 172.315 45.8653 172.154 45.8653H154.375C154.272 45.8653 154.184 45.8181 154.125 45.7238C154.067 45.6295 154.067 45.5352 154.096 45.4251C157.059 37.4868 154.155 30.0987 152.218 25.2257C151.969 24.5969 151.734 23.9996 151.543 23.4651C150.913 21.7517 149.46 19.8025 147.759 17.9162C143.71 18.1205 135.656 18.5764 127.544 19.2366C127.661 19.8182 127.764 20.3998 127.838 20.9657C137.255 20.0855 146.336 19.4252 147.055 19.3781C147.157 19.3781 147.26 19.4252 147.319 19.5196C150.59 25.0842 147.465 32.1894 147.333 32.4881C147.289 32.5824 147.201 32.6453 147.113 32.661C142.052 33.4155 138.385 38.7287 136.199 43.0515C135.422 44.592 134.761 46.1168 134.248 47.4686L139.089 46.5569C139.162 46.5412 139.236 46.5569 139.294 46.6041L142.507 48.8362C142.61 48.9148 142.654 49.0406 142.639 49.1663C142.61 49.2921 142.507 49.3864 142.39 49.4021C142.287 49.4179 138.238 49.9838 133.03 50.9584C132.898 51.3828 132.796 51.7286 132.722 51.9801C140.6 51.3671 144.517 53.8036 146.16 55.3126L144.15 49.1978C144.135 49.1663 144.135 49.1349 144.135 49.0877C144.135 35.4119 146.922 34.7202 147.245 34.6888C147.26 34.6888 147.26 34.6888 147.275 34.6888C148.257 34.6888 149.094 35.0818 149.783 35.8834C152.365 38.8544 151.954 46.384 151.925 46.8713C151.998 52.4989 151.045 56.5387 149.079 58.8809C147.641 60.5943 146.174 60.7515 145.984 60.7515C141.774 61.396 139.5 60.0913 138.326 58.8967C137.035 57.5762 136.786 56.0986 136.771 56.0357C136.742 55.8942 136.83 55.737 136.947 55.6899L140.087 54.3695C132.708 54.1337 111.584 57.4662 111.364 57.5133C111.232 57.5291 111.1 57.4505 111.041 57.309C110.997 57.1675 111.041 57.0103 111.158 56.9317C115.251 54.1022 125.05 51.8229 132.59 50.3925C132.781 49.7951 133.016 49.0877 133.309 48.2861L112.508 52.2316C112.405 52.2473 112.303 52.2159 112.244 52.1373C112.171 52.0587 112.156 51.9487 112.185 51.8386C114.21 44.1361 106.229 27.0963 106.156 26.9234C106.112 26.8448 106.112 26.7505 106.141 26.6562C106.171 26.5776 106.244 26.499 106.317 26.4832C109.53 25.3357 125.153 23.8738 127.5 23.6538C127.485 23.0093 127.441 22.3333 127.353 21.6417C118.845 22.4434 110.19 23.4022 107.432 24.2354C107.315 24.2668 107.183 24.2197 107.11 24.1096C107.036 23.9996 107.051 23.8424 107.124 23.7324C107.139 23.7166 107.828 22.8049 109.046 21.4373C108.459 21.5631 107.916 21.6731 107.418 21.7989C107.315 21.8303 107.212 21.7989 107.139 21.7203C107.066 21.6417 107.036 21.5316 107.066 21.4216C107.08 21.3902 108.004 17.476 110.366 13.5619C113.52 8.35878 117.774 5.52929 122.659 5.3721C122.777 5.3721 122.879 5.43497 122.938 5.54501C123.011 5.71792 123.745 7.27415 124.625 9.53774C125.666 9.0976 126.708 8.75177 127.72 8.48454C131.901 7.38418 135.847 7.71429 139.456 9.44342C139.47 9.45914 139.485 9.45914 139.5 9.47486C139.793 9.69493 144.37 13.2475 148.008 17.2402C148.83 17.1931 149.475 17.1616 149.886 17.1459C145.485 10.4966 137.989 6.67681 132.414 4.63328C126.224 2.36969 121.002 1.74092 120.943 1.74092C106.2 0.137537 81.8927 2.93559 81.6433 2.95131C68.4261 4.02023 53.2726 15.4954 49.9279 18.152C60.578 18.2777 99.1147 17.3974 101.887 17.3346C112.273 0.404765 117.862 3.64296 118.097 3.78444C118.2 3.84732 118.258 3.98879 118.229 4.11454C118.2 4.2403 118.097 4.35034 117.98 4.36606C109.383 5.34066 103.149 26.6404 103.09 26.8605C103.061 26.9863 102.958 27.0649 102.841 27.0806C93.4669 28.3539 91.1198 48.3175 90.8264 51.1941H93.4963C93.6136 49.6222 93.9217 46.8713 94.6698 44.089C96.1954 38.4143 98.8653 35.1604 102.386 34.6731C102.401 34.6731 102.401 34.6731 102.415 34.6731C102.489 34.6731 104.41 34.6731 106.244 36.6694C108.576 39.2002 109.677 43.6488 109.53 49.9052C109.53 49.9366 109.501 53.945 108.503 58.0478C107.154 63.5653 104.674 66.7406 101.33 67.2279C100.494 67.3851 99.3934 67.4952 98.1758 67.4952ZM89.0367 62.1977C91.4572 67.4637 98.3225 67.0707 101.212 66.6463C108.738 65.5302 108.899 50.0781 108.899 49.9209C109.09 42.3756 107.315 38.823 105.804 37.1567C104.22 35.4276 102.562 35.349 102.401 35.3333C95.814 36.245 94.3618 47.3272 94.0537 51.2256H96.4155C96.4595 45.9282 97.501 42.1712 99.5254 40.0648C101.11 38.4143 102.694 38.4457 102.767 38.4614C106.963 38.4614 107.564 48.4747 107.594 48.8991V48.9148C107.594 63.0309 102.445 63.8011 102.225 63.8325C102.21 63.8325 102.21 63.8325 102.195 63.8325C100.171 63.8325 98.8506 63.4553 98.2492 62.7322C98.0878 62.5435 98.0145 62.3549 97.9705 62.2134H89.0367V62.1977ZM137.358 56.1929C137.637 57.2461 139.162 61.176 145.866 60.1542C145.881 60.1542 145.881 60.1542 145.896 60.1542C145.91 60.1542 147.289 60.0756 148.639 58.4408C149.9 56.9003 151.382 53.6464 151.294 46.887C151.294 46.8713 151.294 46.8713 151.294 46.8556C151.294 46.777 151.749 39.1216 149.314 36.3236C148.742 35.6634 148.067 35.3333 147.26 35.3333C147.128 35.3804 144.693 36.3393 144.693 49.0406L147.143 56.4916C147.187 56.6488 147.128 56.806 146.996 56.8846C146.864 56.9474 146.702 56.916 146.614 56.7745C146.585 56.7274 143.255 51.6657 132.312 52.656C132.209 52.6718 132.121 52.6246 132.062 52.546C132.004 52.4674 131.974 52.3574 132.004 52.2631C132.004 52.2473 132.121 51.8229 132.341 51.0998C125.652 52.3888 117.305 54.3223 112.831 56.6488C118.346 55.7999 136.375 53.1591 141.407 53.8507C141.539 53.8664 141.641 53.9765 141.656 54.118C141.671 54.2594 141.597 54.4009 141.465 54.4481L137.358 56.1929ZM22.8481 55.5013C24.0216 55.627 25.5913 55.7213 27.469 55.7999C27.0289 54.3223 26.9702 53.2534 26.9702 53.1748C26.9702 53.0962 26.9995 53.0019 27.0435 52.939C27.1022 52.8761 27.1756 52.8447 27.2636 52.8447L77.5799 53.049C80.9685 52.7189 83.2863 50.6911 84.4745 46.9971C85.164 44.8749 85.252 42.7685 85.252 41.8725C77.6239 45.1736 63.3798 46.777 63.2478 46.7927C63.1451 46.8084 63.0424 46.7613 62.9838 46.667C60.2699 42.9729 51.9523 42.9415 51.8643 42.9415L35.2144 42.7371C27.4543 42.3756 23.5082 46.6198 22.8627 47.3743L23.963 52.0744C23.9923 52.2159 23.9336 52.3574 23.8163 52.436C22.8334 52.9862 22.2906 53.5992 22.2466 54.2123C22.2026 54.8253 22.6867 55.3441 22.8481 55.5013ZM106.787 27.002C107.916 29.4699 114.371 43.9789 112.816 51.5557L133.529 47.6258C134.087 46.1639 134.791 44.482 135.656 42.7843C138.854 36.4808 142.712 32.7867 146.849 32.0951C147.275 31.0576 149.592 24.8642 146.893 20.054C145.544 20.1483 136.874 20.7928 127.896 21.626C127.984 22.4276 128.043 23.2293 128.043 23.9839C128.043 24.1411 127.926 24.2825 127.779 24.2983C127.603 24.2983 110.806 25.823 106.787 27.002ZM133.955 48.176C133.661 48.962 133.412 49.6851 133.221 50.2824C136.977 49.5908 140.087 49.1035 141.495 48.8991L139.045 47.2014L133.955 48.176ZM25.6499 31.4191C25.6353 31.482 25.5766 31.7335 25.738 32.0322C25.9287 32.3937 26.5741 33.0382 28.6719 33.3683L29.9628 31.6549C30.0948 30.4917 30.3588 29.2341 30.8136 28.2281C30.0068 28.0866 27.8504 28.0866 25.6499 31.4191ZM109.999 21.2958C109.178 22.1919 108.547 22.9307 108.136 23.4337C111.613 22.6477 119.476 21.7674 127.236 21.0443C127.148 20.4784 127.045 19.8968 126.928 19.2995C120.62 19.8339 114.356 20.4942 109.999 21.2958ZM122.454 6.04803C117.774 6.2681 113.858 8.92468 110.821 13.9549C109.002 16.9573 108.048 19.9597 107.726 21.1229C108.327 20.9815 108.987 20.8557 109.706 20.7142C111.51 18.7493 114.166 16.1399 117.319 13.8134C119.593 12.1314 121.838 10.7953 124.038 9.82069C123.29 7.91864 122.674 6.51961 122.454 6.04803ZM124.258 10.4023C121.808 11.4712 119.579 12.886 117.657 14.3007C114.855 16.3757 112.464 18.6707 110.704 20.5256C115.016 19.8025 120.884 19.1737 126.796 18.6707C126.151 15.7469 125.138 12.7602 124.258 10.4023ZM124.816 10.1665C125.725 12.5559 126.752 15.6054 127.397 18.6235C135.202 17.9791 142.976 17.5389 147.187 17.3188C143.71 13.6091 139.514 10.3237 139.148 10.0408C134.233 7.68285 129.216 8.35878 124.816 10.1665Z" fill="#2C3D55" stroke="#2C3D55" stroke-width="0.440706" stroke-miterlimit="10"/>
</svg>
