<svg width="160" height="96" viewBox="0 0 160 96" fill="none" xmlns="http://www.w3.org/2000/svg">
<path d="M159.262 91.9177H105.603C105.755 91.7657 105.886 91.6355 105.972 91.4836C106.45 90.789 107.123 89.9424 107.926 88.9222C111.356 84.5809 117.064 77.3309 121.427 65.5009C122.383 62.9178 123.945 57.5346 123.75 50.3932C123.576 43.903 121.927 37.8035 118.975 32.7458C113.374 23.1516 105.278 20.5685 99.352 18.7018C94.8588 17.2691 91.9067 16.3358 92.0152 13.21C92.0152 13.1015 92.0152 12.993 92.0369 12.8844C98.7659 14.9683 103.932 18.3762 107.796 20.9375C110.856 22.9562 112.875 24.302 114.264 23.9981C114.72 23.9113 115.089 23.6508 115.35 23.2167C118.02 19.1359 119.061 13.362 118.02 8.49973C117.39 5.52594 116.001 3.20335 114.112 2.00949C113.005 1.29318 111.095 0.96758 108.751 1.09782C101.479 1.48854 92.6664 6.35079 91.4726 12.0596C87.9127 11.0177 83.9404 10.3448 79.5557 10.3448C74.7152 10.3448 70.5475 10.844 66.966 11.6472C65.8806 8.56485 62.4944 5.74301 59.2384 3.94137C54.5064 1.31489 48.1682 -0.226275 44.6517 2.24826C41.0701 4.76621 40.4841 12.3201 40.6794 16.3792C40.9833 22.2616 42.8284 25.93 45.4548 25.93C45.889 25.93 46.3014 25.4308 47.1914 24.3672C49.4922 21.5887 54.6801 15.2721 66.4884 12.4286C66.6186 12.9278 66.6621 13.4271 66.6404 13.8829C66.5752 14.9248 64.0573 16.1621 60.8664 17.7033C55.3096 20.3949 46.8875 24.4757 41.5477 32.2466C38.3568 36.8701 36.3815 43.2735 36.1428 49.8071C35.8823 56.7098 37.5537 63.0481 40.8314 67.6933C42.1338 69.5383 45.0641 71.6439 47.4735 73.1416C47.0828 74.6828 47.0177 76.1588 47.3433 77.4395C48.1682 80.7389 51.2071 86.5345 53.8335 90.8107C54.984 92.6991 56.981 93.8713 59.8028 94.3271C58.1965 94.3922 56.6554 94.2186 55.3964 93.8496C49.6008 92.1348 41.9384 91.9394 38.8995 91.9394H1.3256C1.15195 91.9394 1 92.0913 1 92.265C1 92.4386 1.15195 92.5906 1.3256 92.5906H38.9429C41.9384 92.5906 49.5357 92.7642 55.2445 94.4791C56.3732 94.8264 57.7407 95 59.1733 95C60.4323 95 61.7564 94.8698 63.0371 94.5659C65.2946 94.5442 67.8993 94.1969 70.8514 93.5457C72.9352 93.0898 77.4068 92.6123 79.7076 92.6123H91.147C91.3423 92.7642 91.5594 92.8945 91.7981 93.0464C95.6185 95.3039 101.87 94.4356 104.757 92.6123H159.262C159.436 92.6123 159.587 92.4603 159.587 92.2867C159.587 92.0696 159.436 91.9177 159.262 91.9177ZM108.773 1.74901C111.746 1.59707 113.179 2.18314 113.743 2.55215C115.48 3.65918 116.761 5.82983 117.368 8.62996C118.367 13.3403 117.368 18.9188 114.785 22.8694C114.612 23.1516 114.395 23.3035 114.112 23.3687C112.984 23.6074 110.943 22.2616 108.121 20.3949C104.41 17.942 99.0698 14.4256 92.0803 12.2549C93.1222 7.21904 100.958 2.16144 108.773 1.74901ZM46.6921 23.9547C46.1712 24.5842 45.6285 25.2354 45.4548 25.2788C43.2408 25.2788 41.6128 21.7841 41.3306 16.3575C41.1353 12.6891 41.6562 5.15693 45.0207 2.79092C46.1495 1.98779 47.6255 1.66219 49.2535 1.66219C52.3141 1.66219 55.9391 2.87775 58.9346 4.52744C62.7115 6.63297 65.4031 9.32457 66.3148 11.8208C54.3328 14.6861 49.0364 21.1112 46.6921 23.9547ZM79.7076 91.9177C77.3851 91.9177 72.8484 92.3952 70.7212 92.8728C68.7676 93.3069 67.0311 93.5891 65.4899 93.741C66.2713 93.3937 66.9877 93.003 67.6171 92.5038C68.2683 92.0045 68.7242 91.527 69.18 91.0928C69.8746 90.3982 70.5041 89.7253 71.8933 88.9222C73.912 87.7283 76.4517 87.2508 78.9696 87.2508C81.6178 87.2508 84.2877 87.7718 86.3715 88.5532C87.8693 89.1176 88.5856 89.9424 89.367 90.8324C89.6709 91.2014 89.9965 91.5704 90.3655 91.9177H79.7076ZM92.3625 92.5689H103.411C100.502 93.8496 95.5317 94.2837 92.3625 92.5689ZM104.583 91.9177H91.364C90.7562 91.4402 90.3004 90.9192 89.8446 90.3982C89.0631 89.4866 88.2383 88.5532 86.5886 87.9237C82.3558 86.3391 75.8439 85.7965 71.546 88.3361C70.07 89.2044 69.3754 89.9207 68.6808 90.6153C68.2466 91.0711 67.8125 91.5053 67.2047 91.9611C66.0326 92.8511 64.5782 93.4588 63.0371 93.8496C57.8492 93.893 55.4615 92.1782 54.3979 90.4416C51.7931 86.2089 48.7976 80.5001 47.9728 77.2441C47.6906 76.1154 47.7123 74.813 48.0379 73.4455C49.2752 74.1835 50.2954 74.7045 50.838 74.8998C59.8245 78.3294 69.0064 79.3931 77.4285 77.9604C85.6335 76.5712 92.4276 72.816 96.5953 67.3677C100.155 62.7442 100.285 56.0803 96.9209 50.8273C93.2091 44.9883 85.7203 42.9262 80.4457 42.9262C73.3694 42.9262 67.6606 45.0968 63.8836 49.1994C61.7781 51.4785 60.1935 55.1252 60.454 58.989C57.0895 60.5084 54.2026 62.7659 52.0753 65.0885C49.883 67.4762 48.3418 70.0376 47.6038 72.447C45.2812 71.0144 42.5462 69.0174 41.3089 67.2808C34.276 57.361 36.0125 41.3199 42.0252 32.5939C47.2782 24.9749 55.5918 20.9375 61.1052 18.2676C64.7519 16.5094 67.1613 15.3373 67.2481 13.9046C67.2698 13.362 67.2264 12.7976 67.0962 12.2549C70.6343 11.4518 74.7152 10.9743 79.4906 10.9743C83.8753 10.9743 87.8042 11.6255 91.2989 12.6674C91.2772 12.841 91.2772 12.993 91.2555 13.1666C91.147 16.7916 94.468 17.8552 99.0481 19.3095C104.865 21.1546 112.832 23.6943 118.302 33.0714C124.336 43.4254 123.88 56.7098 120.711 65.2839C116.392 77.0271 110.726 84.2119 107.318 88.5315C106.515 89.5517 105.821 90.4199 105.343 91.1146C105.234 91.3967 104.952 91.6572 104.583 91.9177ZM70.0483 59.9441C69.4839 60.7255 69.4839 61.5069 70.0483 62.0713C70.6995 62.7225 72.0887 62.9178 73.2174 62.093C73.695 61.7457 73.7384 60.7038 73.5213 59.8789C73.4779 59.7053 73.4345 59.5316 73.3694 59.358C75.8873 58.989 79.6425 59.0107 82.79 59.5316C83.528 59.6619 84.1792 59.7921 84.7436 59.9441C84.6133 60.248 84.5265 60.5518 84.4831 60.8557C84.3528 61.5503 84.3962 62.4186 84.8738 62.8093C85.3513 63.2 86.5669 63.2652 87.2615 62.7876C87.5654 62.5705 88.0429 62.0713 87.739 61.1162C87.5437 60.5084 86.8491 59.9875 85.6769 59.5533C85.9157 59.206 86.263 58.9022 86.6754 58.7502C87.2181 58.5548 87.9778 58.6634 88.7158 59.0324C89.5407 59.4448 90.1919 60.096 90.4089 60.7038C90.9082 62.2449 90.2353 64.98 88.2383 66.7165C87.3483 67.4979 80.7713 71.3834 72.8484 69.9724C67.3567 68.9957 63.4495 66.2389 61.9083 62.2015C61.5393 61.2682 61.3223 60.3131 61.2137 59.3797C64.2309 58.099 67.5954 57.4695 71.0468 58.0339C71.6545 58.1424 72.067 58.468 72.3492 58.837C71.2421 59.1192 70.3956 59.4665 70.0483 59.9441ZM72.6965 59.4665C72.7833 59.6836 72.8484 59.8789 72.8701 60.0309C73.0655 60.8774 72.9135 61.4852 72.805 61.572C72.0019 62.1798 70.9599 62.0713 70.4824 61.6155C70.1568 61.2899 70.1785 60.834 70.5475 60.3348C70.8297 59.9658 71.6111 59.6836 72.6965 59.4665ZM85.1343 60.986C85.1777 60.7255 85.2645 60.4433 85.373 60.1611C86.3715 60.5084 87.001 60.9209 87.1313 61.3333C87.2615 61.7674 87.1964 62.0713 86.8925 62.2666C86.3932 62.614 85.5033 62.5054 85.2645 62.3101C85.1126 62.1798 85.004 61.6806 85.1343 60.986ZM61.3006 62.462C62.9503 66.7165 67.0094 69.6251 72.7399 70.6236C81.01 72.078 87.6956 68.0623 88.6724 67.2157C90.6694 65.4792 91.6896 62.5271 91.0167 60.5084C90.7562 59.727 89.9748 58.9456 88.998 58.4463C88.0863 57.9905 87.1964 57.8819 86.4584 58.1424C85.8289 58.3595 85.3513 58.8153 85.0257 59.3363C84.418 59.1626 83.6799 59.0107 82.8768 58.8587C80.0332 58.4029 75.8873 58.251 73.0438 58.7068C72.6096 57.9905 71.9367 57.5129 71.1336 57.3827C67.6171 56.8183 64.2092 57.4261 61.1269 58.6851C60.9316 55.1035 62.4293 51.739 64.3829 49.5901C68.9629 44.5976 75.6485 43.534 80.4674 43.534C85.5684 43.534 92.8184 45.531 96.3782 51.1312C99.5908 56.1671 99.4605 62.5271 96.0743 66.9335C92.0152 72.2299 85.3513 75.92 77.2982 77.2658C69.0064 78.6767 59.9331 77.6131 51.0551 74.2269C50.5125 74.0316 49.4488 73.4672 48.1899 72.7292C48.8845 70.3849 50.4039 67.8235 52.5746 65.4575C54.5933 63.2434 57.35 61.0728 60.5408 59.5968C60.7145 60.617 60.9533 61.5503 61.3006 62.462Z" fill="#2C3D55" stroke="#2C3D55" stroke-width="0.5" stroke-miterlimit="10"/>
<path d="M70.9817 38.5415C71.9168 38.5415 72.6748 37.7835 72.6748 36.8484C72.6748 35.9133 71.9168 35.1553 70.9817 35.1553C70.0466 35.1553 69.2886 35.9133 69.2886 36.8484C69.2886 37.7835 70.0466 38.5415 70.9817 38.5415Z" fill="#2C3D55" stroke="#2C3D55" stroke-width="0.5" stroke-miterlimit="10"/>
<path d="M87.522 38.5415C88.457 38.5415 89.2151 37.7835 89.2151 36.8484C89.2151 35.9133 88.457 35.1553 87.522 35.1553C86.5869 35.1553 85.8289 35.9133 85.8289 36.8484C85.8289 37.7835 86.5869 38.5415 87.522 38.5415Z" fill="#2C3D55" stroke="#2C3D55" stroke-width="0.5" stroke-miterlimit="10"/>
</svg>
