<svg width="35" height="38" viewBox="0 0 35 38" fill="none" xmlns="http://www.w3.org/2000/svg">
<path d="M26.6666 1L34 36.4444" stroke="#2C3D55" stroke-width="1.2" stroke-miterlimit="10" stroke-linecap="round"/>
<path d="M18.1111 34.6112V26.0557" stroke="#2C3D55" stroke-width="1.2" stroke-miterlimit="10"/>
<path d="M18.1111 19.3333V12" stroke="#2C3D55" stroke-width="1.2" stroke-miterlimit="10"/>
<path d="M18.1111 6.49992V2.83325" stroke="#2C3D55" stroke-width="1.2" stroke-miterlimit="10"/>
<path d="M14.4444 18.1111C14.4444 14.3834 11.45 11.3889 7.72222 11.3889C3.99444 11.3889 1 14.3834 1 18.1111C1 24.2222 7.72222 29.7222 7.72222 29.7222C7.72222 29.7222 14.4444 24.2222 14.4444 18.1111Z" stroke="#2C3D55" stroke-width="1.2" stroke-miterlimit="10"/>
<path d="M7.72218 21.1668C9.40972 21.1668 10.7777 19.7988 10.7777 18.1112C10.7777 16.4237 9.40972 15.0557 7.72218 15.0557C6.03464 15.0557 4.66663 16.4237 4.66663 18.1112C4.66663 19.7988 6.03464 21.1668 7.72218 21.1668Z" stroke="#2C3D55" stroke-width="1.2" stroke-miterlimit="10"/>
<path d="M7.90564 8.94444L9.55564 1" stroke="#2C3D55" stroke-width="1.2" stroke-miterlimit="10" stroke-linecap="round"/>
<path d="M2.22217 36.4445L3.68883 29.2334" stroke="#2C3D55" stroke-width="1.2" stroke-miterlimit="10" stroke-linecap="round"/>
</svg>
