<svg width="174" height="63" viewBox="0 0 174 63" fill="none" xmlns="http://www.w3.org/2000/svg">
<path d="M108.544 61.9807C108.459 61.9807 108.383 61.9227 108.352 61.8358C108.321 61.7344 108.361 61.6233 108.446 61.575C109.776 60.7927 110.916 59.7883 111.841 58.5956C112.58 57.6394 113.181 56.5577 113.626 55.3746C113.75 55.0414 113.857 54.7179 113.946 54.4136C113.199 54.4909 112.54 54.5633 111.984 54.6213C110.043 59.2571 107.173 59.6579 105.273 59.9235C104.031 60.0974 102.741 59.8125 101.535 59.1026C100.435 58.4555 99.5008 57.5042 98.9 56.4225C98.8778 56.3839 98.8689 56.3452 98.8733 56.3018L98.9534 54.1577C98.9579 54.0659 99.0157 53.9839 99.1003 53.9597C99.1848 53.9356 99.2738 53.9694 99.3228 54.0466C99.3272 54.0563 99.9414 55.0221 100.96 55.9541C101.891 56.804 103.355 57.7939 105.072 57.707C106.519 57.6346 107.698 57.1951 108.566 56.408C109.269 55.7706 109.629 55.0317 109.839 54.5295C109.87 54.4571 109.928 54.4088 109.999 54.404C110.168 54.3847 110.769 54.317 111.712 54.2156C112.317 52.6993 112.789 50.8112 113.114 48.5995C113.448 46.3347 113.279 44.0989 112.616 41.9548C112.086 40.2357 111.236 38.5697 110.092 37.0002C108.139 34.3201 105.98 32.8425 105.958 32.828C105.9 32.7893 105.865 32.7266 105.865 32.6541C105.86 32.5817 105.891 32.5141 105.945 32.4706C107.298 31.3696 110.137 31.2682 110.257 31.2634C110.301 31.2634 110.346 31.2779 110.382 31.3068C111.832 32.4561 112.98 34.1656 113.795 36.3821C114.44 38.1447 114.881 40.2357 115.103 42.5971C115.415 45.958 115.188 48.9279 115.103 49.8164L136.34 47.4502C136.798 40.8683 136.914 34.5616 136.682 28.6943C136.656 27.9652 136.62 27.2408 136.58 26.5261C127.951 27.5257 117.626 28.9648 107.102 30.9785C106.982 31.0123 104.81 31.6932 102.656 34.9286C101.357 36.8795 100.315 39.3664 99.5676 42.317C98.6286 46.0112 98.139 50.4538 98.1212 55.5098C98.1212 55.6209 98.0411 55.7175 97.9388 55.7271C97.8809 55.732 95.6647 55.9396 91.891 56.1521C92.0823 56.5674 92.2915 56.9778 92.5095 57.3835C93.9781 60.0829 95.5668 61.5847 95.5846 61.5992C95.6469 61.6571 95.6692 61.7537 95.6425 61.8406C95.6113 61.9276 95.5401 61.9807 95.4556 61.9807H54.4603C54.3579 61.9807 54.2734 61.8986 54.26 61.7875C54.2467 61.6765 54.3134 61.575 54.4113 61.5509C57.2951 60.7783 59.1864 59.3006 60.2634 58.1899C61.4338 56.9875 61.9277 55.9541 61.9366 55.9444C61.9722 55.8672 62.0434 55.8237 62.1235 55.8285C74.2236 56.4225 84.8107 56.099 91.2724 55.7513C90.8229 54.6985 90.4624 53.6168 90.191 52.511C89.9774 51.637 89.8172 50.7532 89.7193 49.855L77.2676 50.0096C77.2008 50.0096 77.1341 49.9709 77.094 49.9082C77.0584 49.8454 77.054 49.7633 77.0851 49.6957C77.4723 48.8506 78.3089 47.6337 80.0935 46.61C81.1526 46.0015 82.0338 45.7552 82.0738 45.7407C82.0872 45.7359 82.1005 45.7359 82.1183 45.7359L89.8572 45.4703C89.9151 45.4703 89.9685 45.4945 90.0085 45.5379C90.0486 45.5814 90.0664 45.6442 90.0619 45.7069C89.9596 46.9528 89.9685 48.1987 90.0797 49.4204L91.4192 49.4059C91.5171 48.7251 91.8153 46.2236 91.0098 44.9198C91.0009 44.9053 90.9965 44.8908 90.9876 44.8763C90.9742 44.8377 90.5781 43.8623 88.629 43.9443C88.2284 43.9588 87.2761 44.0216 85.9633 44.1037C80.5607 44.4369 68.2114 45.1999 58.955 45.1999C58.5456 45.1999 58.1451 45.1999 57.7534 45.1951C46.3387 45.1081 37.7943 43.1572 37.7097 43.1379C37.6341 43.1186 37.5762 43.0558 37.5584 42.9737C37.5451 42.9061 37.2024 41.3415 37.2113 39.3713C37.2202 37.7391 37.4739 36.3242 37.9545 35.1749C37.6118 34.9527 37.3582 34.7644 37.2069 34.6437C36.1032 36.2083 35.8495 39.1443 36.4726 43.1572C36.5527 43.6643 36.6417 44.1568 36.7351 44.6301L40.322 45.026C40.3398 45.026 40.3621 45.0357 40.3799 45.0405C40.411 45.055 41.1987 45.4172 42.1021 46.1995C42.9432 46.9238 44.0424 48.1504 44.5274 49.913C44.5452 49.9806 44.5319 50.0579 44.4874 50.1158C44.4429 50.1738 44.3761 50.2027 44.3138 50.1931L37.6474 49.3915C37.5718 49.3818 37.505 49.3239 37.4783 49.2466C37.4694 49.2224 36.8909 47.4164 36.4058 45.0309L35.6626 44.9488C35.9786 49.4204 36.9843 53.6024 37.1713 54.3557L39.5299 55.0366C39.5922 55.0559 39.6411 55.0994 39.6634 55.1621C40.1173 56.3501 40.905 57.4221 41.9997 58.3541C42.8809 59.1026 43.9667 59.7642 45.2217 60.3147C47.3667 61.2563 49.2803 61.5509 49.3025 61.5509C49.4049 61.5654 49.4805 61.6668 49.4761 61.7827C49.4672 61.8986 49.3826 61.9855 49.2758 61.9855H1.20026C1.089 61.9855 1 61.8889 1 61.7682C1 61.6475 1.089 61.5509 1.20026 61.5509H47.3889C46.7125 61.3577 45.9115 61.0873 45.0748 60.7203C43.7843 60.1553 42.6673 59.4744 41.755 58.7018C40.6335 57.7505 39.8236 56.6495 39.3341 55.4326L36.9576 54.7468C36.8909 54.7275 36.8375 54.6696 36.8152 54.5971C36.8019 54.5488 35.5692 49.7826 35.2443 44.7266C35.2399 44.6639 35.2621 44.6011 35.3066 44.5576C35.3511 44.5142 35.409 44.49 35.4668 44.4997L36.3168 44.5914C36.2323 44.1568 36.1522 43.7029 36.081 43.2441C35.7872 41.356 35.6804 39.6803 35.765 38.2751C35.8762 36.4884 36.299 35.1218 37.0199 34.2091C37.0912 34.1221 37.2113 34.1077 37.2959 34.1801C37.3048 34.1898 37.6029 34.4409 38.1325 34.7837C38.3951 34.2477 38.7155 33.7841 39.0893 33.393C39.1516 33.3302 39.2406 33.3157 39.3163 33.3543C39.3341 33.364 40.8382 34.1415 43.2547 35.0397C43.2458 34.9576 43.2324 34.8755 43.2146 34.7886C42.9521 33.4509 41.9018 32.0602 40.1662 30.7418C38.7911 31.9684 38.1592 32.7845 38.1458 32.799C38.0924 32.8714 37.999 32.8956 37.9189 32.8618C37.8388 32.828 37.7898 32.7411 37.7943 32.6445C37.8833 31.2103 39.5432 30.0272 39.6144 29.974C39.6812 29.9257 39.7657 29.9257 39.8325 29.974C39.9393 30.0465 40.0416 30.1237 40.144 30.1962C41.1141 29.3511 42.4136 28.3322 44.0869 27.2456C46.6324 25.5941 49.5117 24.1213 52.6535 22.8802C56.5563 21.3349 60.873 20.1373 65.4834 19.3212C65.8172 19.0025 67.9845 16.9309 71.0818 14.4488C74.1791 11.9667 78.8652 8.54774 83.6047 6.37468C83.6136 6.36985 83.6269 6.36503 83.6358 6.36503C83.6492 6.3602 84.0808 6.25396 84.8952 6.08977C87.9881 4.43342 90.9164 3.35173 93.6087 2.87848C100.333 1.69538 108.931 1 116.732 1C116.95 1 117.164 1 117.382 1C124.471 1.0338 134.475 1.67123 141.867 4.4962C148.498 7.03143 151.751 10.6145 154.367 13.4975C156.957 16.3514 159 18.6017 163.214 18.7756C163.272 18.7756 163.326 18.8045 163.361 18.8528C163.428 18.9446 165.048 21.0742 165.462 23.8702C165.471 23.9329 165.457 23.9957 165.417 24.044C165.382 24.0923 165.328 24.1213 165.27 24.1213C165.199 24.1261 158.07 24.4207 147.381 25.4155C144.354 25.6955 140.843 26.0529 136.98 26.4971C137.02 27.2167 137.056 27.941 137.083 28.675C137.319 34.6147 137.198 41.0083 136.727 47.682C136.718 47.7882 136.642 47.8703 136.549 47.88L114.899 50.2897C114.836 50.2945 114.778 50.2703 114.734 50.2269C114.689 50.1786 114.672 50.111 114.68 50.0482C114.685 50.0144 115.077 46.6051 114.707 42.6453C114.489 40.3274 114.062 38.2751 113.425 36.5511C112.651 34.4409 111.565 32.8135 110.208 31.7125C109.799 31.7318 107.645 31.8767 106.434 32.6541C107.075 33.1322 108.788 34.5133 110.408 36.7298C111.583 38.3379 112.455 40.0522 113.003 41.8196C113.688 44.0361 113.862 46.3444 113.519 48.6816C113.185 50.9512 112.722 52.7476 112.175 54.177C112.722 54.1191 113.363 54.0466 114.075 53.9742C114.409 52.68 114.436 51.7818 114.436 51.7673C114.44 51.6611 114.511 51.5693 114.609 51.5597C114.836 51.5307 137.403 48.4305 143.193 48.1649C146.277 48.0249 148.039 49.0051 148.978 49.855C150.011 50.7919 150.295 51.7577 150.309 51.8011C150.331 51.8784 150.313 51.9605 150.26 52.0184C150.211 52.0764 150.135 52.0957 150.064 52.0764C146.82 51.1106 124.061 53.3657 114.387 54.3847C114.284 54.7517 114.155 55.1428 114 55.5581C113.381 57.1855 112.193 59.3585 109.941 61.097C110.275 60.9521 110.649 60.7686 111.045 60.5368C112.34 59.7787 114.155 58.3203 115.446 55.6981C115.477 55.6305 115.544 55.5871 115.611 55.5823L146.232 53.8873C146.33 53.8824 146.415 53.9549 146.437 54.0563C146.442 54.0659 146.686 55.2104 147.305 56.3742C148.115 57.9002 149.147 58.7453 150.367 58.8901H156.681C156.784 58.8708 157.75 58.6776 158.813 57.5283C159.69 56.5819 160.793 54.8048 161.443 51.5549H160.651C160.495 52.4965 159.694 56.5722 157.5 56.5722C157.416 56.5722 157.331 56.5674 157.247 56.5529C154.634 56.1907 153.869 51.7577 153.62 50.3041C153.517 49.7102 153.379 47.4743 153.526 44.9971C153.655 42.8192 154.047 39.859 155.164 38.1447C155.689 37.3383 156.334 36.865 157.078 36.7395C157.736 36.6284 158.355 36.8167 158.92 37.2948C160.019 38.2365 160.9 40.284 161.537 43.389C161.701 44.2003 161.83 44.9778 161.924 45.649C162.115 42.2783 162.204 35.7785 160.273 33.306C159.797 32.6976 159.24 32.3837 158.577 32.3451C158.533 32.3451 158.484 32.3402 158.439 32.3402C153.753 32.3402 151.889 45.2482 151.871 45.3786C151.853 45.4945 151.76 45.5717 151.653 45.5621C151.546 45.5524 151.466 45.451 151.475 45.3351C151.564 43.5967 153.566 33.958 154.536 31.4179C155.489 28.9165 154.941 26.1253 154.937 26.1012C154.924 26.0384 154.937 25.9756 154.973 25.9225C155.008 25.8694 155.062 25.8404 155.119 25.8356L165.902 25.2126C165.982 25.2078 166.062 25.2561 166.094 25.3382C167.309 28.2114 167.958 33.1322 167.843 38.5069C167.754 42.6067 167.157 47.1894 166.04 48.1939C164.434 49.6329 162.729 49.7681 162.151 49.7681C162.146 49.7681 162.142 49.7681 162.137 49.7681C162.08 50.2317 162.013 50.6808 161.937 51.1154H172.911C173.023 51.1154 173.112 51.212 173.112 51.3327C173.112 51.4535 173.023 51.55 172.911 51.55H161.862C161.612 52.8152 161.287 53.9452 160.878 54.9352C160.388 56.1279 159.779 57.113 159.076 57.8664C157.856 59.1654 156.77 59.3151 156.726 59.3247C156.717 59.3247 156.708 59.3247 156.704 59.3247H150.367C150.358 59.3247 150.353 59.3247 150.344 59.3247C149 59.1702 147.83 58.2237 146.962 56.5819C146.455 55.6257 146.192 54.7082 146.099 54.3315L115.753 56.012C114.413 58.668 112.558 60.1505 111.227 60.928C109.763 61.7827 108.628 61.9903 108.584 62C108.566 61.9759 108.553 61.9807 108.544 61.9807ZM55.8443 61.5461H94.9527C94.3831 60.9376 93.2616 59.6048 92.1802 57.6201C91.9221 57.1468 91.6818 56.664 91.4637 56.1762C85.0332 56.5239 74.4017 56.8571 62.2348 56.268C62.0657 56.5867 61.5495 57.4752 60.5615 58.4893C59.6136 59.4599 58.0828 60.701 55.8443 61.5461ZM99.2783 56.2535C100.351 58.1368 102.718 59.8414 105.224 59.4889C106.425 59.3199 108.067 59.0929 109.549 57.6539C110.31 56.9151 110.978 55.9106 111.525 54.6647C110.835 54.742 110.364 54.7903 110.159 54.8144C109.928 55.3456 109.54 56.0845 108.824 56.7316C107.885 57.5815 106.63 58.0547 105.095 58.132C103.631 58.2092 102.109 57.5621 100.698 56.2728C100.088 55.7175 99.6254 55.1573 99.3361 54.771L99.2783 56.2535ZM157.451 37.1161C157.349 37.1161 157.247 37.1258 157.144 37.1451C156.508 37.2513 155.956 37.6666 155.493 38.3717C153.477 41.4671 153.824 49.0776 154.016 50.1979C154.256 51.579 154.981 55.7754 157.3 56.099C159.543 56.4128 160.282 51.3327 160.286 51.2796C160.299 51.1734 160.384 51.0961 160.482 51.0961H161.528C161.617 50.5987 161.697 50.0675 161.764 49.4977C161.777 49.3818 161.875 49.2997 161.977 49.3094C161.995 49.3094 163.98 49.4591 165.787 47.8414C166.641 47.0735 167.34 43.1379 167.442 38.4779C167.558 33.2481 166.939 28.4674 165.787 25.6328L155.369 26.2364C155.484 26.9994 155.747 29.3559 154.901 31.5628C154.465 32.7024 153.807 35.3729 153.21 38.0819C153.816 36.3387 154.496 34.9383 155.226 33.9242C156.245 32.5093 157.38 31.8235 158.591 31.8863C159.36 31.925 160.028 32.3016 160.571 32.997C161.732 34.4843 162.351 37.43 162.409 41.7423C162.453 44.9343 162.155 47.7303 162.155 47.7593C162.142 47.8703 162.057 47.9524 161.955 47.9524C161.853 47.9524 161.768 47.8655 161.759 47.7544C161.755 47.6723 161.132 39.719 158.666 37.6087C158.288 37.2803 157.883 37.1161 157.451 37.1161ZM90.1198 49.8502C90.2177 50.705 90.369 51.5549 90.5737 52.3903C90.8541 53.5299 91.2323 54.6454 91.6996 55.7319C94.9749 55.5484 97.1066 55.3698 97.7207 55.3118C97.7519 50.28 98.2458 45.8615 99.1893 42.1673C99.9592 39.1636 101.023 36.6284 102.358 34.6389C104.65 31.2199 106.915 30.5825 107.008 30.5583C107.013 30.5583 107.017 30.5583 107.022 30.5535C113.746 29.269 123.821 27.5692 136.553 26.0915C136.335 22.3249 135.966 18.7514 135.458 15.4484C134.395 8.54291 133.064 5.15777 133.051 5.12397C133.02 5.05154 133.033 4.96461 133.078 4.90184C133.122 4.83906 133.198 4.81009 133.269 4.81974L135.654 5.26401C135.708 5.27367 135.757 5.30747 135.788 5.36059C136.851 7.13284 138.307 10.1558 139.179 14.4874C139.602 16.5784 139.726 18.1913 139.757 18.7514H152.623C150.914 13.5458 147.14 10.1944 144.248 8.2918C140.799 6.01734 136.651 4.48654 132.882 4.09056C131.351 3.93121 129.967 4.0471 128.779 4.43825C127.831 4.74731 127.003 5.23021 126.313 5.87247C125.143 6.95899 124.782 8.13244 124.778 8.1421L122.967 14.6226C123.835 14.0866 124.769 13.8258 125.748 13.8403C128.538 13.8886 130.474 14.2218 131.836 14.8882C133.38 15.6415 134.177 16.8295 134.257 18.5148C134.261 18.5728 134.244 18.6307 134.208 18.6742C134.172 18.7176 134.123 18.7418 134.07 18.7466L133.046 18.8045C133.251 19.6593 133.113 20.3257 133.104 20.3643C133.082 20.4561 133.011 20.5237 132.922 20.5285L124.689 21.1514C124.609 21.1563 124.533 21.108 124.498 21.0307C124.462 20.9535 124.471 20.8569 124.524 20.7893L126.086 18.8239C126.122 18.7804 126.171 18.7514 126.229 18.7466L132.49 18.3989C132.392 18.1575 132.259 17.9112 132.081 17.6697C131.591 17.0082 130.852 16.4818 129.882 16.11C128.667 15.6464 127.083 15.4194 125.174 15.4387C124.004 15.4484 123.06 15.8637 122.375 16.6605C122.313 16.7329 122.21 16.7522 122.13 16.6991C122.05 16.6508 122.01 16.5446 122.037 16.448L122.246 15.7043C121.618 16.279 121.035 17.0275 120.51 17.9305C119.424 19.7897 118.948 21.6923 118.944 21.7116C118.921 21.7937 118.859 21.8565 118.779 21.871C114.271 22.6243 110.137 23.8605 106.497 25.5555C103.586 26.9076 100.983 28.5495 98.7532 30.4376C98.4639 30.6791 98.1924 30.9205 97.9299 31.162C98.2503 31.2199 98.4283 31.2634 98.4595 31.273C98.5485 31.2972 98.6108 31.3793 98.6152 31.4759C98.6197 31.5724 98.5618 31.6642 98.4728 31.6932C97.9477 31.867 97.4048 32.0408 96.8485 32.2099C94.4943 34.6195 93.582 36.4739 93.5687 36.498C93.542 36.5511 93.4975 36.5898 93.4441 36.6091C91.5305 37.1741 88.3263 37.8453 83.934 37.8453C81.3084 37.8453 79.4704 37.599 79.4526 37.599C79.3903 37.5894 79.3369 37.5507 79.3058 37.4928C79.2746 37.4348 79.2702 37.3624 79.2924 37.2996C79.4615 36.8602 79.6885 36.4352 79.9644 36.0344C78.9854 36.1986 77.993 36.3532 76.9961 36.5028C69.7823 37.5797 62.4929 38.2268 57.4998 38.2268C54.7184 38.2268 50.2282 37.8357 44.6609 35.9861C44.3183 35.8702 43.989 35.7592 43.673 35.6433C43.633 36.4014 43.3615 36.8554 43.3437 36.8795C43.3036 36.9423 43.2369 36.9809 43.1612 36.9761C41.0785 36.8167 39.3697 36.0344 38.2927 35.3922C37.1268 38.2075 37.7631 41.9838 37.91 42.7371C39.0092 42.9785 47.1308 44.6784 57.749 44.7604C67.0989 44.8329 80.2982 44.0168 85.9366 43.6691C87.2538 43.587 88.2062 43.5291 88.6112 43.5097C90.7161 43.4228 91.2679 44.5045 91.348 44.6928C92.3582 46.3588 91.8019 49.5267 91.7797 49.6619C91.7619 49.7633 91.6818 49.8357 91.5839 49.8357L90.1198 49.8502ZM114.827 51.9508C114.805 52.2744 114.734 52.9842 114.502 53.9114C123.981 52.9118 145.351 50.7919 149.775 51.5452C149.606 51.2023 149.281 50.6663 148.702 50.1496C147.817 49.3577 146.148 48.445 143.211 48.5754C137.701 48.8313 116.897 51.6659 114.827 51.9508ZM37.8165 48.9665L44.0468 49.7198C43.1256 46.9287 40.5356 45.591 40.2463 45.451L36.8241 45.0743C37.2247 47.0011 37.6786 48.5222 37.8165 48.9665ZM82.1495 46.1657C81.8735 46.2478 78.9142 47.1798 77.6013 49.5701L89.6748 49.4204C89.5679 48.2615 89.5546 47.088 89.6391 45.9098L82.1495 46.1657ZM43.673 35.1749C44.029 35.3053 44.4028 35.4308 44.79 35.5612C47.8339 36.5753 52.5156 37.7825 57.5042 37.7825C62.4796 37.7825 69.7512 37.1403 76.9472 36.0634C78.0953 35.8896 79.2346 35.7109 80.356 35.5226C81.2194 34.4892 82.461 33.6006 84.0675 32.8618C86.0122 31.9684 88.4999 31.3213 91.0721 31.0412C94.0048 30.7225 96.2032 30.9012 97.4092 31.075C97.7519 30.7563 98.1168 30.428 98.5084 30.0948C100.765 28.1825 103.395 26.5213 106.341 25.1547C109.981 23.4645 114.102 22.2235 118.592 21.4653C118.721 20.9873 119.206 19.3599 120.163 17.7132C120.822 16.5832 121.569 15.6802 122.379 15.0379C122.402 15.0186 122.424 15.0041 122.442 14.9896L124.4 8.01655C124.417 7.9586 124.805 6.71271 126.055 5.54892C126.789 4.86803 127.666 4.35616 128.667 4.02779C129.909 3.62215 131.342 3.50142 132.926 3.66561C136.758 4.06642 140.963 5.62136 144.466 7.92962C148.769 10.7642 151.755 14.5647 153.104 18.9108C153.126 18.9784 153.112 19.0508 153.077 19.1088C153.041 19.1667 152.979 19.2005 152.912 19.2005H139.575C139.468 19.2005 139.379 19.1088 139.375 18.9929C139.375 18.9736 139.308 17.1434 138.792 14.5888C138.32 12.2564 137.368 8.82782 135.503 5.69379L133.554 5.32679C133.923 6.37951 134.978 9.69704 135.85 15.3615C136.362 18.679 136.731 22.2669 136.954 26.0529C140.247 25.6762 143.714 25.3092 147.345 24.9712C156.971 24.0778 163.717 23.7446 165.021 23.6867C164.616 21.4025 163.375 19.5772 163.099 19.1957C158.791 18.988 156.708 16.6894 154.074 13.792C152.774 12.3626 151.306 10.7401 149.365 9.18999C147.14 7.41292 144.644 6.00768 141.729 4.89701C137.679 3.3469 130.163 1.48773 117.377 1.42495C109.425 1.38632 100.564 2.08653 93.671 3.29861C91.397 3.69941 88.9494 4.53966 86.3772 5.80003C88.1305 5.49098 90.6894 5.10948 93.9425 4.81009C99.9681 4.25958 109.683 3.89257 121.734 5.2785C121.796 5.28333 121.85 5.32196 121.881 5.37991C121.912 5.43786 121.921 5.50546 121.899 5.56824L118.695 15.4677C118.668 15.6077 118.468 16.4432 117.573 17.2931C116.323 18.481 114.364 19.1233 111.757 19.2005C109.839 19.2536 106.652 19.1474 102.616 19.0122C93.8713 18.7176 80.6586 18.2734 68.7944 19.2005C68.7098 19.2054 68.6342 19.1571 68.5986 19.075C68.563 18.9929 68.5808 18.8963 68.6386 18.8287C68.6698 18.7949 71.8739 15.3373 76.5244 11.6624C78.8074 9.86123 81.0636 8.29663 83.2442 7.00728C80.6186 8.26765 76.5422 10.6049 71.3177 14.7916C67.98 17.4669 65.7282 19.6593 65.706 19.6786C65.6793 19.7076 65.6437 19.7269 65.6036 19.7317C61.0021 20.543 56.6987 21.7357 52.8048 23.2714C49.6897 24.5028 46.8326 25.9563 44.3138 27.5933C42.7118 28.6364 41.4479 29.6215 40.4911 30.4473C42.2801 31.8235 43.3303 33.2529 43.6107 34.7065C43.6418 34.8658 43.6641 35.0252 43.673 35.1749ZM79.7819 37.1934C81.1526 37.3431 87.4541 37.8984 93.2616 36.2083C93.453 35.8413 94.2674 34.3684 96.0385 32.4513C91.6328 33.7551 86.3015 34.9527 80.5563 35.9282C80.2403 36.329 79.9778 36.7491 79.7819 37.1934ZM38.4796 34.9865C39.5032 35.595 41.123 36.3483 43.0678 36.5222C43.1434 36.3531 43.2725 35.9958 43.2814 35.4888C41.1542 34.7113 39.699 34.0063 39.2717 33.7938C38.9558 34.1511 38.6932 34.5519 38.4796 34.9865ZM94.1917 31.2972C93.2883 31.2972 92.2514 31.3455 91.1122 31.4662C88.58 31.7414 86.1324 32.3789 84.2233 33.2529C82.8837 33.8662 81.8157 34.5857 81.0147 35.4018C86.8578 34.3926 92.2514 33.1515 96.6438 31.8091C96.7595 31.6932 96.8796 31.5724 97.0042 31.4517C96.3056 31.3744 95.3532 31.2972 94.1917 31.2972ZM39.7301 30.399C39.4854 30.5921 38.8712 31.1088 38.4974 31.7511C38.8134 31.4131 39.254 30.9736 39.8236 30.4618C39.788 30.4424 39.7568 30.4231 39.7301 30.399ZM97.5338 31.5338C97.5294 31.5386 97.5249 31.5386 97.5249 31.5435C97.5338 31.5386 97.5427 31.5386 97.5516 31.5338C97.5427 31.5338 97.5383 31.5338 97.5338 31.5338ZM126.34 19.186L125.147 20.6879L132.739 20.1132C132.766 19.8766 132.788 19.3937 132.637 18.8287L126.34 19.186ZM85.1133 18.2009C91.6595 18.2009 97.8186 18.4086 102.629 18.5679C106.657 18.7031 109.839 18.8094 111.743 18.7563C114.85 18.6645 116.469 17.7422 117.279 16.984C118.147 16.1727 118.298 15.3711 118.303 15.3615C118.303 15.3518 118.307 15.3421 118.312 15.3277L121.44 5.66965C109.54 4.32236 99.9458 4.68453 93.9781 5.23021C89.7015 5.62136 86.6353 6.15738 85.0243 6.48092C84.9219 6.53887 84.8151 6.59199 84.7128 6.64994C82.1539 8.05035 79.4838 9.85157 76.7692 11.9956C73.0755 14.9124 70.303 17.689 69.3195 18.7128C74.504 18.3313 79.9333 18.2009 85.1133 18.2009ZM125.401 15.0041C128.877 15.0041 131.231 15.8106 132.401 17.409C132.637 17.7325 132.806 18.0609 132.922 18.3748L133.847 18.3216C133.594 15.5836 131.151 14.3715 125.744 14.2798C124.689 14.2604 123.697 14.5888 122.789 15.2552L122.624 15.8395C123.314 15.2939 124.164 15.0138 125.17 15.0041C125.25 15.0041 125.325 15.0041 125.401 15.0041Z" fill="#2C3D55" stroke="#2C3D55" stroke-width="0.5" stroke-miterlimit="10"/>
</svg>
