<svg width="41" height="38" viewBox="0 0 41 38" fill="none" xmlns="http://www.w3.org/2000/svg">
<path d="M31.1928 11.3074C31.0199 11.3074 30.8687 11.4584 30.8687 11.6311V33.1234C30.8687 33.296 31.0199 33.4471 31.1928 33.4471C31.3657 33.4471 31.5169 33.296 31.5169 33.1234V11.6311C31.5169 11.4584 31.3657 11.3074 31.1928 11.3074Z" fill="#2C3D55"/>
<path d="M36.3241 16C36.1513 16 36 16.1511 36 16.3237V31.7524C36 31.925 36.1513 32.0761 36.3241 32.0761C36.497 32.0761 36.6483 31.925 36.6483 31.7524V16.3237C36.6483 16.1511 36.497 16 36.3241 16Z" fill="#2C3D55"/>
<path d="M25.6396 15.5798C25.4667 15.5798 25.3154 15.7309 25.3154 15.9035V31.3322C25.3154 31.5049 25.4667 31.6559 25.6396 31.6559C25.8124 31.6559 25.9637 31.5049 25.9637 31.3322V15.9035C25.9637 15.7309 25.8124 15.5798 25.6396 15.5798Z" fill="#2C3D55"/>
<path d="M35.0826 8.78251H34.4775V3.21522H34.8881C35.061 3.21522 35.2122 3.06417 35.2122 2.89154V1.76945C35.2122 0.79841 34.4127 0 33.4403 0H28.9455C27.9731 0 27.1736 0.79841 27.1736 1.76945V2.89154C27.1736 3.06417 27.3248 3.21522 27.4977 3.21522H27.9083V8.78251H27.3032C24.1699 8.78251 21.62 11.2856 21.5551 14.393H18.854C18.4866 12.1272 16.8659 10.4656 14.9643 10.4656C13.0627 10.4656 11.442 12.1488 11.0746 14.393H7.78999C6.70952 14.393 5.82354 15.2993 5.82354 16.4214V24.5997C5.82354 25.1391 6.01802 25.6139 6.36377 25.9807H1.93386C1.35041 25.9807 0.875 26.477 0.875 27.1028V34.2022C0.875 34.8279 1.35041 35.3242 1.93386 35.3242C18.8324 35.3242 23.0462 35.3242 24.105 35.3242V36.6621C24.105 37.0074 24.2347 37.3526 24.494 37.6116C24.7533 37.8705 25.0775 38 25.4232 38C26.1579 38 26.763 37.3958 26.763 36.6621V35.3242H35.6228V36.6621C35.6228 37.0074 35.7525 37.3526 36.0118 37.6116C36.2711 37.8705 36.5952 38 36.941 38C37.6757 38 38.2808 37.3958 38.2808 36.6621V35.3027C39.707 35.2164 40.8523 34.0295 40.8523 32.5838V14.544C40.8523 11.3719 38.2592 8.78251 35.0826 8.78251ZM27.8218 2.56786V1.76945C27.8218 1.14367 28.3189 0.647359 28.9455 0.647359H33.4403C34.0669 0.647359 34.564 1.14367 34.564 1.76945V2.56786H33.7428C33.6348 1.89892 33.1377 1.40261 32.5543 1.40261H29.8099C29.2265 1.40261 28.751 1.89892 28.6214 2.56786H27.8218V2.56786ZM33.8292 3.21522V8.78251H28.5566V3.21522H28.9455C29.1184 3.21522 29.2697 3.06417 29.2697 2.86996C29.2697 2.41681 29.529 2.04997 29.8315 2.04997H32.5759C32.8784 2.04997 33.1377 2.41681 33.1377 2.89154C33.1377 3.06417 33.289 3.21522 33.4619 3.21522H33.8292ZM14.9643 11.113C16.5202 11.113 17.8599 12.494 18.1841 14.393H11.7445C12.0686 12.5156 13.4084 11.113 14.9643 11.113ZM11.6797 15.0619H21.5335V25.9807H11.6797V15.0619ZM9.49713 15.0619H11.0314V25.9807H9.47552V15.0619H9.49713ZM6.45021 16.4429C6.45021 15.6877 7.05527 15.0619 7.76838 15.0619H8.82724V25.9807H7.78999C7.05527 25.9807 6.47182 25.3549 6.47182 24.5997V16.4429H6.45021ZM1.52328 27.1028C1.52328 26.8438 1.69616 26.6281 1.93386 26.6281H7.78999H9.17299H11.3555H21.5335V30.318H8.63275V29.0449C8.63275 28.7428 8.39505 28.4838 8.09252 28.4838H5.75871C5.45618 28.4838 5.21848 28.7428 5.21848 29.0449V30.318H1.52328V27.1028ZM7.98447 29.1312V32.1522H5.86676V29.1312H7.98447ZM1.93386 34.6769C1.71776 34.6769 1.52328 34.4611 1.52328 34.2022V30.9869H5.21848V32.2601C5.21848 32.5622 5.45618 32.8211 5.75871 32.8211H8.09252C8.39505 32.8211 8.63275 32.5622 8.63275 32.2601V30.9869H21.5335V32.5838C21.5335 33.4253 21.9225 34.1806 22.506 34.6769C17.1036 34.6769 2.10673 34.6769 1.93386 34.6769ZM26.1147 36.6621C26.1147 37.029 25.8122 37.3526 25.4232 37.3526C25.2503 37.3526 25.0775 37.2879 24.9478 37.1584C24.8182 37.029 24.7533 36.8563 24.7533 36.6837V35.3458H26.1147V36.6621V36.6621ZM37.6325 36.6621C37.6325 37.029 37.33 37.3526 36.941 37.3526C36.7681 37.3526 36.5952 37.2879 36.4656 37.1584C36.3359 37.029 36.2711 36.8563 36.2711 36.6837V35.3458H37.6325V36.6621V36.6621ZM40.204 32.5838C40.204 33.7274 39.2748 34.6769 38.1079 34.6769H24.4292C24.4292 34.6769 24.4076 34.6769 24.386 34.6769H24.2779C23.1326 34.6769 22.1818 33.749 22.1818 32.5838V30.6417V26.3044V14.7382V14.544C22.1818 11.7388 24.4724 9.42987 27.3032 9.42987H35.0826C37.8918 9.42987 40.204 11.7172 40.204 14.544V32.5838Z" fill="#2C3D55"/>
<path d="M19.0055 16.8528C18.8327 16.8528 18.6814 17.0038 18.6814 17.1765V23.9953C18.6814 24.1679 18.8327 24.319 19.0055 24.319C19.1784 24.319 19.3297 24.1679 19.3297 23.9953V17.1765C19.3297 17.0038 19.1784 16.8528 19.0055 16.8528Z" fill="#2C3D55"/>
</svg>
