<svg width="59" height="29" viewBox="0 0 59 29" fill="none" xmlns="http://www.w3.org/2000/svg">
<path d="M47.7644 27.9969H31.1317C31.0864 27.9969 31.0443 27.979 31.0135 27.9467C30.9827 27.9143 30.9665 27.8705 30.9698 27.8268L30.9746 27.7329C31.0054 27.1904 31.088 25.7475 31.3438 23.9792C31.373 23.7848 31.4021 23.5873 31.4345 23.3929C31.4653 23.1986 31.4993 23.0027 31.5349 22.8067C31.849 21.0545 32.2684 19.5016 32.7817 18.1915C33.4342 16.5251 34.2455 15.2426 35.1895 14.3811C35.319 14.2628 35.4566 14.143 35.6218 14.007C35.6866 13.9535 35.7789 13.9584 35.8388 14.0167C36.0752 14.2499 36.3343 14.4604 36.6095 14.6434C36.8297 14.7908 37.0662 14.9219 37.3107 15.0337C37.5228 15.1308 37.7398 15.215 37.9567 15.2798C38.4457 15.4288 38.9526 15.5049 39.4659 15.5049C40.0034 15.5049 40.5362 15.4207 41.0495 15.2555C41.2745 15.1827 41.4931 15.0968 41.6988 14.9964C41.9416 14.8798 42.1797 14.7406 42.408 14.5819C42.646 14.4167 42.8711 14.2305 43.0783 14.028C43.1383 13.9697 43.2322 13.9665 43.2953 14.0199C43.454 14.1527 43.5852 14.2661 43.7082 14.3794C44.6522 15.2426 45.4618 16.5235 46.116 18.1899C46.6293 19.4999 47.0487 21.0529 47.3628 22.8051C47.3984 23.001 47.4308 23.197 47.4632 23.3913C47.4956 23.5873 47.5247 23.7832 47.5539 23.9775C47.8113 25.7459 47.8923 27.1888 47.9247 27.7313L47.9295 27.8252C47.9328 27.8689 47.9166 27.9126 47.8858 27.945C47.8518 27.9774 47.8097 27.9969 47.7644 27.9969ZM31.3033 27.673H47.5944C47.5604 27.0835 47.4745 25.7006 47.2317 24.0245C47.2041 23.8318 47.1734 23.6375 47.1426 23.4431C47.1118 23.2521 47.0778 23.0561 47.0438 22.8618C46.3427 18.9526 45.1137 16.1009 43.4896 14.6175C43.4006 14.5349 43.305 14.4523 43.1982 14.3616C43.0087 14.5381 42.8047 14.7001 42.5926 14.8474C42.3497 15.0159 42.0971 15.1632 41.838 15.2879C41.6194 15.3932 41.3863 15.4855 41.1482 15.5632C40.6042 15.7381 40.0374 15.8272 39.4659 15.8272C38.9218 15.8272 38.381 15.7462 37.8628 15.5875C37.6329 15.5179 37.403 15.4288 37.1763 15.3252C36.9156 15.2053 36.6662 15.0661 36.4314 14.9106C36.1788 14.7422 35.9408 14.5543 35.719 14.3471C35.6056 14.4426 35.5052 14.5317 35.4097 14.6191C33.7856 16.1025 32.5566 18.9542 31.8555 22.8634C31.8215 23.0561 31.7875 23.2521 31.7567 23.4448C31.7259 23.6375 31.6952 23.8318 31.6677 24.0261C31.4215 25.6989 31.3373 27.0819 31.3033 27.673ZM27.7621 27.9969H11.1294C11.0841 27.9969 11.042 27.979 11.0112 27.9467C10.9804 27.9143 10.9642 27.8705 10.9675 27.8268L10.9723 27.7329C11.0031 27.1904 11.0857 25.7475 11.3431 23.9792C11.3707 23.7848 11.4014 23.5873 11.4338 23.3929C11.4646 23.1986 11.4986 23.0027 11.5342 22.8067C11.8483 21.0545 12.2677 19.5016 12.781 18.1915C13.4336 16.5251 14.2448 15.2426 15.1888 14.3811C15.3183 14.2628 15.456 14.143 15.6211 14.007C15.6859 13.9535 15.7782 13.9584 15.8381 14.0167C16.0745 14.2499 16.3336 14.4604 16.6089 14.6434C16.8291 14.7908 17.0655 14.9219 17.31 15.0337C17.5221 15.1308 17.7391 15.215 17.9561 15.2798C18.4451 15.4288 18.9519 15.5049 19.4652 15.5049C19.9914 15.5049 20.5112 15.4256 21.0115 15.2685C21.2285 15.2005 21.4455 15.1146 21.6592 15.0142C21.9053 14.8976 22.1434 14.7632 22.3636 14.6126C22.6146 14.4426 22.8542 14.245 23.0777 14.028C23.1376 13.9697 23.2315 13.9665 23.2946 14.0199C23.4533 14.1527 23.5845 14.2661 23.7075 14.3794C24.6516 15.2426 25.4612 16.5235 26.1153 18.1899C26.6286 19.4999 27.048 21.0529 27.3621 22.8051C27.3978 22.9994 27.4301 23.197 27.4625 23.3913C27.4949 23.5873 27.5241 23.7832 27.5532 23.9775C27.8107 25.7459 27.8916 27.1888 27.924 27.7313L27.9289 27.8252C27.9321 27.8689 27.9159 27.9126 27.8851 27.945C27.8495 27.9774 27.8074 27.9969 27.7621 27.9969ZM11.301 27.673H27.5921C27.5581 27.0835 27.4722 25.7006 27.2294 24.0245C27.2018 23.8318 27.1711 23.6375 27.1403 23.4431C27.1095 23.2504 27.0755 23.0561 27.0415 22.8618C26.3404 18.9526 25.113 16.1009 23.4873 14.6175C23.3983 14.5349 23.3027 14.4523 23.1959 14.3616C22.9902 14.5527 22.7716 14.726 22.5449 14.8815C22.3102 15.0418 22.0576 15.1843 21.7952 15.3074C21.5685 15.4142 21.337 15.5049 21.1071 15.5762C20.576 15.743 20.0238 15.8272 19.4652 15.8272C18.9211 15.8272 18.3803 15.7462 17.8621 15.5875C17.6322 15.5179 17.4023 15.4288 17.1756 15.3252C16.9149 15.2053 16.6655 15.0661 16.4307 14.9106C16.1781 14.7422 15.9401 14.5543 15.7183 14.3471C15.6049 14.4426 15.5045 14.5317 15.409 14.6191C13.7849 16.1025 12.5559 18.9542 11.8548 22.8634C11.8208 23.0561 11.7868 23.2521 11.756 23.4448C11.7253 23.6375 11.6945 23.8334 11.667 24.0261C11.4192 25.6989 11.335 27.0819 11.301 27.673ZM57.836 22.9946H48.3829C48.3036 22.9946 48.2372 22.9379 48.2226 22.8602C47.4729 18.5283 46.1452 15.4644 44.2733 13.756C44.1325 13.6264 43.9819 13.4953 43.8264 13.3657C43.7633 13.3123 43.7503 13.2216 43.794 13.152C44.3446 12.3099 44.636 11.3334 44.636 10.3294C44.636 10.2468 44.6328 10.1658 44.6296 10.1027C44.6279 10.0622 44.6409 10.0217 44.6684 9.99091C44.8611 9.7642 45.0603 9.55692 45.2578 9.37555C45.3857 9.25895 45.5282 9.13588 45.6902 9.00147C45.7549 8.94803 45.8472 8.95289 45.9071 9.01118C46.8819 9.97148 48.1708 10.501 49.5342 10.501C50.8895 10.501 52.1719 9.97796 53.1451 9.02576C53.205 8.96746 53.2989 8.96422 53.362 9.01766C53.5207 9.15045 53.6519 9.26381 53.7749 9.37717C54.6186 10.148 55.3569 11.2557 55.969 12.671C56.4677 13.824 56.8887 15.194 57.2207 16.7389C57.8036 19.4595 57.9428 21.9193 57.9898 22.729L57.9946 22.8229C57.9979 22.8666 57.9817 22.9104 57.9509 22.9428C57.9234 22.9768 57.8813 22.9946 57.836 22.9946ZM48.5189 22.6707H57.6643C57.6141 21.7978 57.4668 19.4222 56.9065 16.8069C56.1763 13.3965 55.0493 10.9771 53.5596 9.61684C53.4689 9.53425 53.375 9.45166 53.2681 9.36097C52.248 10.3067 50.9284 10.8265 49.5374 10.8265C48.1368 10.8265 46.8123 10.3018 45.7889 9.34478C45.6756 9.44032 45.5752 9.52939 45.4797 9.61684C45.3048 9.77553 45.1299 9.95691 44.9583 10.1545C44.9599 10.2079 44.9615 10.2678 44.9615 10.331C44.9615 11.3512 44.6798 12.3439 44.1438 13.2102C44.2636 13.3123 44.3818 13.4159 44.4935 13.5179C45.5477 14.4798 46.4431 15.8758 47.1572 17.6668C47.7255 19.0886 48.1838 20.7728 48.5189 22.6707ZM30.5131 22.9946H28.3822C28.3029 22.9946 28.2365 22.9379 28.2219 22.8602C27.4722 18.5283 26.1445 15.4644 24.2727 13.756C24.1318 13.6264 23.9812 13.4953 23.8257 13.3657C23.7626 13.3123 23.7496 13.2216 23.7934 13.152C24.3439 12.3099 24.6354 11.3334 24.6354 10.3294C24.6354 10.2419 24.6337 10.1529 24.6289 10.0638C24.6273 10.0217 24.6402 9.9812 24.6677 9.95043C24.8491 9.73991 25.0369 9.5472 25.2231 9.37555C25.3527 9.25733 25.4903 9.1375 25.6555 9.00147C25.7202 8.94803 25.8125 8.95289 25.8724 9.01118C26.8472 9.97148 28.1361 10.501 29.4995 10.501C30.8548 10.501 32.1372 9.97796 33.1104 9.02576C33.1703 8.96746 33.2642 8.96422 33.3274 9.01766C33.486 9.15045 33.6172 9.26381 33.7403 9.37717C33.9168 9.5391 34.0933 9.71886 34.2633 9.91318C34.2908 9.94557 34.3054 9.98605 34.3038 10.0298C34.2973 10.1399 34.294 10.2387 34.294 10.331C34.294 11.3285 34.5806 12.2985 35.1231 13.1358C35.1684 13.2054 35.1538 13.2961 35.0907 13.3479C34.9255 13.4855 34.7669 13.6232 34.6211 13.756C32.7493 15.4644 31.4215 18.5283 30.6718 22.8602C30.6589 22.9379 30.5909 22.9946 30.5131 22.9946ZM28.5183 22.6707H30.3771C30.7123 20.7728 31.1706 19.0886 31.7389 17.6652C32.453 15.8741 33.35 14.4798 34.4025 13.5163C34.5207 13.4094 34.6454 13.2993 34.775 13.1892C34.2471 12.3277 33.9702 11.3415 33.9702 10.3294C33.9702 10.25 33.9718 10.1658 33.9767 10.0767C33.8277 9.90994 33.6755 9.7561 33.5233 9.61684C33.4342 9.53425 33.3387 9.45166 33.2318 9.36097C32.2117 10.3067 30.892 10.8265 29.5011 10.8265C28.1005 10.8265 26.776 10.3018 25.7526 9.34478C25.6393 9.44032 25.5389 9.52939 25.4434 9.61684C25.2798 9.76582 25.1163 9.93261 24.9576 10.1156C24.9608 10.1869 24.9624 10.2597 24.9624 10.331C24.9624 11.3512 24.6807 12.3439 24.1447 13.2102C24.2646 13.3123 24.3828 13.4159 24.4945 13.5179C25.5486 14.4798 26.444 15.8758 27.1581 17.6668C27.7232 19.0886 28.1815 20.7728 28.5183 22.6707ZM10.5109 22.9946H1.16306C1.11772 22.9946 1.07562 22.9768 1.04486 22.9444C1.01409 22.912 0.997902 22.8683 1.00114 22.8245L1.006 22.7306C1.05296 21.9209 1.19221 19.4595 1.77513 16.7389C2.10707 15.1924 2.52807 13.824 3.02679 12.671C3.63886 11.2557 4.37723 10.148 5.22084 9.37717C5.35038 9.25895 5.48801 9.13912 5.65318 9.00309C5.71794 8.94965 5.81024 8.95451 5.87015 9.0128C6.84493 9.9731 8.13383 10.5026 9.49722 10.5026C10.8525 10.5026 12.1349 9.97958 13.1081 9.02738C13.168 8.96908 13.2619 8.96584 13.3251 9.01928C13.4838 9.15207 13.6149 9.26543 13.738 9.37879C13.9145 9.54072 14.091 9.72048 14.261 9.9148C14.2885 9.94719 14.3031 9.98767 14.3015 10.0314C14.295 10.1415 14.2917 10.2403 14.2917 10.3326C14.2917 11.3301 14.5783 12.3002 15.1208 13.1374C15.1661 13.207 15.1516 13.2977 15.0884 13.3495C14.9232 13.4872 14.7646 13.6248 14.6188 13.7576C12.747 15.4644 11.4192 18.5283 10.6695 22.8602C10.6566 22.9379 10.5886 22.9946 10.5109 22.9946ZM1.3347 22.6707H10.3748C10.71 20.7728 11.1683 19.0886 11.7366 17.6652C12.4507 15.8741 13.3477 14.4798 14.4002 13.5163C14.5184 13.4094 14.6431 13.2993 14.7727 13.1892C14.2448 12.3277 13.9679 11.3415 13.9679 10.3294C13.9679 10.25 13.9695 10.1658 13.9744 10.0767C13.8254 9.90994 13.6732 9.7561 13.521 9.61684C13.4319 9.53425 13.3364 9.45166 13.2295 9.36097C12.2094 10.3067 10.8898 10.8265 9.49884 10.8265C8.09821 10.8265 6.77368 10.3018 5.75033 9.34478C5.63698 9.44032 5.53659 9.52939 5.44106 9.61684C3.94975 10.9787 2.82439 13.3981 2.09412 16.8069C1.53225 19.4222 1.3849 21.7995 1.3347 22.6707ZM39.4659 14.6596C38.755 14.6596 38.0474 14.4831 37.424 14.1479C37.1261 13.9876 36.8443 13.7916 36.5901 13.5649C36.5869 13.5617 36.5836 13.5584 36.5788 13.5552C36.5723 13.5487 36.5658 13.5438 36.5577 13.5374C36.4071 13.4013 36.2646 13.2507 36.1335 13.0937C36.0056 12.9398 35.8874 12.7746 35.7805 12.6014C35.4097 12.0022 35.1911 11.3107 35.1458 10.6063C35.1393 10.501 35.136 10.4136 35.136 10.3294C35.136 10.0994 35.1555 9.8646 35.1927 9.63141C35.3546 8.62739 35.8712 7.7092 36.6468 7.04363C37.4305 6.36997 38.4312 5.99913 39.4659 5.99913C40.5135 5.99913 41.5255 6.37807 42.3141 7.06792C43.0945 7.7513 43.6046 8.68893 43.7503 9.71076C43.7795 9.91804 43.7957 10.1253 43.7957 10.3294C43.7957 10.4605 43.7892 10.5917 43.7762 10.7326C43.7147 11.3998 43.4945 12.0524 43.1399 12.6192C43.033 12.7908 42.9132 12.956 42.7836 13.1098C42.6833 13.2313 42.5715 13.3495 42.4517 13.4629L42.4501 13.4645C42.4193 13.4936 42.3886 13.5228 42.3562 13.5519C42.1246 13.7592 41.8688 13.9438 41.5967 14.0977C40.9491 14.4653 40.2123 14.6596 39.4659 14.6596ZM39.4659 6.32463C37.4904 6.32463 35.8291 7.73835 35.5133 9.68485C35.4777 9.90023 35.4615 10.1172 35.4615 10.331C35.4615 10.4087 35.4647 10.4897 35.4712 10.5868C35.5117 11.2395 35.7157 11.8775 36.0574 12.4329C36.1562 12.5933 36.2663 12.7455 36.3845 12.888C36.5059 13.0337 36.6387 13.173 36.7779 13.2993C36.7828 13.3026 36.786 13.3058 36.7909 13.3107C36.7957 13.3155 36.8022 13.3204 36.8071 13.3252C37.0435 13.5357 37.3026 13.7171 37.5795 13.8645C38.1575 14.1738 38.8101 14.3373 39.4691 14.3373C40.1589 14.3373 40.8406 14.1576 41.4397 13.8175C41.6923 13.675 41.9287 13.505 42.1424 13.3123C42.1716 13.2864 42.1991 13.2588 42.2282 13.2313L42.2299 13.2297C42.34 13.1244 42.4436 13.0143 42.5359 12.9042C42.6557 12.7617 42.7658 12.6095 42.8646 12.4508C43.1933 11.9261 43.3957 11.322 43.4524 10.7051C43.4637 10.5739 43.4702 10.4524 43.4702 10.3326C43.4702 10.1448 43.4556 9.95205 43.4281 9.76096C43.1496 7.8015 41.4462 6.32463 39.4659 6.32463ZM19.4636 14.6596C18.7527 14.6596 18.0451 14.4831 17.4217 14.1479C17.1238 13.9876 16.842 13.7916 16.5878 13.5649C16.5846 13.5617 16.5813 13.5584 16.5765 13.5552C16.57 13.5487 16.5635 13.5438 16.5554 13.5374C16.4048 13.4013 16.2623 13.2507 16.1312 13.0937C16.0033 12.9398 15.8851 12.7746 15.7782 12.6014C15.4074 12.0022 15.1888 11.3107 15.1435 10.6063C15.137 10.501 15.1337 10.4136 15.1337 10.3294C15.1337 10.0994 15.1532 9.8646 15.1904 9.63141C15.3523 8.62739 15.8689 7.7092 16.6445 7.04363C17.4282 6.36997 18.4289 5.99913 19.4636 5.99913C20.5047 5.99913 21.5103 6.37483 22.2972 7.05497C23.0744 7.72863 23.5893 8.65816 23.7432 9.67027C23.7755 9.88727 23.7934 10.1091 23.7934 10.3294C23.7934 10.433 23.7885 10.5431 23.7788 10.6694C23.7254 11.3593 23.5035 12.0346 23.1376 12.6192C23.0307 12.7908 22.9109 12.956 22.7813 13.1098C22.6615 13.254 22.5304 13.39 22.3944 13.5163C22.3814 13.5276 22.3684 13.5406 22.3539 13.5519C22.1077 13.7722 21.8373 13.9649 21.5491 14.1236C20.9144 14.475 20.1922 14.6596 19.4636 14.6596ZM19.4636 6.32463C17.4881 6.32463 15.8268 7.73835 15.511 9.68485C15.4754 9.90023 15.4592 10.1172 15.4592 10.331C15.4592 10.4071 15.4624 10.4897 15.4689 10.5868C15.5094 11.2395 15.7134 11.8775 16.0551 12.4329C16.1539 12.5933 16.264 12.7455 16.3822 12.888C16.5036 13.0337 16.6364 13.173 16.7756 13.2993C16.7805 13.3026 16.7837 13.3058 16.7886 13.3107C16.7934 13.3155 16.7999 13.3204 16.8048 13.3252C17.0412 13.5357 17.3003 13.7171 17.5772 13.8645C18.1552 14.1738 18.8078 14.3373 19.4668 14.3373C20.142 14.3373 20.8091 14.1657 21.3969 13.8418C21.6641 13.6944 21.9134 13.5163 22.1418 13.3123C22.1547 13.3009 22.166 13.2896 22.179 13.2783C22.3053 13.1617 22.4267 13.0354 22.5385 12.9026C22.6583 12.7601 22.7684 12.6078 22.8672 12.4491C23.2056 11.9083 23.4096 11.2832 23.4598 10.6451C23.4695 10.5285 23.4728 10.4265 23.4728 10.331C23.4728 10.1269 23.4566 9.92128 23.4274 9.72048C23.1262 7.78531 21.4244 6.32463 19.4636 6.32463ZM49.5374 9.65894C48.4607 9.65894 47.4276 9.26057 46.6309 8.53832C46.4803 8.40068 46.3378 8.25169 46.2067 8.09461C46.0788 7.94077 45.9606 7.77559 45.8537 7.60232C45.4327 6.92056 45.2092 6.13516 45.2092 5.33032C45.2092 4.17408 45.6594 3.08586 46.4771 2.26969C47.2948 1.4519 48.3813 1.00171 49.5374 1.00171C50.6936 1.00171 51.7817 1.4519 52.5978 2.26969C53.4139 3.08748 53.8656 4.17408 53.8656 5.33032C53.8656 6.14164 53.6389 6.93351 53.2098 7.62013C53.103 7.79179 52.9831 7.95697 52.8536 8.11081C52.7224 8.26789 52.5783 8.41687 52.4261 8.5529C51.6327 9.26543 50.6061 9.65894 49.5374 9.65894ZM46.4544 7.88733C46.5759 8.03308 46.7086 8.17234 46.8479 8.29866C47.5863 8.96746 48.54 9.33668 49.5374 9.33668C50.5268 9.33668 51.4756 8.97232 52.2124 8.31161C52.3533 8.1853 52.486 8.04765 52.6075 7.90191C52.7273 7.7594 52.8374 7.60718 52.9362 7.44848C53.3329 6.81368 53.5418 6.08172 53.5418 5.33032C53.5418 3.12148 51.7444 1.32397 49.5358 1.32397C47.3272 1.32397 45.5299 3.12148 45.5299 5.33032C45.5299 6.07524 45.7355 6.80072 46.1257 7.43228C46.2261 7.59098 46.3362 7.74483 46.4544 7.88733ZM29.4995 9.65894C28.4227 9.65894 27.3897 9.26057 26.593 8.53832C26.4424 8.4023 26.2999 8.25169 26.1688 8.09461C26.0408 7.94077 25.9226 7.77559 25.8158 7.60232C25.3948 6.92056 25.1713 6.13516 25.1713 5.33032C25.1713 4.17408 25.6215 3.08586 26.4392 2.26969C27.2569 1.45352 28.3434 1.00171 29.4995 1.00171C30.6556 1.00171 31.7438 1.4519 32.5598 2.26969C33.3759 3.08748 33.8277 4.17408 33.8277 5.33032C33.8277 6.14164 33.601 6.93351 33.1719 7.62013C33.065 7.79179 32.9452 7.95697 32.8157 8.11081C32.6845 8.26789 32.5404 8.41687 32.3882 8.5529C31.5948 9.26543 30.5682 9.65894 29.4995 9.65894ZM29.4995 1.32397C27.2909 1.32397 25.4935 3.12148 25.4935 5.33032C25.4935 6.07524 25.6992 6.80072 26.0894 7.43228C26.1882 7.5926 26.2983 7.74483 26.4165 7.88733C26.5379 8.03308 26.6707 8.17234 26.81 8.29866C27.5483 8.96746 28.5021 9.33668 29.4995 9.33668C30.4889 9.33668 31.4377 8.97232 32.1745 8.31161C32.3153 8.1853 32.4481 8.04765 32.5696 7.90191C32.6894 7.7594 32.7995 7.60718 32.8983 7.44848C33.295 6.81368 33.5039 6.08172 33.5039 5.33032C33.5055 3.12148 31.7081 1.32397 29.4995 1.32397ZM9.49722 9.65894C8.42043 9.65894 7.38737 9.26057 6.59071 8.53832C6.44012 8.40068 6.29763 8.25169 6.16647 8.09461C6.03855 7.94077 5.92035 7.77559 5.81348 7.60232C5.39248 6.92056 5.16903 6.13516 5.16903 5.33032C5.16903 4.17408 5.61917 3.08586 6.43688 2.26969C7.25459 1.4519 8.34109 1.00171 9.49722 1.00171C10.6533 1.00171 11.7415 1.4519 12.5576 2.26969C13.3736 3.08748 13.8254 4.17408 13.8254 5.33032C13.8254 6.14164 13.5987 6.93351 13.1696 7.62013C13.0628 7.79179 12.9429 7.95697 12.8134 8.11081C12.6822 8.26789 12.5381 8.41687 12.3859 8.5529C11.5925 9.26543 10.5659 9.65894 9.49722 9.65894ZM9.49722 1.32397C7.28859 1.32397 5.49125 3.12148 5.49125 5.33032C5.49125 6.07524 5.69689 6.80072 6.08713 7.43228C6.1859 7.5926 6.29601 7.74483 6.41421 7.88733C6.53565 8.03308 6.66843 8.17234 6.80768 8.29866C7.54605 8.96746 8.49977 9.33668 9.49722 9.33668C10.4866 9.33668 11.4354 8.97232 12.1722 8.31161C12.3131 8.1853 12.4458 8.04765 12.5673 7.90191C12.6871 7.7594 12.7972 7.60718 12.896 7.44848C13.2927 6.81368 13.5016 6.08172 13.5016 5.33032C13.5032 3.12148 11.7058 1.32397 9.49722 1.32397Z" fill="#2C3D55" stroke="#2C3D55" stroke-width="0.3" stroke-miterlimit="10"/>
</svg>
