<svg width="30" height="31" viewBox="0 0 30 31" fill="none" xmlns="http://www.w3.org/2000/svg">
<path d="M16.3044 11.625C17.5435 12.8521 20.3479 15.6292 21.5218 16.7917C23.087 18.3417 24.7826 19.375 24.7826 25.8333C24.7826 26.1563 24.7826 26.4792 24.7826 26.4792C24.7826 26.4792 26.2826 25.3813 27.3913 24.5417C28.5652 23.7021 30.3261 25.7688 28.6957 27.125C27.6522 28.0292 24.7826 30.3542 24.7826 30.3542H10.4348V29.0625C10.4348 28.3521 11.0218 27.7708 11.7392 27.7708H15.6522C15.6522 27.7708 12.8479 23.9604 13.6957 21.9583C14.5435 19.9563 16.4348 19.5688 19.0435 20.3438" stroke="#2C3D55" stroke-width="0.8" stroke-miterlimit="10" stroke-linecap="round" stroke-linejoin="round"/>
<path d="M11.0869 4.52075C11.0869 4.52075 10.4347 5.74784 10.4347 8.26659C10.4347 9.55825 11.2825 10.6562 12.5217 10.9145C14.1521 11.2374 15.6521 9.94575 15.6521 8.39575C15.6521 5.94159 15.1304 3.42284 13.0434 1.93742C11.9999 1.16242 9.13036 0.645752 7.82601 0.645752C6.91297 0.645752 6.32601 0.904085 5.86949 1.29159C5.5434 1.54992 5.21732 1.93742 5.21732 1.93742C5.21732 1.93742 3.06514 1.93742 1.95645 1.93742C0.978187 1.93742 0.6521 2.51867 0.6521 3.22909C0.6521 3.74575 0.912969 4.77909 1.30427 6.45825C2.60862 6.91034 4.7608 7.68534 6.52167 8.39575C6.52167 8.46034 5.21732 12.5937 5.21732 14.8541C5.21732 17.1145 5.60862 18.7937 8.47819 21.3124L6.52167 27.7708C5.80427 27.7708 5.21732 28.352 5.21732 29.0624V30.3541H8.47819" stroke="#2C3D55" stroke-width="0.8" stroke-miterlimit="10" stroke-linecap="round" stroke-linejoin="round"/>
</svg>
