<svg width="39" height="28" viewBox="0 0 39 28" fill="none" xmlns="http://www.w3.org/2000/svg">
<path d="M5.01457 1.46192C5.01457 1.16677 5.24413 0.937207 5.53928 0.937207H10.2781C10.5732 0.937207 10.8028 1.16677 10.8028 1.46192V6.77462H11.5243V1.46192C11.5243 0.773235 10.9668 0.215729 10.2781 0.215729H5.53928C4.8506 0.215729 4.29309 0.773235 4.29309 1.46192V6.77462H5.03097V1.46192H5.01457Z" fill="#2C3D55"/>
<path d="M1.52196 24.0409C1.40718 23.8278 1.3416 23.5818 1.3416 23.3359V9.02108C1.3416 8.18482 2.03028 7.49614 2.86654 7.49614H12.9508C13.7871 7.49614 14.4758 8.18482 14.4758 9.02108V23.3195C14.4758 23.5818 14.4102 23.8278 14.2954 24.0245C14.5086 24.1557 14.6889 24.3361 14.8365 24.5493C15.0661 24.1885 15.1973 23.7786 15.1973 23.3195V9.02108C15.2137 7.79129 14.197 6.77466 12.9508 6.77466H11.5243H10.8028H5.01458H4.2767H2.86654C1.63675 6.77466 0.620117 7.79129 0.620117 9.02108V23.3195C0.620117 23.7786 0.751295 24.1885 0.980856 24.5493C1.12843 24.3361 1.3088 24.1721 1.52196 24.0409Z" fill="#2C3D55"/>
<path d="M11.7703 24.8444H4.27672C4.21113 24.8444 4.14554 24.8608 4.07996 24.8936C4.16194 25.0903 4.19474 25.3035 4.19474 25.5166C4.19474 25.533 4.19474 25.5494 4.19474 25.5494C4.21113 25.5494 4.24393 25.5658 4.27672 25.5658H11.6227C11.6227 25.5494 11.6227 25.533 11.6227 25.5166C11.6227 25.2871 11.6719 25.0575 11.7703 24.8444Z" fill="#2C3D55"/>
<path d="M14.2953 24.041C14.033 23.877 13.7214 23.7786 13.3771 23.7786C12.6556 23.7786 12.0325 24.2213 11.7538 24.8444C11.6718 25.0576 11.6062 25.2871 11.6062 25.5331C11.6062 25.5495 11.6062 25.5659 11.6062 25.5823C11.639 26.5333 12.4097 27.2876 13.3607 27.2876C14.3281 27.2876 15.1152 26.5005 15.1152 25.5331C15.1152 25.1724 15.0004 24.828 14.8201 24.5493C14.7053 24.3361 14.5085 24.1721 14.2953 24.041ZM13.3771 26.5497C12.8196 26.5497 12.3441 26.0906 12.3441 25.5167C12.3441 24.9428 12.8032 24.4837 13.3771 24.4837C13.951 24.4837 14.4101 24.9428 14.4101 25.5167C14.4101 26.0906 13.951 26.5497 13.3771 26.5497Z" fill="#2C3D55"/>
<path d="M4.0799 24.8936C3.83394 24.2377 3.19445 23.7622 2.44017 23.7622C2.11223 23.7622 1.78428 23.8606 1.52193 24.0245C1.30876 24.1557 1.12839 24.3361 0.980819 24.5492C0.784052 24.828 0.685669 25.1723 0.685669 25.5331C0.685669 26.5005 1.47274 27.2876 2.44017 27.2876C3.39121 27.2876 4.17828 26.5169 4.19468 25.5659C4.19468 25.5495 4.19468 25.5495 4.19468 25.5331C4.19468 25.3035 4.16188 25.0904 4.0799 24.8936ZM3.4732 25.5331C3.4732 26.107 3.01408 26.5661 2.44017 26.5661C1.88267 26.5661 1.40715 26.107 1.40715 25.5331C1.40715 24.9592 1.86627 24.5001 2.44017 24.5001C3.01408 24.5001 3.4732 24.9592 3.4732 25.5331Z" fill="#2C3D55"/>
<path d="M2.62038 10.1361H13.3114C13.5081 10.1361 13.6721 9.97212 13.6721 9.77535C13.6721 9.57858 13.5081 9.41461 13.3114 9.41461H2.62038C2.42362 9.41461 2.25964 9.57858 2.25964 9.77535C2.25964 9.97212 2.40722 10.1361 2.62038 10.1361Z" fill="#2C3D55"/>
<path d="M13.3114 23.2702C13.5081 23.2702 13.6721 23.1062 13.6721 22.9095C13.6721 22.7127 13.5081 22.5487 13.3114 22.5487H2.62038C2.42362 22.5487 2.25964 22.7127 2.25964 22.9095C2.25964 23.1062 2.42362 23.2702 2.62038 23.2702H13.3114Z" fill="#2C3D55"/>
<path d="M24.1034 7.66394C24.1034 7.50381 24.2416 7.38063 24.4048 7.38063H30.8217C30.985 7.38063 31.1106 7.51612 31.1106 7.66394V9.56089H31.6631V7.66394C31.6631 7.20818 31.2864 6.82632 30.8092 6.82632H24.3922C23.9151 6.82632 23.5383 7.20818 23.5383 7.66394V9.56089H24.0909V7.66394H24.1034Z" fill="#2C3D55"/>
<path d="M22.2198 25.4263V26.0176C22.2198 26.0545 22.2198 26.0915 22.2072 26.1161H20.1603C20.1603 26.0915 20.1477 26.0668 20.1477 26.0176V25.4263H19.5952V26.0176C19.5952 26.3871 19.7961 26.6581 20.0724 26.6581H22.2951C22.5714 26.6581 22.7723 26.3871 22.7723 26.0176V25.4263H22.2198Z" fill="#2C3D55"/>
<path d="M34.7899 25.4263V26.0176C34.7899 26.0545 34.7899 26.0915 34.7774 26.1161H32.7305C32.7305 26.0915 32.7179 26.0668 32.7179 26.0176V25.4263H32.1528V26.0176C32.1528 26.3871 32.3538 26.6581 32.63 26.6581H34.8527C35.129 26.6581 35.3299 26.3871 35.3299 26.0176V25.4263H34.7899Z" fill="#2C3D55"/>
<path d="M22.5338 9.83188V10.1029H32.6301V9.83188C32.6301 9.68406 32.7557 9.56088 32.9064 9.56088H31.6758H31.1232H24.1035H23.551H22.2576C22.4208 9.56088 22.5338 9.68406 22.5338 9.83188Z" fill="#2C3D55"/>
<path d="M19.5582 25.4263H19.5833H20.1484H22.2204H22.7855H32.1785H32.7436H34.7905H35.3556H35.6696C37.0007 25.4263 38.0806 24.3669 38.0806 23.0613V11.9259C38.0806 10.6202 37.0007 9.56088 35.6696 9.56088H35.0668C35.2175 9.56088 35.3431 9.68406 35.3431 9.83188V10.1029H35.657C36.6742 10.1029 37.503 10.9158 37.503 11.9136V23.0613C37.503 24.059 36.6742 24.872 35.657 24.872H19.5582C18.541 24.872 17.7122 24.059 17.7122 23.0613V13.4656C17.7122 13.3178 17.5866 13.1947 17.4359 13.1947C17.2852 13.1947 17.1597 13.3178 17.1597 13.4656V23.0613C17.1471 24.3669 18.227 25.4263 19.5582 25.4263Z" fill="#2C3D55"/>
<path d="M17.7116 11.9259C17.7116 10.9282 18.5404 10.1152 19.5575 10.1152H19.8213V9.8442C19.8213 9.69639 19.9468 9.57321 20.0975 9.57321H19.5575C18.2264 9.57321 17.1465 10.6325 17.1465 11.9382C17.1465 12.0861 17.2721 12.2092 17.4228 12.2092C17.586 12.1969 17.7116 12.0737 17.7116 11.9259Z" fill="#2C3D55"/>
<path d="M35.0662 13.0468H34.7899V22.2113C34.7899 22.3591 34.9155 22.4823 35.0662 22.4823C35.2169 22.4823 35.3425 22.3591 35.3425 22.2113V12.7758C35.355 12.9237 35.2294 13.0468 35.0662 13.0468Z" fill="#2C3D55"/>
<path d="M19.8213 12.7758V22.2236C19.8213 22.3715 19.9469 22.4946 20.0976 22.4946C20.2482 22.4946 20.3738 22.3715 20.3738 22.2236V13.0468H20.0976C19.9469 13.0468 19.8213 12.9237 19.8213 12.7758Z" fill="#2C3D55"/>
<path d="M32.6427 9.83188V10.1029V12.7758C32.6427 12.9237 32.7683 13.0468 32.919 13.0468H34.7901H35.0663C35.217 13.0468 35.3426 12.9237 35.3426 12.7758V12.2462V10.1029V9.83188C35.3426 9.68406 35.217 9.56088 35.0663 9.56088H32.9064C32.7683 9.56088 32.6427 9.68406 32.6427 9.83188ZM34.7901 12.2462V12.5049H33.1952V10.1029H34.7901V12.2462Z" fill="#2C3D55"/>
<path d="M19.8213 9.83188V10.1029V12.2462V12.7758C19.8213 12.9237 19.9469 13.0468 20.0976 13.0468H20.3738H22.2449C22.3956 13.0468 22.5212 12.9237 22.5212 12.7758V10.1029V9.83188C22.5212 9.68406 22.3956 9.56088 22.2449 9.56088H20.085C19.9469 9.56088 19.8213 9.68406 19.8213 9.83188ZM21.9812 12.5049H20.3864V12.2462V10.1029H21.9812V12.5049Z" fill="#2C3D55"/>
</svg>
