
<svg width="45" height="45" viewBox="0 0 45 45" fill="none" xmlns="http://www.w3.org/2000/svg">

<path fill-rule="evenodd" clip-rule="evenodd" d="M21 44.5C32.598 44.5 42 35.098 42 23.5C42 11.902 32.598 2.5 21 2.5C9.40202 2.5 0 11.902 0 23.5C0 27.2663 0.991496 30.8011 2.72771 33.8575L0 44.5L10.9723 41.9557C13.9521 43.5782 17.3684 44.5 21 44.5ZM21 41.2692C30.8137 41.2692 38.7692 33.3137 38.7692 23.5C38.7692 13.6863 30.8137 5.73077 21 5.73077C11.1863 5.73077 3.23077 13.6863 3.23077 23.5C3.23077 27.2891 4.41675 30.8012 6.43776 33.6853L4.84615 39.6538L10.9199 38.1354C13.784 40.1118 17.2569 41.2692 21 41.2692Z" fill="#BFC8D0"/>
<path d="M39 21C39 30.9411 30.9411 39 21 39C17.2082 39 13.6903 37.8276 10.789 35.8255L4.63636 37.3636L6.24864 31.3176C4.20139 28.396 3 24.8383 3 21C3 11.0589 11.0589 3 21 3C30.9411 3 39 11.0589 39 21Z" fill="url(#paint0_linear)"/>
<path fill-rule="evenodd" clip-rule="evenodd" d="M21 42C32.598 42 42 32.598 42 21C42 9.40202 32.598 0 21 0C9.40202 0 0 9.40202 0 21C0 24.7663 0.991496 28.3011 2.72771 31.3575L0 42L10.9723 39.4557C13.9521 41.0782 17.3684 42 21 42ZM21 38.7692C30.8137 38.7692 38.7692 30.8137 38.7692 21C38.7692 11.1863 30.8137 3.23077 21 3.23077C11.1863 3.23077 3.23077 11.1863 3.23077 21C3.23077 24.7891 4.41675 28.3012 6.43776 31.1853L4.84615 37.1538L10.9199 35.6354C13.784 37.6118 17.2569 38.7692 21 38.7692Z" fill="white"/>
<path d="M15.75 11.2501C15.2507 10.2472 14.4848 10.336 13.711 10.336C12.3281 10.336 10.1719 11.9924 10.1719 15.0752C10.1719 17.6017 11.2852 20.3673 15.0366 24.5044C18.6571 28.4971 23.4141 30.5625 27.3633 30.4922C31.3125 30.4218 32.125 27.0234 32.125 25.8757C32.125 25.367 31.8094 25.1132 31.5919 25.0443C30.2461 24.3984 27.764 23.195 27.1992 22.9688C26.6345 22.7427 26.3396 23.0486 26.1563 23.2149C25.6441 23.703 24.6289 25.1414 24.2813 25.4649C23.9337 25.7885 23.4154 25.6247 23.1998 25.5024C22.4062 25.184 20.2544 24.2268 18.5392 22.5642C16.418 20.5079 16.2935 19.8005 15.8939 19.1707C15.5741 18.6669 15.8087 18.3578 15.9258 18.2227C16.3828 17.6954 17.0139 16.8812 17.2969 16.4766C17.5799 16.072 17.3552 15.4578 17.2204 15.0752C16.6407 13.4298 16.1495 12.0524 15.75 11.2501Z" fill="white"/>
<path d="M75.3305 16.37L69.6759 24.1034C69.0696 24.9326 70.1599 25.9287 70.99 25.304L75.8184 21.6703C76.3099 21.3004 76.9988 21.2955 77.496 21.6582L81.7903 24.7908C82.6138 25.3916 83.7908 25.2188 84.3904 24.4091L90.3207 16.4011C90.9358 15.5706 89.837 14.5664 89.0057 15.1993L83.9009 19.0854C83.4094 19.4596 82.7168 19.4665 82.2173 19.1021L77.937 15.9797C77.11 15.3764 75.9275 15.5535 75.3305 16.37Z" fill="white"/>
<defs>
<linearGradient id="paint0_linear" x1="36.75" y1="7.5" x2="3" y2="39" gradientUnits="userSpaceOnUse">
<stop stop-color="#5BD066"/>
<stop offset="1" stop-color="#27B43E"/>
</linearGradient>
</defs>
</svg>
